<?xml version="1.0" encoding="utf-8"?>
<!-- Generator: Adobe Illustrator 27.5.0, SVG Export Plug-In . SVG Version: 6.00 Build 0)  -->
<svg version="1.1" xmlns="http://www.w3.org/2000/svg" xmlns:xlink="http://www.w3.org/1999/xlink" x="0px" y="0px"
	 viewBox="0 0 500 500" style="enable-background:new 0 0 500 500;" xml:space="preserve">
<g id="BACKGROUND">
	<rect style="opacity:0.25;fill:#D1BAE2;" width="500" height="500"/>
	<g style="opacity:0.79;">
		<g>
			<path style="opacity:0.25;fill:#D1BAE2;" d="M76.657,197.762H51.481c-1.972,0-3.57-1.599-3.57-3.57v-2.583
				c0-1.972,1.598-3.57,3.57-3.57h25.176c1.972,0,3.57,1.598,3.57,3.57v2.583C80.228,196.163,78.629,197.762,76.657,197.762z"/>
			<path style="opacity:0.25;fill:#D1BAE2;" d="M44.341,330.738H19.164c-1.972,0-3.57-1.599-3.57-3.57v-2.583
				c0-1.972,1.598-3.57,3.57-3.57h25.176c1.972,0,3.57,1.598,3.57,3.57v2.583C47.911,329.14,46.312,330.738,44.341,330.738z"/>
			<path style="opacity:0.25;fill:#D1BAE2;" d="M91.093,184.297H65.917c-1.972,0-3.57-1.598-3.57-3.57v-2.583
				c0-1.972,1.598-3.57,3.57-3.57h25.176c1.972,0,3.57,1.599,3.57,3.57v2.583C94.663,182.699,93.065,184.297,91.093,184.297z"/>
			<path style="opacity:0.25;fill:#D1BAE2;" d="M52.34,79.181H27.164c-1.972,0-3.57-1.598-3.57-3.57v-2.583
				c0-1.972,1.598-3.57,3.57-3.57H52.34c1.972,0,3.57,1.598,3.57,3.57v2.583C55.91,77.583,54.312,79.181,52.34,79.181z"/>
			<path style="opacity:0.25;fill:#D1BAE2;" d="M500,227.19v9.72h-12.59c-1.97,0-3.57-1.59-3.57-3.57v-2.58
				c0-1.97,1.6-3.57,3.57-3.57H500z"/>
			<path style="opacity:0.25;fill:#D1BAE2;" d="M340.842,45.303h-25.176c-1.972,0-3.57-1.598-3.57-3.57V39.15
				c0-1.972,1.599-3.57,3.57-3.57h25.176c1.972,0,3.57,1.598,3.57,3.57v2.583C344.412,43.705,342.814,45.303,340.842,45.303z"/>
			<path style="opacity:0.25;fill:#D1BAE2;" d="M456.678,107.612h-25.176c-1.972,0-3.57-1.599-3.57-3.57v-2.583
				c0-1.972,1.599-3.57,3.57-3.57h25.176c1.972,0,3.57,1.598,3.57,3.57v2.583C460.248,106.013,458.65,107.612,456.678,107.612z"/>
		</g>
		<g>
			<path style="opacity:0.25;fill:#D1BAE2;" d="M436.445,321.014h-25.176c-1.972,0-3.57-1.599-3.57-3.57v-2.583
				c0-1.972,1.598-3.57,3.57-3.57h25.176c1.972,0,3.57,1.598,3.57,3.57v2.583C440.015,319.416,438.417,321.014,436.445,321.014z"/>
			<path style="opacity:0.25;fill:#D1BAE2;" d="M450.88,307.55h-25.176c-1.972,0-3.57-1.598-3.57-3.57v-2.583
				c0-1.972,1.598-3.57,3.57-3.57h25.176c1.972,0,3.57,1.599,3.57,3.57v2.583C454.451,305.952,452.852,307.55,450.88,307.55z"/>
			<path style="opacity:0.25;fill:#D1BAE2;" d="M11.04,254.36v2.58c0,1.97-1.59,3.57-3.57,3.57H0v-9.72h7.47
				C9.45,250.79,11.04,252.39,11.04,254.36z"/>
		</g>
		<g>
			<path style="opacity:0.25;fill:#D1BAE2;" d="M248.135,143.438h25.176c1.972,0,3.57,1.598,3.57,3.57v2.583
				c0,1.972-1.598,3.57-3.57,3.57h-25.176c-1.972,0-3.57-1.598-3.57-3.57v-2.583C244.564,145.037,246.163,143.438,248.135,143.438z"
				/>
			<path style="opacity:0.25;fill:#D1BAE2;" d="M233.699,156.902h25.176c1.972,0,3.57,1.598,3.57,3.57v2.583
				c0,1.972-1.599,3.57-3.57,3.57h-25.176c-1.972,0-3.57-1.598-3.57-3.57v-2.583C230.129,158.501,231.727,156.902,233.699,156.902z"
				/>
		</g>
		<g>
			<path style="opacity:0.25;fill:#D1BAE2;" d="M171.123,20.471H196.3c1.972,0,3.57,1.598,3.57,3.57v2.583
				c0,1.972-1.599,3.57-3.57,3.57h-25.176c-1.972,0-3.57-1.598-3.57-3.57v-2.583C167.553,22.07,169.152,20.471,171.123,20.471z"/>
			<path style="opacity:0.25;fill:#D1BAE2;" d="M156.688,33.935h25.176c1.972,0,3.57,1.599,3.57,3.57v2.583
				c0,1.972-1.598,3.57-3.57,3.57h-25.176c-1.972,0-3.57-1.598-3.57-3.57v-2.583C153.118,35.534,154.716,33.935,156.688,33.935z"/>
		</g>
	</g>
</g>
<g id="OBJECTS">
	<g>
		<g>
			<path style="opacity:0.25;fill:#D1BAE2;" d="M500,412.93V500H0v-83.87C106,391.57,448.06,399.07,500,412.93z"/>
			<path style="opacity:0.46;fill:#D1BAE2;" d="M475.03,436.661c0,7.843-100.749,30.186-225.03,30.186S24.97,444.505,24.97,436.661
				c0-7.844,100.749-14.202,225.03-14.202S475.03,428.818,475.03,436.661z"/>
		</g>
		<g>
			<g>
				<linearGradient id="SVGID_1_" gradientUnits="userSpaceOnUse" x1="61.3494" y1="322.1752" x2="60.2064" y2="427.3195">
					<stop  offset="0" style="stop-color:#52ECE3"/>
					<stop  offset="1" style="stop-color:#2790AC"/>
				</linearGradient>
				<path style="fill:url(#SVGID_1_);" d="M51.595,392.37c-16.191-19.429-18.477-50.286-15.81-54.286
					c2.667-4,20.191,46.667,20.191,46.667s-4-31.619,2.476-40.382c6.476-8.762,5.524,34.477,5.524,34.477
					s9.333-46.096,17.905-46.477c8.572-0.381-16.191,64.191-16.191,64.191s15.619-33.334,20.572-32.572
					c4.952,0.762-12.572,41.905-12.572,41.905"/>
				<polygon style="fill:#B98AE2;" points="82.05,436.661 45.902,436.661 43.69,387.989 84.262,387.989 				"/>
			</g>
			<g>
				
					<linearGradient id="SVGID_00000100360116929883526620000001887082755679763870_" gradientUnits="userSpaceOnUse" x1="434.1451" y1="322.1752" x2="433.0021" y2="427.3195">
					<stop  offset="0" style="stop-color:#52ECE3"/>
					<stop  offset="1" style="stop-color:#2790AC"/>
				</linearGradient>
				<path style="fill:url(#SVGID_00000100360116929883526620000001887082755679763870_);" d="M424.391,392.37
					c-16.191-19.429-18.477-50.286-15.81-54.286c2.667-4,20.191,46.667,20.191,46.667s-4-31.619,2.476-40.382
					c6.476-8.762,5.524,34.477,5.524,34.477s9.333-46.096,17.905-46.477c8.572-0.381-16.191,64.191-16.191,64.191
					s15.619-33.334,20.572-32.572c4.952,0.762-12.572,41.905-12.572,41.905"/>
				<polygon style="fill:#B98AE2;" points="454.846,436.661 418.697,436.661 416.486,387.989 457.058,387.989 				"/>
			</g>
		</g>
	</g>
	<g>
		<g>
			<g>
				<polygon style="fill:#382742;" points="377.386,241.662 388.981,418.007 361.523,418.007 343.631,277.381 332.619,418.007 
					305.007,418.007 308.785,249.841 				"/>
				<path style="fill:#24172D;" d="M305.007,418.007l-16.725,10.865c-1.203,0.781-1.929,2.118-1.929,3.553l0,0
					c0,2.34,1.897,4.237,4.237,4.237h37.523c2.309,0,4.193-1.849,4.236-4.158l0.27-14.496H305.007z"/>
				<path style="fill:#24172D;" d="M388.981,418.007l16.725,10.865c1.203,0.781,1.929,2.118,1.929,3.553l0,0
					c0,2.34-1.897,4.237-4.237,4.237h-37.523c-2.309,0-4.193-1.849-4.236-4.158l-0.27-14.496H388.981z"/>
			</g>
			<g>
				
					<linearGradient id="SVGID_00000176019374848490576350000007497975482541299095_" gradientUnits="userSpaceOnUse" x1="300.5073" y1="232.7039" x2="374.8062" y2="114.3997">
					<stop  offset="0" style="stop-color:#FFB8B8"/>
					<stop  offset="1" style="stop-color:#F46C8A"/>
				</linearGradient>
				<path style="fill:url(#SVGID_00000176019374848490576350000007497975482541299095_);" d="M301.021,198.618l-2.711,34.28
					l-9.566,19.735l-7.334,8.964h21.846l0.954-8.964c0,0,9.407-10.966,9.726-15.43c0.319-4.464,2.392-31.867,2.392-31.867
					L301.021,198.618z"/>
				<path style="fill:#FFBB7C;" d="M377.386,241.662c-18.814,10.843-64.561,3.516-64.843,2.59c-0.282-0.926,0-39.333,0-39.333
					c-7.3-0.121-14.238-4.308-14.238-4.308s4.308-25.953,8.132-38.272c2.738-8.803,14.735-15.11,21.337-17.982
					c2.63-1.141,4.402-1.745,4.402-1.745l11.46-1.074l4.536-0.846l1.436-0.268l4.495,1.771l6.066,2.375
					c0,0,16.103,26.785,16.103,43.52c0,2.295,0.027,4.777,0.067,7.394C376.554,211.938,377.386,233.275,377.386,241.662z"/>
				<path style="fill:#FFBB7C;" d="M387.92,190.963c0,0-1.047,0.671-2.885,1.557c-2.026,0.966-5.032,2.174-8.696,2.966
					c-3.368,0.738-7.3,1.127-11.514,0.658c-0.215-0.027-0.443-0.054-0.671-0.081c0,0-3.757-33.455-12.238-49.773
					c-1.154-2.228-2.402-4.133-3.744-5.596c-0.362-0.389-0.725-0.751-1.1-1.074c0,0,3.181,0.336,7.528,1.194
					c7.837,1.543,19.458,4.764,22.947,10.615C382.969,160.514,387.92,190.963,387.92,190.963z"/>
				<path style="fill:#382742;" d="M354.6,140.814c-0.134,0.443-0.309,0.899-0.497,1.382c-0.523,1.288-1.234,2.711-2.187,4.093
					c-2.362,3.382-6.227,6.508-12.534,7.085c-9.998,0.899-11.594-5.153-11.608-9.018c2.63-1.141,4.402-1.745,4.402-1.745
					l11.46-1.074l4.536-0.846c-0.362-0.389-0.725-0.751-1.1-1.074C347.071,139.62,350.252,139.955,354.6,140.814z"/>
				<path style="fill:#A96CFF;" d="M323.89,144.572l5.266-1.758c0,0-0.712,32.845-0.712,36.831c0,3.986,19.452,2.551,19.93,0
					c0.478-2.551,7.175-40.77,7.175-40.77l4.145,0.751c0,0-7.762,39.24-7.628,42.5c0.134,3.259,1.668,14.58,16.925,16.652
					l-3.428,140.785c0,0-35.445,5.262-61.992-1.913c-2.392-23.198,9.566-113.585,9.566-141.295
					c5.899-3.635,10.752-15.115,10.752-15.115V144.572z"/>
				<path style="fill:#382742;" d="M328.165,170.078h-3.906c-0.616,0-1.116-0.5-1.116-1.116l0,0c0-0.616,0.5-1.116,1.116-1.116
					h3.906c0.616,0,1.116,0.5,1.116,1.116l0,0C329.281,169.578,328.782,170.078,328.165,170.078z"/>
				<path style="fill:#382742;" d="M353.807,170.387l-3.852-0.649c-0.608-0.102-1.018-0.678-0.915-1.286l0,0
					c0.102-0.608,0.678-1.018,1.286-0.915l3.852,0.649c0.608,0.102,1.017,0.678,0.915,1.286l0,0
					C354.991,170.08,354.415,170.49,353.807,170.387z"/>
				
					<line style="fill:none;stroke:#FF933B;stroke-width:1.342;stroke-linecap:round;stroke-linejoin:round;stroke-miterlimit:10;" x1="313.138" y1="196.354" x2="313.138" y2="173.466"/>
				
					<path style="fill:none;stroke:#FF933B;stroke-width:1.342;stroke-linecap:round;stroke-linejoin:round;stroke-miterlimit:10;" d="
					M364.154,196.062c0,0-3.613-23.288-5.263-29.49"/>
				<path style="fill:#8C46F9;" d="M328.046,200.691c4.943,0.399,19.691,0.399,19.691,0.399s1.786,21.556-11.613,20.901
					S328.046,200.691,328.046,200.691z"/>
			</g>
			<g>
				<path style="fill:#382742;" d="M309.391,113.385c-7.892,0.49-13.154-4.373-12.915-9.156c0.239-4.783,8.849-2.318,8.849-2.318
					s-10.284-1.907-10.523-8.922c-0.239-7.015,4.783-4.943,13.154-4.863c8.371,0.08,26.228-6.856,32.765-4.703
					c6.537,2.153,4.305,9.008,4.305,9.008s3.189-1.196,4.584,4.544c1.395,5.74,4.185,31.304-5.62,32.672"/>
				
					<linearGradient id="SVGID_00000135683573790649995500000001390232239870096037_" gradientUnits="userSpaceOnUse" x1="341.979" y1="164.6711" x2="332.4127" y2="67.5723">
					<stop  offset="0" style="stop-color:#FFB8B8"/>
					<stop  offset="1" style="stop-color:#F46C8A"/>
				</linearGradient>
				<path style="fill:url(#SVGID_00000135683573790649995500000001390232239870096037_);" d="M349.608,140.425
					c-1.315,7.166-8.964,9.246-13.352,8.374c-3.516-0.711-4.012-3.234-4.066-4.227c-0.027-0.255-0.013-0.403-0.013-0.403
					l-3.019-7.971l16.345-13.42c-0.081,1.1,0.161,2.818,0.564,4.777C347.192,133.085,349.608,140.425,349.608,140.425z"/>
				
					<linearGradient id="SVGID_00000090974190133262821180000007705851052049995695_" gradientUnits="userSpaceOnUse" x1="319.3825" y1="114.8776" x2="347.3642" y2="141.9027">
					<stop  offset="0" style="stop-color:#FFB8B8"/>
					<stop  offset="1" style="stop-color:#F46C8A"/>
				</linearGradient>
				<path style="fill:url(#SVGID_00000090974190133262821180000007705851052049995695_);" d="M346.065,127.556
					c-0.966,4.375-4.106,13.325-13.876,17.016c-0.027-0.255-0.013-0.403-0.013-0.403l-3.019-7.971l16.345-13.42
					C345.421,123.879,345.662,125.596,346.065,127.556z"/>
				
					<linearGradient id="SVGID_00000113352826023781471030000009002161745882258819_" gradientUnits="userSpaceOnUse" x1="332.7109" y1="116.5863" x2="453.8851" y2="26.981">
					<stop  offset="0" style="stop-color:#FFB8B8"/>
					<stop  offset="1" style="stop-color:#F46C8A"/>
				</linearGradient>
				<path style="fill:url(#SVGID_00000113352826023781471030000009002161745882258819_);" d="M307.564,111.305
					c10.736,0,28.181-9.394,28.181-9.394l7.587,15.293l0.419-6.577c0,0,3.169-4.066,6.756-1.734
					c3.587,2.332,0.419,8.682-3.767,7.713c0,0,1.535,18.654-14.071,21.823c-15.605,3.169-16.841-11.539-20.01-14.11
					C309.491,121.748,307.564,111.305,307.564,111.305z"/>
				
					<path style="fill:none;stroke:#F46C8A;stroke-width:0.671;stroke-linecap:round;stroke-linejoin:round;stroke-miterlimit:10;" d="
					M349.61,111.016c-0.329-0.987-2.123-0.987-2.481,0.777s0.867,3.886,2.152,2.422"/>
				
					<path style="fill:none;stroke:#F46C8A;stroke-width:0.671;stroke-linecap:round;stroke-linejoin:round;stroke-miterlimit:10;" d="
					M323.482,120.393l0.64,5.108c0.106,0.848,0.909,1.429,1.748,1.264l1.498-0.294"/>
				<circle style="fill:#382742;" cx="330.417" cy="121.292" r="1.136"/>
				<circle style="fill:#382742;" cx="318.041" cy="125.893" r="1.136"/>
				
					<path style="fill:none;stroke:#382742;stroke-width:0.671;stroke-linecap:round;stroke-linejoin:round;stroke-miterlimit:10;" d="
					M313.843,120.624c0,0,0.738-2.766,4.929-2.854"/>
				
					<path style="fill:none;stroke:#382742;stroke-width:0.671;stroke-linecap:round;stroke-linejoin:round;stroke-miterlimit:10;" d="
					M325.425,115.681c0,0,1.882-3.656,6.462-2.57"/>
				
					<path style="fill:none;stroke:#DD3E68;stroke-width:0.671;stroke-linecap:round;stroke-linejoin:round;stroke-miterlimit:10;" d="
					M329.815,131.314c0,0,3.472,0.419,4.727-3.348"/>
			</g>
		</g>
		<g>
			<g>
				<polygon style="fill:#382742;" points="118.878,241.662 107.283,418.007 134.741,418.007 152.633,277.381 163.645,418.007 
					191.257,418.007 187.478,249.841 				"/>
				
					<linearGradient id="SVGID_00000022533700241788680240000016148112882704224438_" gradientUnits="userSpaceOnUse" x1="178.9884" y1="284.4988" x2="190.4682" y2="498.7868">
					<stop  offset="0" style="stop-color:#F56DA2"/>
					<stop  offset="1" style="stop-color:#F5366D"/>
				</linearGradient>
				<path style="fill:url(#SVGID_00000022533700241788680240000016148112882704224438_);" d="M191.257,418.007l16.726,10.865
					c1.203,0.781,1.929,2.118,1.929,3.553l0,0c0,2.34-1.897,4.237-4.237,4.237h-37.523c-2.309,0-4.193-1.849-4.236-4.158
					l-0.27-14.496H191.257z"/>
				
					<linearGradient id="SVGID_00000111884420379989968600000000000203080015815357_" gradientUnits="userSpaceOnUse" x1="104.4343" y1="288.4928" x2="115.914" y2="502.7795">
					<stop  offset="0" style="stop-color:#F56DA2"/>
					<stop  offset="1" style="stop-color:#F5366D"/>
				</linearGradient>
				<path style="fill:url(#SVGID_00000111884420379989968600000000000203080015815357_);" d="M107.283,418.007l-16.725,10.865
					c-1.203,0.781-1.929,2.118-1.929,3.553l0,0c0,2.34,1.897,4.237,4.237,4.237h37.523c2.309,0,4.193-1.849,4.236-4.158l0.27-14.496
					H107.283z"/>
			</g>
			<g>
				
					<linearGradient id="SVGID_00000023249983871624392190000006017216484050946208_" gradientUnits="userSpaceOnUse" x1="194.4138" y1="225.2737" x2="248.5538" y2="139.0682">
					<stop  offset="0" style="stop-color:#FFB8B8"/>
					<stop  offset="1" style="stop-color:#F46C8A"/>
				</linearGradient>
				<path style="fill:url(#SVGID_00000023249983871624392190000006017216484050946208_);" d="M206.086,249.687
					c-4.697,1.731-9.77,3.798-12.44,4.898c-0.993-1.208-1.597-1.946-1.597-1.946s-9.407-10.977-9.716-15.433
					c-0.322-4.469-2.402-31.871-2.402-31.871l15.312-6.723l2.711,34.287L206.086,249.687z"/>
				<path style="fill:#F5F8FF;" d="M183.716,204.919c0,0,0.282,38.407,0,39.333c-0.282,0.926-46.029,8.253-64.843-2.59
					c0-8.387,0.832-29.724,1.047-46.177c0.04-2.617,0.067-5.099,0.067-7.394c0-16.734,16.103-43.52,16.103-43.52l4.844-1.892
					l1.221-0.483l4.496-1.771l1.436,0.268l4.536,0.846l11.46,1.074c0,0,1.771,0.604,4.402,1.745c0.416,0.188,0.859,0.376,1.329,0.59
					c6.764,3.1,17.445,9.152,20.008,17.392c3.824,12.319,8.132,38.272,8.132,38.272S191.016,204.798,183.716,204.919z"/>
				<path style="fill:#F5F8FF;" d="M149.187,139.62c-0.376,0.322-0.738,0.684-1.1,1.074c-1.342,1.463-2.59,3.368-3.744,5.596
					c-0.242,0.47-0.483,0.966-0.725,1.463c-7.971,16.774-11.514,48.31-11.514,48.31c-0.228,0.027-0.456,0.054-0.671,0.081
					c-4.214,0.47-8.146,0.08-11.514-0.658c-3.663-0.792-6.669-1.999-8.696-2.966c-1.838-0.886-2.885-1.557-2.885-1.557
					s4.952-30.449,10.373-39.534c3.315-5.556,13.956-8.736,21.726-10.36c0.416-0.094,0.819-0.174,1.221-0.255
					C146.007,139.955,149.187,139.62,149.187,139.62z"/>
				<path style="fill:#A96CFF;" d="M192.69,337.65c-26.54,7.17-61.99,1.91-61.99,1.91l-3.43-140.78
					c15.26-2.08,16.79-13.4,16.93-16.66c0.13-3.25-7.63-42.49-7.63-42.49l4.14-0.76c0,0,0.13,0.76,0.36,2.06v0.01
					c0.17,0.95,0.39,2.19,0.64,3.64c1.89,10.76,5.82,33.13,6.18,35.06c0.48,2.56,19.93,3.99,19.93,0c0-2.78-0.35-19.68-0.56-29.59
					c-0.05-2.81-0.1-5.05-0.13-6.26c-0.01-0.63-0.02-0.98-0.02-0.98l5.26,1.76v36.67c0,0,4.86,11.48,10.76,15.11
					C183.13,224.06,195.08,314.45,192.69,337.65z"/>
				<path style="fill:#382742;" d="M168.098,170.078h3.906c0.616,0,1.116-0.5,1.116-1.116l0,0c0-0.616-0.5-1.116-1.116-1.116h-3.906
					c-0.616,0-1.116,0.5-1.116,1.116l0,0C166.982,169.578,167.482,170.078,168.098,170.078z"/>
				<path style="fill:#382742;" d="M142.456,170.387l3.852-0.649c0.608-0.102,1.018-0.678,0.915-1.286l0,0
					c-0.102-0.608-0.678-1.018-1.286-0.915l-3.852,0.649c-0.608,0.102-1.018,0.678-0.915,1.286l0,0
					C141.273,170.08,141.849,170.49,142.456,170.387z"/>
				
					<path style="fill:none;stroke:#CDDDF7;stroke-width:1.342;stroke-linecap:round;stroke-linejoin:round;stroke-miterlimit:10;" d="
					M132.109,196.062c0,0,3.613-23.288,5.264-29.49"/>
				<path style="fill:#8C46F9;" d="M168.218,200.691c-4.943,0.399-19.691,0.399-19.691,0.399s-1.786,21.556,11.613,20.901
					C173.539,221.335,168.218,200.691,168.218,200.691z"/>
				
					<path style="fill:none;stroke:#CDDDF7;stroke-width:1.342;stroke-linecap:round;stroke-linejoin:round;stroke-miterlimit:10;" d="
					M183.126,196.354c0.548-5.389,4.236-17.188,0-25.16"/>
			</g>
			
				<linearGradient id="SVGID_00000173126141727405929150000015844050390707436160_" gradientUnits="userSpaceOnUse" x1="154.0651" y1="162.7665" x2="154.4372" y2="98.3945">
				<stop  offset="0" style="stop-color:#FFB8B8"/>
				<stop  offset="1" style="stop-color:#F46C8A"/>
			</linearGradient>
			<path style="fill:url(#SVGID_00000173126141727405929150000015844050390707436160_);" d="M167.26,150.05
				c-2.82,3.62-7.77,6.42-14.84,4.01c-4.16-1.42-6.94-3.8-8.8-6.31c-0.79-1.05-1.42-2.13-1.91-3.17c-0.25-1.45-0.47-2.69-0.64-3.64
				v-0.01c0.2-0.04,0.4-0.08,0.59-0.12c4.35-0.85,7.53-1.19,7.53-1.19c-0.38,0.32-0.74,0.68-1.1,1.07l4.53,0.85l11.46,1.07
				c0,0,1.18,0.41,3.05,1.18C167.16,145,167.21,147.24,167.26,150.05z"/>
			<g>
				<path style="fill:#382742;" d="M159.04,82.871c2.697,4.942-0.258,11.755-6.601,15.217c-6.343,3.462-13.672,2.262-16.369-2.68
					c-2.697-4.942,0.258-11.755,6.601-15.217C149.014,76.729,156.343,77.929,159.04,82.871z"/>
				
					<linearGradient id="SVGID_00000016034521049091173220000009490980818388497563_" gradientUnits="userSpaceOnUse" x1="144.1971" y1="96.5533" x2="162.8506" y2="96.5533">
					<stop  offset="0" style="stop-color:#F56DA2"/>
					<stop  offset="1" style="stop-color:#F5366D"/>
				</linearGradient>
				<path style="fill:url(#SVGID_00000016034521049091173220000009490980818388497563_);" d="M162.105,91.87
					c2.015,3.692-0.193,8.782-4.932,11.369s-10.214,1.69-12.23-2.002s0.193-8.782,4.932-11.369
					C154.614,87.281,160.089,88.178,162.105,91.87z"/>
				<path style="fill:#382742;" d="M152.039,133.044c-9.342-1.71-8.599-22.915-5.383-33.119
					c3.216-10.204,31.285-17.379,42.043-4.943s3.105,13.393,3.105,13.393s13.871,2.272,9.885,11.579
					c-3.986,9.307-18.992,7.051-25.281-2.185S152.039,133.044,152.039,133.044z"/>
				<g>
					
						<linearGradient id="SVGID_00000082332762702320435480000012541715166138651039_" gradientUnits="userSpaceOnUse" x1="145.0273" y1="160.4665" x2="168.1462" y2="111.1995">
						<stop  offset="0" style="stop-color:#FFB8B8"/>
						<stop  offset="1" style="stop-color:#F46C8A"/>
					</linearGradient>
					<path style="fill:url(#SVGID_00000082332762702320435480000012541715166138651039_);" d="M146.656,140.425
						c1.315,7.166,8.964,9.246,13.352,8.374c3.516-0.711,4.012-3.234,4.066-4.227c0.027-0.255,0.013-0.403,0.013-0.403l3.019-7.971
						l-16.345-13.42c0.081,1.1-0.161,2.818-0.564,4.777C149.072,133.085,146.656,140.425,146.656,140.425z"/>
					
						<linearGradient id="SVGID_00000179605446844735598730000007552428140957669807_" gradientUnits="userSpaceOnUse" x1="174.7595" y1="114.8776" x2="202.7411" y2="141.9027" gradientTransform="matrix(-1 0 0 1 351.6406 0)">
						<stop  offset="0" style="stop-color:#FFB8B8"/>
						<stop  offset="1" style="stop-color:#F46C8A"/>
					</linearGradient>
					<path style="fill:url(#SVGID_00000179605446844735598730000007552428140957669807_);" d="M150.199,127.556
						c0.966,4.375,4.106,13.325,13.876,17.016c0.027-0.255,0.013-0.403,0.013-0.403l3.019-7.971l-16.345-13.42
						C150.843,123.879,150.601,125.596,150.199,127.556z"/>
					
						<linearGradient id="SVGID_00000129890654324257497480000014435956792565298366_" gradientUnits="userSpaceOnUse" x1="188.0879" y1="116.5863" x2="309.2621" y2="26.981" gradientTransform="matrix(-1 0 0 1 351.6406 0)">
						<stop  offset="0" style="stop-color:#FFB8B8"/>
						<stop  offset="1" style="stop-color:#F46C8A"/>
					</linearGradient>
					<path style="fill:url(#SVGID_00000129890654324257497480000014435956792565298366_);" d="M188.699,111.305
						c-10.736,0-28.181-9.394-28.181-9.394l-7.587,15.293l-0.419-6.577c0,0-3.169-4.066-6.756-1.734
						c-3.587,2.332-0.419,8.682,3.767,7.713c0,0-1.535,18.654,14.07,21.823c15.605,3.169,16.841-11.539,20.01-14.11
						C186.773,121.748,188.699,111.305,188.699,111.305z"/>
					<path style="fill:#FFFFFF;" d="M168.656,130.867c-0.713,1.777-2.732,2.64-4.51,1.927c-1.777-0.713-2.64-2.733-1.927-4.51"/>
					
						<path style="fill:none;stroke:#F46C8A;stroke-width:0.671;stroke-linecap:round;stroke-linejoin:round;stroke-miterlimit:10;" d="
						M146.654,111.016c0.329-0.987,2.123-0.987,2.481,0.777c0.359,1.764-0.867,3.886-2.152,2.422"/>
					
						<path style="fill:none;stroke:#F46C8A;stroke-width:0.671;stroke-linecap:round;stroke-linejoin:round;stroke-miterlimit:10;" d="
						M172.782,120.393l-0.64,5.108c-0.106,0.848-0.909,1.429-1.748,1.264l-1.498-0.294"/>
					<circle style="fill:#382742;" cx="166.448" cy="120.874" r="1.136"/>
					<circle style="fill:#382742;" cx="179.359" cy="125.893" r="1.136"/>
					
						<path style="fill:none;stroke:#382742;stroke-width:0.671;stroke-linecap:round;stroke-linejoin:round;stroke-miterlimit:10;" d="
						M182.421,120.624c0,0-0.738-2.766-4.929-2.854"/>
					
						<path style="fill:none;stroke:#382742;stroke-width:0.671;stroke-linecap:round;stroke-linejoin:round;stroke-miterlimit:10;" d="
						M170.839,115.681c0,0-1.882-3.656-6.463-2.57"/>
					<circle style="fill:none;stroke:#FFFFFF;stroke-width:0.671;stroke-miterlimit:10;" cx="178.223" cy="126.793" r="5.501"/>
					<path style="fill:none;stroke:#FFFFFF;stroke-width:0.671;stroke-miterlimit:10;" d="M159.276,120.393
						c0,3.038,2.463,5.501,5.501,5.501c3.038,0,5.501-2.463,5.501-5.501c0-3.038-2.463-5.501-5.501-5.501
						C161.738,114.892,159.276,117.355,159.276,120.393z"/>
					
						<line style="fill:none;stroke:#FFFFFF;stroke-width:0.671;stroke-miterlimit:10;" x1="174.47" y1="122.778" x2="170.277" y2="120.393"/>
					
						<line style="fill:none;stroke:#FFFFFF;stroke-width:0.671;stroke-miterlimit:10;" x1="161.133" y1="116.279" x2="152.637" y2="112.581"/>
				</g>
			</g>
		</g>
		<g>
			<g>
				
					<linearGradient id="SVGID_00000003063179746650778010000003336397803972457347_" gradientUnits="userSpaceOnUse" x1="239.8602" y1="201.6949" x2="258.9932" y2="386.3267">
					<stop  offset="0" style="stop-color:#FFBF94"/>
					<stop  offset="1" style="stop-color:#FF954D"/>
				</linearGradient>
				<polygon style="fill:url(#SVGID_00000003063179746650778010000003336397803972457347_);" points="383.202,269.808 
					116.798,269.808 61.542,299.543 438.458,299.543 				"/>
				<g>
					<path style="fill:#D1BAE2;" d="M73.792,447.312L73.792,447.312c-2.508,0-4.233-2.519-3.327-4.857l46.91-133.935h7.653
						L77.119,445.033C76.587,446.407,75.265,447.312,73.792,447.312z"/>
					<path style="fill:#D1BAE2;" d="M427.882,447.312L427.882,447.312c2.508,0,4.233-2.519,3.327-4.857L384.3,308.52h-7.653
						l47.908,136.513C425.087,446.407,426.409,447.312,427.882,447.312z"/>
				</g>
				
					<linearGradient id="SVGID_00000022539642677313560000000008601209283864539533_" gradientUnits="userSpaceOnUse" x1="253.371" y1="196.4063" x2="250.8201" y2="278.6762">
					<stop  offset="0" style="stop-color:#FFBF94"/>
					<stop  offset="1" style="stop-color:#FF954D"/>
				</linearGradient>
				
					<rect x="61.542" y="299.543" style="fill:url(#SVGID_00000022539642677313560000000008601209283864539533_);" width="376.916" height="11.161"/>
			</g>
			<g>
				<polygon style="fill:#FFE5D4;" points="177.893,279.294 196.428,286.23 250.837,276.238 226.961,270.484 				"/>
				
					<linearGradient id="SVGID_00000023279137758143376910000002310070629125261238_" gradientUnits="userSpaceOnUse" x1="245.1498" y1="268.508" x2="225.8975" y2="279.2702">
					<stop  offset="0" style="stop-color:#52ECE3"/>
					<stop  offset="1" style="stop-color:#2790AC"/>
				</linearGradient>
				<path style="fill:url(#SVGID_00000023279137758143376910000002310070629125261238_);" d="M231.585,271.402
					c5.939-4.066,9.965-5.262,9.965-5.262s-4.544,4.464-5.421,5.022c-0.877,0.558,6.975-0.877,7.135-0.359
					c0.159,0.518-7.135,2.272-7.135,2.272s9.965,0.399,7.932,0.957c-2.033,0.558-11.201,0.598-11.201,0.598"/>
				<path style="fill:#F97C28;" d="M212.292,272.086c-13.187,2.411-18.176,5.534-18.575,7.766
					c-0.399,2.232,16.901,0.399,26.866-0.797c9.965-1.196,13.871-3.144,13.154-5.797
					C233.02,270.605,230.787,268.705,212.292,272.086z"/>
				
					<path style="fill:none;stroke:#A04507;stroke-width:0.671;stroke-linecap:round;stroke-linejoin:round;stroke-miterlimit:10;" d="
					M210.698,272.086c5.501,1.548,4.863,6.173,4.863,6.173"/>
				
					<path style="fill:none;stroke:#A04507;stroke-width:0.671;stroke-linecap:round;stroke-linejoin:round;stroke-miterlimit:10;" d="
					M204.971,273.702c2.937,0.889,2.937,5.751,2.937,5.751"/>
				<polygon style="fill:#EABBA2;" points="177.893,279.294 179.049,283.745 196.109,291.093 250.837,280.904 250.837,276.238 
					196.428,286.23 				"/>
			</g>
			<g>
				
					<linearGradient id="SVGID_00000023961653810266879220000005618763431002295698_" gradientUnits="userSpaceOnUse" x1="125.8658" y1="241.7106" x2="129.3735" y2="292.7313">
					<stop  offset="0" style="stop-color:#FFBF94"/>
					<stop  offset="1" style="stop-color:#FF954D"/>
				</linearGradient>
				
					<ellipse style="fill:url(#SVGID_00000023961653810266879220000005618763431002295698_);" cx="129.231" cy="290.658" rx="39.455" ry="4.403"/>
				<g>
					<g>
						
							<linearGradient id="SVGID_00000142151933222898027540000017194710101553928349_" gradientUnits="userSpaceOnUse" x1="194.1943" y1="174.2456" x2="174.9424" y2="185.0076" gradientTransform="matrix(-0.914 -0.4058 0.4058 -0.914 197.7521 514.6125)">
							<stop  offset="0" style="stop-color:#52ECE3"/>
							<stop  offset="1" style="stop-color:#2790AC"/>
						</linearGradient>
						<path style="fill:url(#SVGID_00000142151933222898027540000017194710101553928349_);" d="M104.54,279.408
							c-7.078,1.306-11.243,0.765-11.243,0.765s5.965-2.236,6.993-2.39c1.028-0.154-6.731-2.029-6.667-2.568
							c0.065-0.538,7.443,0.819,7.443,0.819s-8.946-4.408-6.861-4.093c2.084,0.315,10.479,3.999,10.479,3.999"/>
						<path style="fill:#E26510;" d="M122.45,286.612c13.03,3.148,18.858,2.319,20.128,0.44c1.27-1.878-15.285-7.223-24.877-10.174
							c-9.593-2.951-13.954-2.756-14.375-0.04C102.905,279.554,104.174,282.197,122.45,286.612z"/>
						
							<path style="fill:none;stroke:#A04507;stroke-width:0.671;stroke-linecap:round;stroke-linejoin:round;stroke-miterlimit:10;" d="
							M129.797,288.106c-2.324-2.004-0.35-6.448-0.35-6.448"/>
					</g>
					
						<path style="fill:none;stroke:#A04507;stroke-width:0.671;stroke-linecap:round;stroke-linejoin:round;stroke-miterlimit:10;" d="
						M121.672,286.422c0,0-2.822-1.878-0.681-6.359"/>
					
						<path style="fill:none;stroke:#A04507;stroke-width:0.671;stroke-linecap:round;stroke-linejoin:round;stroke-miterlimit:10;" d="
						M116.145,276.414c0,0-3.627,1.337-2.666,7.314"/>
					
						<path style="fill:none;stroke:#A04507;stroke-width:0.671;stroke-linecap:round;stroke-linejoin:round;stroke-miterlimit:10;" d="
						M109.16,282.672c0,0-2.089-2.06-0.21-5.023"/>
				</g>
				<g>
					<g>
						
							<linearGradient id="SVGID_00000044146473943261608220000010543285186453975184_" gradientUnits="userSpaceOnUse" x1="201.5194" y1="165.9613" x2="182.268" y2="176.723" gradientTransform="matrix(-0.9419 -0.336 0.336 -0.9419 219.0941 508.9758)">
							<stop  offset="0" style="stop-color:#52ECE3"/>
							<stop  offset="1" style="stop-color:#2790AC"/>
						</linearGradient>
						<path style="fill:url(#SVGID_00000044146473943261608220000010543285186453975184_);" d="M98.795,286.778
							c-6.96,1.834-11.153,1.608-11.153,1.608s5.78-2.678,6.793-2.909c1.013-0.231-6.865-1.517-6.841-2.059
							c0.024-0.542,7.483,0.257,7.483,0.257s-9.252-3.723-7.15-3.566c2.102,0.157,10.751,3.2,10.751,3.2"/>
						<path style="fill:#F97C28;" d="M117.195,292.615c13.23,2.159,18.979,0.894,20.104-1.074
							c1.125-1.969-15.784-6.053-25.572-8.275c-9.788-2.221-14.121-1.699-14.337,1.041
							C97.175,287.047,98.639,289.586,117.195,292.615z"/>
						
							<path style="fill:none;stroke:#A04507;stroke-width:0.671;stroke-linecap:round;stroke-linejoin:round;stroke-miterlimit:10;" d="
							M124.634,293.553c-2.468-1.824-0.834-6.404-0.834-6.404"/>
					</g>
					
						<path style="fill:none;stroke:#A04507;stroke-width:0.671;stroke-linecap:round;stroke-linejoin:round;stroke-miterlimit:10;" d="
						M116.406,292.485c0,0-2.955-1.661-1.157-6.29"/>
					
						<path style="fill:none;stroke:#A04507;stroke-width:0.671;stroke-linecap:round;stroke-linejoin:round;stroke-miterlimit:10;" d="
						M110.142,282.92c0,0-3.516,1.606-2.109,7.493"/>
					
						<path style="fill:none;stroke:#A04507;stroke-width:0.671;stroke-linecap:round;stroke-linejoin:round;stroke-miterlimit:10;" d="
						M103.648,289.686c0,0-2.237-1.897-0.587-4.993"/>
				</g>
				<g>
					<g>
						
							<linearGradient id="SVGID_00000018202781497205912140000007037823152837546409_" gradientUnits="userSpaceOnUse" x1="134.7046" y1="258.7096" x2="115.4534" y2="269.4712" gradientTransform="matrix(1 -0.0094 0.0094 1 34.2596 23.9718)">
							<stop  offset="0" style="stop-color:#52ECE3"/>
							<stop  offset="1" style="stop-color:#2790AC"/>
						</linearGradient>
						<path style="fill:url(#SVGID_00000018202781497205912140000007037823152837546409_);" d="M157.859,284.437
							c5.9-4.121,9.915-5.355,9.915-5.355s-4.502,4.507-5.373,5.073c-0.872,0.566,6.967-0.943,7.131-0.426
							c0.164,0.517-7.113,2.339-7.113,2.339s9.968,0.304,7.941,0.882c-2.027,0.577-11.194,0.704-11.194,0.704"/>
						<path style="fill:#FF9D33;" d="M138.574,285.303c-13.163,2.535-18.123,5.705-18.501,7.941
							c-0.378,2.236,16.904,0.239,26.857-1.051c9.953-1.29,13.841-3.275,13.098-5.921
							C159.286,283.626,157.036,281.747,138.574,285.303z"/>
						
							<path style="fill:none;stroke:#A04507;stroke-width:0.671;stroke-linecap:round;stroke-linejoin:round;stroke-miterlimit:10;" d="
							M131.268,286.988c2.945,0.861,2.991,5.724,2.991,5.724"/>
					</g>
					
						<path style="fill:none;stroke:#A04507;stroke-width:0.671;stroke-linecap:round;stroke-linejoin:round;stroke-miterlimit:10;" d="
						M139.36,285.153c0,0,3.347,0.54,3.255,5.505"/>
					
						<path style="fill:none;stroke:#A04507;stroke-width:0.671;stroke-linecap:round;stroke-linejoin:round;stroke-miterlimit:10;" d="
						M148.538,291.971c0,0,2.746-2.72-0.604-7.761"/>
					
						<path style="fill:none;stroke:#A04507;stroke-width:0.671;stroke-linecap:round;stroke-linejoin:round;stroke-miterlimit:10;" d="
						M152.301,283.381c0,0,2.754,1.009,2.273,4.484"/>
				</g>
			</g>
			<g>
				<g>
					
						<linearGradient id="SVGID_00000085253066869961247960000007779702772600468872_" gradientUnits="userSpaceOnUse" x1="381.4809" y1="228.6885" x2="386.583" y2="280.028">
						<stop  offset="0" style="stop-color:#FFBF94"/>
						<stop  offset="1" style="stop-color:#FF954D"/>
					</linearGradient>
					
						<ellipse style="fill:url(#SVGID_00000085253066869961247960000007779702772600468872_);" cx="387.071" cy="284.936" rx="19.619" ry="3.348"/>
					<g>
						<path style="fill:#382742;" d="M381.99,244.746l0.023-2.356c0.004-0.406,0.336-0.732,0.742-0.728l7.617,0.073
							c0.406,0.004,0.732,0.336,0.728,0.742l-0.022,2.356c-0.004,0.406-0.336,0.732-0.742,0.728l-7.617-0.073
							C382.312,245.484,381.986,245.152,381.99,244.746z"/>
						<path style="fill:#FFFFFF;" d="M398.629,248.345l-0.188,12.453l-0.335,22.142c-0.027,1.865-1.57,3.355-3.435,3.328
							l-9.367-0.134l-7.139-0.107c-1.865-0.027-3.355-1.57-3.328-3.435l0.322-21.793l0.188-12.802
							c0.027-1.879,1.57-3.368,3.435-3.342l10.722,0.161l5.784,0.094C397.167,244.936,398.656,246.466,398.629,248.345z"/>
						<path style="fill:#382742;" d="M396.833,262.534l-0.29,19.113c-0.023,1.61-1.355,2.896-2.965,2.873l-14.248-0.208
							c-1.61-0.023-2.896-1.355-2.873-2.965l0.278-18.812H396.833z"/>
						<path style="opacity:0.05;fill:#382742;" d="M398.629,248.345l-0.188,12.453l-0.335,22.142
							c-0.027,1.865-1.57,3.355-3.435,3.328l-9.367-0.134c1.53-9.206,5.234-31.844,4.2-41.319l5.784,0.094
							C397.167,244.936,398.656,246.466,398.629,248.345z"/>
					</g>
				</g>
				<g>
					
						<linearGradient id="SVGID_00000182485931298177039930000013497532746957098880_" gradientUnits="userSpaceOnUse" x1="398.7004" y1="236.2338" x2="403.8025" y2="287.5732">
						<stop  offset="0" style="stop-color:#FFBF94"/>
						<stop  offset="1" style="stop-color:#FF954D"/>
					</linearGradient>
					
						<ellipse style="fill:url(#SVGID_00000182485931298177039930000013497532746957098880_);" cx="404.29" cy="292.481" rx="19.619" ry="3.348"/>
					<g>
						<path style="fill:#382742;" d="M399.209,252.291l0.022-2.356c0.004-0.406,0.336-0.732,0.742-0.728l7.617,0.073
							c0.406,0.004,0.732,0.336,0.728,0.742l-0.023,2.356c-0.004,0.406-0.336,0.732-0.742,0.728l-7.617-0.073
							C399.531,253.03,399.205,252.697,399.209,252.291z"/>
						<path style="fill:#FFFFFF;" d="M415.855,255.884l-0.188,12.453l-0.336,22.142c-0.027,1.865-1.57,3.355-3.435,3.328
							l-16.506-0.242c-1.865-0.027-3.355-1.57-3.328-3.435l0.322-21.793l0.188-12.802c0.027-1.879,1.57-3.368,3.435-3.341
							l16.506,0.255C414.392,252.476,415.882,254.005,415.855,255.884z"/>
						<path style="fill:#FF395F;" d="M414.053,270.08l-0.29,19.113c-0.023,1.61-1.355,2.896-2.965,2.873l-14.248-0.208
							c-1.61-0.023-2.896-1.355-2.873-2.966l0.278-18.812H414.053z"/>
					</g>
				</g>
			</g>
			<g>
				<path style="fill:#382742;" d="M312.261,263.992c0,7.287-2.469,18.532-19.767,18.532c-17.298,0-19.78-11.246-19.78-18.532
					l19.78,2.872L312.261,263.992z"/>
				<path style="fill:#382742;" d="M312.261,263.988c0,3.214-8.852,5.82-19.771,5.82s-19.771-2.605-19.771-5.82
					c0-3.214,8.852-5.819,19.771-5.819S312.261,260.774,312.261,263.988z"/>
				<path style="fill:#24172D;" d="M309.819,263.992c0,0.617-0.362,1.194-1.033,1.745c-2.415,1.959-8.803,3.355-16.291,3.355
					c-7.112,0-13.218-1.261-15.889-3.06c-0.939-0.631-1.449-1.315-1.449-2.04c0-2.818,7.757-5.099,17.338-5.099
					C302.062,258.892,309.819,261.174,309.819,263.992z"/>
				<path style="fill:#FFFFFF;" d="M308.785,265.736c-2.415,1.959-8.803,3.355-16.291,3.355c-7.112,0-13.218-1.261-15.889-3.06
					c2.563-0.013,5.26-0.993,9.93-1.449c7.528-0.711,8.91-1.785,13.809-1.315C303.834,263.616,307.94,263.978,308.785,265.736z"/>
			</g>
		</g>
		<g>
			<g>
				
					<linearGradient id="SVGID_00000133512374086324902670000006227023961814818966_" gradientUnits="userSpaceOnUse" x1="220.2318" y1="241.2043" x2="267.8245" y2="101.535">
					<stop  offset="0" style="stop-color:#FFB8B8"/>
					<stop  offset="1" style="stop-color:#F46C8A"/>
				</linearGradient>
				<path style="fill:url(#SVGID_00000133512374086324902670000006227023961814818966_);" d="M230.308,275.949
					c-1.208,0.832-3.127,0.094-3.328,0.013c0.081,0.174,0.684,1.436-0.577,1.583c-1.355,0.161-2.389-0.805-2.389-0.805
					s-1.436,1.597-2.63,1.516c-1.194-0.081-4.066-5.099-4.938-5.583c-0.886-0.47-6.307,1.436-7.582,0.242
					c-1.02-0.953-11.246-13.446-15.218-18.331c2.671-1.1,7.743-3.167,12.44-4.898l1.436,2.952c0,0,6.522,13.674,7.408,14.265
					c0.872,0.59,9.005-0.684,11.071,0.51C228.081,268.608,231.583,275.063,230.308,275.949z"/>
				<g>
					
						<path style="fill:none;stroke:#F46C8A;stroke-width:0.671;stroke-linecap:round;stroke-linejoin:round;stroke-miterlimit:10;" d="
						M224.011,276.743c-2.232-3.906-4.106-6.537-6.338-6.617"/>
					
						<path style="fill:none;stroke:#F46C8A;stroke-width:0.671;stroke-linecap:round;stroke-linejoin:round;stroke-miterlimit:10;" d="
						M226.961,275.946c-1.834-4.783-4.225-6.537-6.378-6.856"/>
					
						<path style="fill:none;stroke:#F46C8A;stroke-width:0.671;stroke-linecap:round;stroke-linejoin:round;stroke-miterlimit:10;" d="
						M229.645,276.238c0,0-1.09-7.905-6.71-8.304"/>
				</g>
			</g>
			<g>
				<path style="fill:#382742;" d="M173.244,259.543l-26.295-7.095c-1.07-0.289-1.704-1.391-1.415-2.461l0.475-1.761
					c0.289-1.07,1.391-1.704,2.461-1.415l26.295,7.095c1.07,0.289,1.704,1.391,1.415,2.461l-0.475,1.761
					C175.417,259.198,174.315,259.832,173.244,259.543z"/>
				
					<linearGradient id="SVGID_00000090979243211622558920000016312772611140967577_" gradientUnits="userSpaceOnUse" x1="139.0126" y1="229.2604" x2="175.9688" y2="41.1192">
					<stop  offset="0" style="stop-color:#FFB8B8"/>
					<stop  offset="1" style="stop-color:#F46C8A"/>
				</linearGradient>
				<path style="fill:url(#SVGID_00000090979243211622558920000016312772611140967577_);" d="M165.883,263.153
					c-1.103,0.058-4.317-2.456-4.317-2.456s-1.941,0.214-3.457-0.775c-1.508-0.972-2.441-2.775-2.441-2.775
					s-1.657,0.473-2.198,0.048c-0.528-0.421-1.692-2.298-1.692-2.298s-0.809,0.419-1.26,0.022c-0.464-0.401,1.617-8.765,1.617-8.765
					s-35.248-4.411-39.086-9.51c-3.61-1.865-2.657-36.139-1.825-44.123c3.905,1.852,11.42,4.603,20.21,3.623
					c-0.322,2.885-0.564,6.28-0.738,9.192c-0.107,1.973-0.228,6.898-0.309,11.098c-0.067,3.757-0.121,6.924-0.121,6.924
					s32.368,16.078,32.724,16.952c2.949,2.951,6.26,9.1,6.327,10.22c0.058,1.103-1.27,5.947-1.211,8.064
					C168.17,260.697,166.989,263.082,165.883,263.153z"/>
				
					<linearGradient id="SVGID_00000063631821251494227350000011277021716144855937_" gradientUnits="userSpaceOnUse" x1="165.6158" y1="192.1243" x2="94.9847" y2="243.7823">
					<stop  offset="0" style="stop-color:#FFB8B8"/>
					<stop  offset="1" style="stop-color:#F46C8A"/>
				</linearGradient>
				<path style="fill:url(#SVGID_00000063631821251494227350000011277021716144855937_);" d="M130.386,216.433
					c-0.067,3.757-0.121,6.924-0.121,6.924s-7.018-3.221-6.857-5.448C123.489,216.715,127.085,216.433,130.386,216.433z"/>
				<path style="fill:#FFFFFF;" d="M173.687,252.633l-1.641,7.767c0,0,34.704,11.621,38.608,9.913
					c3.904-1.708,5.788-5.762,5.788-5.762L173.687,252.633z"/>
			</g>
			<g>
				<g>
					<path style="fill:#FFFFFF;" d="M316.905,251.133c-7.294,1.136-18.541,10.24-19.791,14.051c-1.25,3.811,5.86,4.365,8.012,1.256
						c2.152-3.109,4.405-9.626,11.201-11.36"/>
					<path style="fill:#CFCFFF;" d="M319.266,256.05l-2.332,0.337c-0.402,0.058-0.775-0.221-0.833-0.623l-1.089-7.54
						c-0.058-0.402,0.221-0.775,0.622-0.833l2.332-0.337c0.402-0.058,0.775,0.221,0.833,0.623l1.089,7.539
						C319.946,255.619,319.667,255.992,319.266,256.05z"/>
					<path style="fill:#FFFFFF;" d="M357.747,257.352l-34.269,4.761c-1.852,0.257-3.562-1.035-3.819-2.887l-2.271-16.35
						c-0.257-1.852,1.035-3.562,2.887-3.819l34.269-4.761c1.852-0.257,3.562,1.035,3.819,2.887l2.272,16.35
						C360.892,255.385,359.599,257.094,357.747,257.352z"/>
				</g>
				<g>
					
						<linearGradient id="SVGID_00000036945129286012256220000000014112925042798518_" gradientUnits="userSpaceOnUse" x1="371.3359" y1="212.9903" x2="567.447" y2="43.1867">
						<stop  offset="0" style="stop-color:#FFB8B8"/>
						<stop  offset="1" style="stop-color:#F46C8A"/>
					</linearGradient>
					<path style="fill:url(#SVGID_00000036945129286012256220000000014112925042798518_);" d="M383.089,225.25
						c-4.187,2.147-36.863,12.507-36.863,12.507s0.241,3.194-0.161,6.938c-0.403,3.744-4.066,8.535-5.341,7.877
						c-0.416-0.215-0.322-1.328,0-2.724c0.496-2.147,1.53-4.992,1.986-6.213c-0.926,2.214-4.066,9.622-5.019,8.884
						c-0.403-0.309-0.376-1.704-0.161-3.355c0.362-2.966,1.275-6.777,1.275-6.777s-4.227,10.521-5.744,10.118
						c-0.617-0.161-0.631-1.745-0.443-3.556v-0.013c0.268-2.496,0.913-5.408,0.993-5.73c-0.215,0.523-3.784,9.125-5.489,8.83
						c-1.758-0.322,1.758-14.359,1.758-14.359s-6.455,1.436-6.334,0c0.121-1.436,13.151-6.696,13.742-7.408
						c0.604-0.725,28.584-18.304,28.584-18.304s6.549-4.2,6.549-5.703c0-0.832-4.442-0.886-6.857-0.926
						c-0.174-2.912-0.416-6.307-0.738-9.192c8.79,0.98,16.305-1.771,20.21-3.623C385.867,200.504,386.699,223.384,383.089,225.25z"
						/>
					
						<linearGradient id="SVGID_00000062182129891291702200000000755879348175172235_" gradientUnits="userSpaceOnUse" x1="367.7905" y1="207.3281" x2="386.1751" y2="187.158">
						<stop  offset="0" style="stop-color:#FFB8B8"/>
						<stop  offset="1" style="stop-color:#F46C8A"/>
					</linearGradient>
					<path style="fill:url(#SVGID_00000062182129891291702200000000755879348175172235_);" d="M372.421,206.261
						c0,1.503-6.549,5.703-6.549,5.703s-0.094-2.912-0.309-6.629C367.979,205.375,372.421,205.429,372.421,206.261z"/>
					
						<linearGradient id="SVGID_00000101809438375310391340000007653266727596793226_" gradientUnits="userSpaceOnUse" x1="366.1927" y1="170.9844" x2="371.2946" y2="236.8326">
						<stop  offset="0" style="stop-color:#FFB8B8"/>
						<stop  offset="1" style="stop-color:#F46C8A"/>
					</linearGradient>
					<path style="fill:url(#SVGID_00000101809438375310391340000007653266727596793226_);" d="M372.421,206.261
						c0,1.503-6.549,5.703-6.549,5.703s-0.094-2.912-0.309-6.629C367.979,205.375,372.421,205.429,372.421,206.261z"/>
					
						<path style="fill:none;stroke:#F46C8A;stroke-width:0.671;stroke-linecap:round;stroke-linejoin:round;stroke-miterlimit:10;" d="
						M340.728,249.841c2.663-6.062,2.903-9.53,2.903-9.53"/>
					
						<path style="fill:none;stroke:#F46C8A;stroke-width:0.671;stroke-linecap:round;stroke-linejoin:round;stroke-miterlimit:10;" d="
						M337.525,249.169c2-4.832,1.402-9.615,1.402-9.615"/>
					
						<path style="fill:none;stroke:#F46C8A;stroke-width:0.671;stroke-linecap:round;stroke-linejoin:round;stroke-miterlimit:10;" d="
						M332.619,248.935c1.369-3.65,1.49-9.38,1.49-9.38"/>
				</g>
			</g>
		</g>
	</g>
</g>
</svg>
