<?xml version="1.0" encoding="utf-8"?>
<!-- Generator: Adobe Illustrator 27.5.0, SVG Export Plug-In . SVG Version: 6.00 Build 0)  -->
<svg version="1.1" xmlns="http://www.w3.org/2000/svg" xmlns:xlink="http://www.w3.org/1999/xlink" x="0px" y="0px"
	 viewBox="0 0 750 500" style="enable-background:new 0 0 750 500;" xml:space="preserve">
<g id="Background_Simple">
	<g>
		<path style="fill:#92E3A9;" d="M679.574,383.972c-2.083-17.093,67.365-114.448,36.808-156.809
			c-30.557-42.361-105.562-4.459-112.891-12.82c-7.329-8.361,42.748-103.115-7.255-139.53
			c-50.003-36.415-156.954,18.579-156.954,18.579c-5.004,1.648-32.625,16.31-56.253,29.053
			C359.4,109.702,331.78,95.04,326.776,93.393c0,0-106.951-54.995-156.954-18.579c-50.003,36.415,0.074,131.169-7.255,139.53
			c-7.329,8.361-82.333-29.541-112.891,12.82c-30.557,42.361,38.891,139.716,36.808,156.809
			c-2.083,17.093-38.891,20.809-39.586,35.672c-0.694,14.863,47.919,38.645,91.672,38.645s50.697,1.486,50.697,1.486h193.761H576.79
			c0,0,6.945-1.486,50.697-1.486c43.753,0,92.367-23.782,91.672-38.645C718.465,404.781,681.658,401.065,679.574,383.972z"/>
		<path style="opacity:0.7;fill:#FFFFFF;" d="M679.574,383.972c-2.083-17.093,67.365-114.448,36.808-156.809
			c-30.557-42.361-105.562-4.459-112.891-12.82c-7.329-8.361,42.748-103.115-7.255-139.53
			c-50.003-36.415-156.954,18.579-156.954,18.579c-5.004,1.648-32.625,16.31-56.253,29.053
			C359.4,109.702,331.78,95.04,326.776,93.393c0,0-106.951-54.995-156.954-18.579c-50.003,36.415,0.074,131.169-7.255,139.53
			c-7.329,8.361-82.333-29.541-112.891,12.82c-30.557,42.361,38.891,139.716,36.808,156.809
			c-2.083,17.093-38.891,20.809-39.586,35.672c-0.694,14.863,47.919,38.645,91.672,38.645s50.697,1.486,50.697,1.486h193.761H576.79
			c0,0,6.945-1.486,50.697-1.486c43.753,0,92.367-23.782,91.672-38.645C718.465,404.781,681.658,401.065,679.574,383.972z"/>
	</g>
</g>
<g id="Floor">
	<g>
		
			<line style="fill:none;stroke:#263238;stroke-linecap:round;stroke-linejoin:round;stroke-miterlimit:10;" x1="175.862" y1="446.423" x2="726.706" y2="446.423"/>
		
			<line style="fill:none;stroke:#263238;stroke-linecap:round;stroke-linejoin:round;stroke-miterlimit:10;" x1="50.307" y1="446.423" x2="166.203" y2="446.423"/>
	</g>
</g>
<g id="Plants">
	<g style="opacity:0.15;">
		<path d="M669.207,242.185c-4.717-4.766-9.816-18.907-9.82-18.918c-0.052-0.146,10.342-0.531,11-0.48
			c7.624,0.59,22.006,6.215,23.993,14.543c1.431,6-3.051,11.375-8.916,12.161C679.472,250.295,673.226,246.243,669.207,242.185z"/>
		<path d="M626.728,253.03c-3.163-5.611-4.368-19.523-4.458-20.632c-7.768,0.729-15.797,0.849-23.928,0.521
			c-4.65-0.181-9.327-0.511-14.012-0.898c2.112,0.495,3.998,0.955,4.255,1.046c7.198,2.584,19.583,11.807,19.299,20.363
			c-0.202,6.167-5.945,10.165-11.81,9.376c-5.99-0.806-10.946-6.366-13.749-11.34c-2.847-5.048-4.11-16.889-4.404-20.028
			c-1.796-0.168-3.591-0.314-5.386-0.49c-8.614-0.837-17.206-1.708-25.659-2.306c-2.979-0.212-5.92-0.311-8.864-0.422
			c1.876,0.442,3.453,0.83,3.688,0.914c7.195,2.584,19.582,11.805,19.299,20.363c-0.203,6.166-5.945,10.167-11.81,9.375
			c-5.991-0.809-10.945-6.366-13.749-11.341c-2.716-4.817-3.981-15.736-4.347-19.464c-3.018-0.022-6.039-0.049-8.964,0.066
			c-1.995,0.123-3.925,0.102-5.921,0.34c-1.982,0.191-3.945,0.382-5.888,0.57c-3.728,0.499-7.579,0.991-11.204,1.57
			c-2.525,0.383-4.924,0.795-7.341,1.203c2.968,0.177,8.771,0.644,9.252,0.739c7.504,1.462,21.143,8.702,22.161,17.204
			c0.732,6.125-4.337,10.949-10.255,11.054c-6.043,0.109-11.783-4.633-15.308-9.125c-3.88-4.948-7.111-17.97-7.503-19.601
			c-3.998,0.689-7.88,1.397-11.533,2.124c-2.706,0.531-5.297,1.065-7.781,1.595l-1.921-4.974c2.786-0.536,5.706-1.075,8.775-1.608
			c4.057-0.717,8.405-1.4,12.879-2.06c0.01-1.077,0.107-7.201,0.917-12.906c-6.006-2.379-15.233-10.853-16.416-11.954
			c-2.955,2.779-5.802,5.511-8.447,8.133c-1.404,1.385-2.721,2.711-4.028,4.031l-2.031-5.259c0.839-0.804,1.658-1.595,2.533-2.422
			c2.988-2.835,6.239-5.806,9.605-8.824c-0.895-1.381-8.139-12.71-9.059-18.939c-0.832-5.649-0.323-13.078,3.916-17.389
			c4.148-4.219,11.138-4.576,15.078,0.173c5.468,6.588,1.332,21.467-2.772,27.917c-0.241,0.381-3.329,4.217-5.317,6.604
			c1.382-1.225,2.71-2.43,4.148-3.675c2.826-2.482,5.721-4.873,8.826-7.457c1.543-1.196,3.102-2.404,4.675-3.624
			c1.536-1.242,3.316-2.36,4.983-3.559c3.926-2.701,8.036-5.243,12.232-7.715c-2.164-2.481-9.73-11.401-11.416-16.885
			c-1.679-5.459-2.301-12.877,1.236-17.78c3.462-4.8,10.318-6.212,14.931-2.117c6.402,5.685,4.568,21.018,1.489,28.017
			c-0.191,0.436-2.966,5.209-4.539,7.801c2.534-1.466,5.056-2.941,7.669-4.34c7.54-4.042,15.297-7.898,23.02-11.78
			c2.366-1.187,4.709-2.399,7.06-3.604c-0.781-0.874-10.001-11.282-11.891-17.424c-1.68-5.457-2.302-12.878,1.236-17.779
			c3.462-4.8,10.317-6.212,14.929-2.116c6.403,5.684,4.569,21.017,1.49,28.015c-0.232,0.527-4.233,7.391-5.336,9.086
			c5.176-2.654,10.308-5.347,15.26-8.208c6.838-3.935,13.33-8.177,19.316-12.75c-0.365-0.406-10.037-11.227-11.972-17.516
			c-1.679-5.459-2.302-12.88,1.235-17.781c3.463-4.799,10.317-6.212,14.93-2.116c6.403,5.686,4.569,21.017,1.49,28.017
			c-0.242,0.549-4.55,7.93-5.427,9.213c0.355-0.273,0.753-0.517,1.104-0.793c6.328-4.964,11.835-10.567,16.732-16.065
			c2.853-3.189,5.401-6.398,7.811-9.574c-2.009-1.831-11.093-10.298-13.461-15.766c-2.268-5.241-3.702-12.549-0.724-17.808
			c2.914-5.152,9.572-7.308,14.607-3.744c6.989,4.948,6.849,20.389,4.558,27.683c-0.124,0.396-1.838,4.288-3.126,7.105
			c1.067-1.45,2.193-2.926,3.185-4.336c3.741-5.285,6.841-10.355,9.552-14.867c1.519-2.577,2.844-4.939,4.058-7.162
			c-1.034-2.823-5.056-14.257-4.645-20.095c0.404-5.696,2.496-12.843,7.563-16.14c4.961-3.227,11.865-2.073,14.689,3.41
			c3.923,7.61-3.315,21.252-8.711,26.669c-0.467,0.468-8.6,6.953-8.655,6.806c0,0-0.051-0.137-0.064-0.17
			c-1.125,2.163-2.358,4.468-3.756,6.959c-2.617,4.581-5.614,9.732-9.256,15.117c-3.625,5.393-7.715,11.149-12.57,16.824
			c-4.859,5.695-10.261,11.436-16.592,16.633c-0.071,0.059-0.154,0.11-0.225,0.169c2.324-0.946,8.91-3.37,9.436-3.498
			c7.427-1.815,22.846-0.958,27.333,6.337c3.23,5.254,0.648,11.758-4.68,14.335c-5.443,2.63-12.64,0.729-17.724-1.875
			c-5.733-2.935-14.412-13.875-15.101-14.748c-6.075,4.894-12.706,9.421-19.668,13.635c-3.98,2.413-8.062,4.719-12.184,6.98
			c2.036-0.752,3.862-1.411,4.127-1.473c7.429-1.815,22.844-0.957,27.331,6.337c3.232,5.254,0.649,11.759-4.679,14.334
			c-5.442,2.632-12.64,0.729-17.724-1.873c-5.157-2.641-12.746-11.819-14.721-14.274c-1.59,0.85-3.17,1.718-4.763,2.562
			c-7.646,4.054-15.293,8.065-22.674,12.231c-2.602,1.466-5.109,3.006-7.624,4.537c1.807-0.665,3.337-1.211,3.578-1.27
			c7.429-1.815,22.845-0.957,27.331,6.335c3.231,5.256,0.65,11.761-4.68,14.338c-5.44,2.63-12.64,0.727-17.723-1.876
			c-4.922-2.518-12.002-10.929-14.363-13.836c-2.529,1.646-5.064,3.291-7.44,5.001c-1.596,1.204-3.215,2.252-4.751,3.55
			c-1.546,1.253-3.08,2.494-4.596,3.722c-2.835,2.475-5.775,5.009-8.479,7.491c-1.895,1.713-3.667,3.38-5.459,5.053
			c2.573-1.489,7.67-4.3,8.122-4.488c4.696-1.938,13.048-3.231,19.757-1.973c0.691-0.291,1.404-0.52,2.14-0.677
			c5.79-1.229,11.816,2.328,12.483,8.461c0.927,8.511-10.732,18.64-17.713,21.755c-0.412,0.184-5.103,1.68-8.079,2.575
			c1.83-0.258,3.601-0.533,5.488-0.777c3.726-0.509,7.46-0.906,11.476-1.352c1.946-0.147,3.912-0.293,5.899-0.442
			c1.965-0.189,4.066-0.139,6.119-0.22c4.763-0.085,9.596,0.059,14.459,0.313c-0.438-3.265-1.826-14.878-0.208-20.382
			c1.61-5.479,5.186-12.011,10.838-14.148c5.537-2.092,12.033,0.509,13.621,6.47c2.205,8.274-7.784,20.052-14.212,24.191
			c-0.402,0.258-5.348,2.709-8.091,4.004c2.921,0.176,5.84,0.336,8.791,0.61c8.519,0.787,17.116,1.85,25.698,2.874
			c2.629,0.314,5.251,0.597,7.876,0.889c-0.168-1.161-2.117-14.929-0.304-21.094c1.61-5.478,5.185-12.011,10.839-14.148
			c5.535-2.092,12.032,0.51,13.619,6.471c2.205,8.274-7.783,20.051-14.211,24.19c-0.485,0.312-7.608,3.828-9.463,4.634
			c5.78,0.642,11.546,1.227,17.255,1.574c7.875,0.489,15.629,0.533,23.143,0.021c-0.079-0.542-2.177-14.901-0.321-21.215
			c1.61-5.48,5.185-12.011,10.839-14.148c5.536-2.094,12.031,0.509,13.62,6.471c2.205,8.273-7.784,20.05-14.213,24.189
			c-0.505,0.325-8.171,4.105-9.608,4.689c0.446-0.031,0.912-0.013,1.357-0.049c8.018-0.651,15.701-2.286,22.82-4.17
			c4.138-1.086,8.033-2.357,11.794-3.677c-0.665-2.635-3.571-14.709-2.529-20.575c0.999-5.624,3.835-12.509,9.219-15.254
			c5.273-2.688,12.017-0.814,14.249,4.935c3.101,7.982-5.535,20.785-11.469,25.605c-0.324,0.263-3.899,2.564-6.527,4.202
			c1.688-0.622,3.444-1.232,5.049-1.86c6.035-2.344,11.419-4.862,16.168-7.13c2.691-1.312,5.097-2.552,7.336-3.736
			c0.698-2.925,3.651-14.681,7.213-19.322c3.478-4.53,9.166-9.333,15.21-9.289c5.919,0.044,11.039,4.815,10.372,10.946
			c-0.927,8.513-14.49,15.896-21.979,17.441c-0.647,0.132-11.007,1.053-10.974,0.901c0,0,0.034-0.142,0.042-0.176
			c-2.131,1.182-4.432,2.425-6.972,3.731c-4.709,2.378-10.051,5.02-16.06,7.503c-5.998,2.498-12.586,5.044-19.766,7.098
			c-7.193,2.068-14.867,3.879-23.014,4.719c-0.092,0.009-0.19,0.007-0.282,0.016c2.46,0.494,9.291,2.107,9.801,2.29
			c7.197,2.583,19.582,11.805,19.301,20.362c-0.205,6.165-5.946,10.166-11.812,9.375
			C634.486,263.561,629.533,258.004,626.728,253.03z"/>
		<path d="M611.354,101.568c-0.125-0.093,8.334-6.149,8.91-6.469c6.684-3.711,21.782-6.955,28.035-1.104
			c4.504,4.214,3.73,11.17-0.73,15.061c-4.552,3.974-11.998,4.041-17.588,2.873C623.417,110.558,611.364,101.575,611.354,101.568z"
			/>
	</g>
	<g style="opacity:0.15;">
		<path d="M75.168,242.185c4.717-4.766,9.816-18.907,9.82-18.918c0.052-0.146-10.342-0.531-11-0.48
			c-7.624,0.59-22.006,6.215-23.994,14.543c-1.431,6,3.051,11.375,8.916,12.161C64.903,250.295,71.149,246.243,75.168,242.185z"/>
		<path d="M117.647,253.03c3.163-5.611,4.368-19.523,4.458-20.632c7.768,0.729,15.797,0.849,23.928,0.521
			c4.649-0.181,9.326-0.511,14.012-0.898c-2.112,0.495-3.998,0.955-4.255,1.046c-7.198,2.584-19.583,11.807-19.299,20.363
			c0.202,6.167,5.945,10.165,11.81,9.376c5.99-0.806,10.946-6.366,13.749-11.34c2.847-5.048,4.11-16.889,4.404-20.028
			c1.796-0.168,3.591-0.314,5.386-0.49c8.614-0.837,17.206-1.708,25.659-2.306c2.979-0.212,5.92-0.311,8.864-0.422
			c-1.876,0.442-3.452,0.83-3.688,0.914c-7.195,2.584-19.582,11.805-19.299,20.363c0.203,6.166,5.945,10.167,11.81,9.375
			c5.99-0.809,10.945-6.366,13.749-11.341c2.716-4.817,3.981-15.736,4.347-19.464c3.017-0.022,6.039-0.049,8.964,0.066
			c1.995,0.123,3.925,0.102,5.921,0.34c1.982,0.191,3.944,0.382,5.888,0.57c3.728,0.499,7.579,0.991,11.204,1.57
			c2.525,0.383,4.924,0.795,7.341,1.203c-2.968,0.177-8.771,0.644-9.252,0.739c-7.504,1.462-21.143,8.702-22.161,17.204
			c-0.732,6.125,4.337,10.949,10.255,11.054c6.043,0.109,11.783-4.633,15.308-9.125c3.88-4.948,7.111-17.97,7.503-19.601
			c3.998,0.689,7.88,1.397,11.533,2.124c2.706,0.531,5.297,1.065,7.781,1.595l1.921-4.974c-2.786-0.536-5.706-1.075-8.775-1.608
			c-4.057-0.717-8.405-1.4-12.879-2.06c-0.01-1.077-0.107-7.201-0.917-12.906c6.006-2.379,15.233-10.853,16.416-11.954
			c2.955,2.779,5.802,5.511,8.447,8.133c1.404,1.385,2.721,2.711,4.028,4.031l2.031-5.259c-0.839-0.804-1.658-1.595-2.533-2.422
			c-2.988-2.835-6.239-5.806-9.605-8.824c0.895-1.381,8.139-12.71,9.059-18.939c0.832-5.649,0.323-13.078-3.916-17.389
			c-4.148-4.219-11.138-4.576-15.078,0.173c-5.468,6.588-1.332,21.467,2.772,27.917c0.241,0.381,3.329,4.217,5.317,6.604
			c-1.382-1.225-2.71-2.43-4.148-3.675c-2.826-2.482-5.721-4.873-8.826-7.457c-1.543-1.196-3.102-2.404-4.675-3.624
			c-1.536-1.242-3.316-2.36-4.983-3.559c-3.926-2.701-8.036-5.243-12.232-7.715c2.164-2.481,9.73-11.401,11.416-16.885
			c1.679-5.459,2.301-12.877-1.236-17.78c-3.462-4.8-10.318-6.212-14.931-2.117c-6.402,5.685-4.568,21.018-1.489,28.017
			c0.191,0.436,2.965,5.209,4.539,7.801c-2.534-1.466-5.056-2.941-7.669-4.34c-7.54-4.042-15.297-7.898-23.02-11.78
			c-2.366-1.187-4.709-2.399-7.06-3.604c0.781-0.874,10.001-11.282,11.891-17.424c1.68-5.457,2.302-12.878-1.236-17.779
			c-3.462-4.8-10.317-6.212-14.929-2.116c-6.403,5.684-4.569,21.017-1.49,28.015c0.232,0.527,4.233,7.391,5.336,9.086
			c-5.176-2.654-10.308-5.347-15.26-8.208c-6.838-3.935-13.33-8.177-19.316-12.75c0.365-0.406,10.037-11.227,11.972-17.516
			c1.679-5.459,2.302-12.88-1.235-17.781c-3.463-4.799-10.316-6.212-14.93-2.116c-6.403,5.686-4.568,21.017-1.49,28.017
			c0.242,0.549,4.55,7.93,5.427,9.213c-0.355-0.273-0.754-0.517-1.104-0.793c-6.328-4.964-11.835-10.567-16.732-16.065
			c-2.853-3.189-5.402-6.398-7.811-9.574c2.009-1.831,11.093-10.298,13.461-15.766c2.268-5.241,3.702-12.549,0.724-17.808
			c-2.915-5.152-9.572-7.308-14.607-3.744c-6.989,4.948-6.85,20.389-4.558,27.683c0.124,0.396,1.838,4.288,3.126,7.105
			c-1.066-1.45-2.193-2.926-3.185-4.336c-3.741-5.285-6.841-10.355-9.552-14.867c-1.519-2.577-2.844-4.939-4.059-7.162
			c1.034-2.823,5.056-14.257,4.645-20.095c-0.404-5.696-2.496-12.843-7.563-16.14c-4.962-3.227-11.865-2.073-14.689,3.41
			c-3.923,7.61,3.315,21.252,8.711,26.669c0.467,0.468,8.6,6.953,8.655,6.806c0,0,0.051-0.137,0.063-0.17
			c1.125,2.163,2.358,4.468,3.756,6.959c2.617,4.581,5.614,9.732,9.256,15.117c3.625,5.393,7.715,11.149,12.57,16.824
			c4.859,5.695,10.261,11.436,16.592,16.633c0.071,0.059,0.154,0.11,0.225,0.169c-2.324-0.946-8.91-3.37-9.436-3.498
			c-7.427-1.815-22.846-0.958-27.333,6.337c-3.229,5.254-0.648,11.758,4.681,14.335c5.443,2.63,12.64,0.729,17.724-1.875
			c5.733-2.935,14.412-13.875,15.101-14.748c6.074,4.894,12.706,9.421,19.668,13.635c3.98,2.413,8.062,4.719,12.184,6.98
			c-2.036-0.752-3.862-1.411-4.127-1.473c-7.429-1.815-22.844-0.957-27.331,6.337c-3.232,5.254-0.649,11.759,4.679,14.334
			c5.442,2.632,12.64,0.729,17.724-1.873c5.158-2.641,12.746-11.819,14.721-14.274c1.59,0.85,3.17,1.718,4.763,2.562
			c7.646,4.054,15.293,8.065,22.674,12.231c2.602,1.466,5.109,3.006,7.624,4.537c-1.807-0.665-3.337-1.211-3.577-1.27
			c-7.429-1.815-22.845-0.957-27.331,6.335c-3.231,5.256-0.65,11.761,4.68,14.338c5.44,2.63,12.64,0.727,17.723-1.876
			c4.922-2.518,12.002-10.929,14.363-13.836c2.529,1.646,5.064,3.291,7.44,5.001c1.596,1.204,3.215,2.252,4.751,3.55
			c1.546,1.253,3.08,2.494,4.596,3.722c2.834,2.475,5.775,5.009,8.479,7.491c1.895,1.713,3.668,3.38,5.459,5.053
			c-2.573-1.489-7.67-4.3-8.122-4.488c-4.696-1.938-13.048-3.231-19.757-1.973c-0.691-0.291-1.404-0.52-2.14-0.677
			c-5.79-1.229-11.816,2.328-12.483,8.461c-0.927,8.511,10.732,18.64,17.713,21.755c0.412,0.184,5.103,1.68,8.079,2.575
			c-1.83-0.258-3.602-0.533-5.488-0.777c-3.726-0.509-7.46-0.906-11.476-1.352c-1.946-0.147-3.912-0.293-5.899-0.442
			c-1.965-0.189-4.066-0.139-6.119-0.22c-4.763-0.085-9.596,0.059-14.459,0.313c0.438-3.265,1.826-14.878,0.208-20.382
			c-1.61-5.479-5.186-12.011-10.838-14.148c-5.537-2.092-12.033,0.509-13.621,6.47c-2.205,8.274,7.784,20.052,14.212,24.191
			c0.402,0.258,5.348,2.709,8.091,4.004c-2.921,0.176-5.84,0.336-8.791,0.61c-8.519,0.787-17.116,1.85-25.698,2.874
			c-2.629,0.314-5.251,0.597-7.876,0.889c0.168-1.161,2.117-14.929,0.304-21.094c-1.61-5.478-5.185-12.011-10.839-14.148
			c-5.535-2.092-12.032,0.51-13.619,6.471c-2.205,8.274,7.783,20.051,14.212,24.19c0.485,0.312,7.608,3.828,9.463,4.634
			c-5.78,0.642-11.546,1.227-17.255,1.574c-7.875,0.489-15.629,0.533-23.143,0.021c0.079-0.542,2.176-14.901,0.321-21.215
			c-1.61-5.48-5.185-12.011-10.839-14.148c-5.536-2.094-12.031,0.509-13.62,6.471c-2.205,8.273,7.784,20.05,14.213,24.189
			c0.505,0.325,8.171,4.105,9.607,4.689c-0.446-0.031-0.912-0.013-1.357-0.049c-8.018-0.651-15.701-2.286-22.82-4.17
			c-4.138-1.086-8.033-2.357-11.794-3.677c0.665-2.635,3.571-14.709,2.529-20.575c-0.999-5.624-3.835-12.509-9.219-15.254
			c-5.273-2.688-12.017-0.814-14.249,4.935c-3.101,7.982,5.535,20.785,11.469,25.605c0.324,0.263,3.899,2.564,6.527,4.202
			c-1.688-0.622-3.444-1.232-5.049-1.86c-6.035-2.344-11.419-4.862-16.168-7.13c-2.691-1.312-5.097-2.552-7.335-3.736
			c-0.698-2.925-3.651-14.681-7.213-19.322c-3.478-4.53-9.166-9.333-15.21-9.289c-5.919,0.044-11.039,4.815-10.372,10.946
			c0.927,8.513,14.49,15.896,21.979,17.441c0.647,0.132,11.007,1.053,10.974,0.901c0,0-0.034-0.142-0.042-0.176
			c2.131,1.182,4.432,2.425,6.972,3.731c4.708,2.378,10.051,5.02,16.06,7.503c5.998,2.498,12.586,5.044,19.766,7.098
			c7.193,2.068,14.867,3.879,23.014,4.719c0.092,0.009,0.19,0.007,0.282,0.016c-2.46,0.494-9.291,2.107-9.801,2.29
			c-7.197,2.583-19.582,11.805-19.301,20.362c0.205,6.165,5.946,10.166,11.812,9.375
			C109.889,263.561,114.842,258.004,117.647,253.03z"/>
		<path d="M133.021,101.568c0.125-0.093-8.334-6.149-8.91-6.469c-6.684-3.711-21.782-6.955-28.035-1.104
			c-4.504,4.214-3.73,11.17,0.73,15.061c4.552,3.974,11.998,4.041,17.588,2.873C120.957,110.558,133.011,101.575,133.021,101.568z"
			/>
	</g>
	<g>
		<g style="opacity:0.15;">
			<path d="M297.655,377.759c-1.826-4.776-10.044-12.767-10.05-12.773c-0.085-0.082-3.623,7.016-3.795,7.489
				c-1.989,5.481-2.607,17.241,2.552,21.241c3.717,2.882,8.861,1.46,11.252-2.367C300.059,387.44,299.209,381.827,297.655,377.759z"
				/>
			<path d="M318.553,351.666c-2.902-3.962-12.187-9.176-12.928-9.588c2.95-5.166,5.56-10.705,7.891-16.456
				c1.337-3.286,2.58-6.639,3.785-10.015c-0.32,1.623-0.595,3.077-0.612,3.284c-0.47,5.812,2.04,17.317,8.072,19.811
				c4.347,1.8,8.931-0.931,10.228-5.253c1.325-4.414-0.978-9.606-3.551-13.117c-2.611-3.566-10.438-8.169-12.526-9.36
				c0.449-1.3,0.912-2.593,1.354-3.895c2.129-6.246,4.227-12.488,6.471-18.548c0.79-2.136,1.647-4.21,2.496-6.289
				c-0.284,1.442-0.51,2.659-0.525,2.849c-0.469,5.811,2.039,17.315,8.072,19.811c4.346,1.799,8.932-0.931,10.228-5.253
				c1.323-4.415-0.978-9.605-3.552-13.118c-2.491-3.402-9.677-7.716-12.151-9.143c0.934-2.103,1.866-4.21,2.866-6.205
				c0.714-1.347,1.306-2.694,2.099-4.006c0.756-1.317,1.506-2.62,2.248-3.91c1.519-2.432,3.073-4.953,4.616-7.288
				c1.06-1.633,2.101-3.17,3.145-4.721c-0.811,2.117-2.312,6.295-2.398,6.659c-1.346,5.672-0.608,17.424,4.977,20.806
				c4.024,2.436,8.97,0.432,10.905-3.645c1.977-4.163,0.49-9.642-1.522-13.504c-2.216-4.252-10.245-10.593-11.254-11.378
				c1.737-2.56,3.449-5.034,5.104-7.342c1.22-1.712,2.407-3.344,3.556-4.903l-2.85-2.899c-1.249,1.766-2.542,3.625-3.878,5.589
				c-1.774,2.592-3.617,5.398-5.483,8.297c-0.751-0.332-5.035-2.191-9.253-3.424c0.238-4.92-2.745-13.995-3.138-15.163
				c2.86-1.178,5.654-2.296,8.307-3.308c1.404-0.54,2.739-1.037,4.068-1.529l-3.014-3.065c-0.822,0.33-1.629,0.65-2.479,0.998
				c-2.91,1.184-5.996,2.507-9.151,3.895c-0.678-1.056-6.267-9.652-10.305-12.251c-3.662-2.355-8.982-4.339-13.31-2.751
				c-4.236,1.554-6.683,6.297-4.624,10.527c2.855,5.871,14.491,7.679,20.263,6.858c0.341-0.047,3.977-0.986,6.26-1.615
				c-1.286,0.574-2.541,1.117-3.858,1.725c-2.613,1.182-5.185,2.441-7.956,3.784c-1.316,0.695-2.645,1.398-3.988,2.107
				c-1.346,0.676-2.682,1.561-4.04,2.341c-3.111,1.878-6.17,3.932-9.207,6.069c-1.042-2.284-4.858-10.346-8.136-13.242
				c-3.263-2.883-8.22-5.65-12.738-4.736c-4.423,0.895-7.561,5.212-6.168,9.705c1.935,6.235,13.162,9.786,18.992,9.849
				c0.363,0.005,4.551-0.421,6.847-0.699c-1.815,1.299-3.634,2.587-5.427,3.961c-5.18,3.965-10.299,8.141-15.425,12.283
				c-1.569,1.27-3.148,2.516-4.724,3.77c-0.361-0.818-4.689-10.496-8.362-13.741c-3.262-2.884-8.221-5.65-12.738-4.735
				c-4.423,0.894-7.561,5.211-6.167,9.704c1.933,6.236,13.16,9.786,18.99,9.849c0.439,0.004,6.465-0.615,7.99-0.848
				c-3.472,2.76-6.957,5.478-10.502,8.017c-4.885,3.511-9.874,6.686-14.933,9.405c-0.167-0.381-4.64-10.504-8.399-13.827
				c-3.263-2.884-8.222-5.651-12.739-4.736c-4.423,0.895-7.561,5.211-6.168,9.705c1.935,6.236,13.161,9.786,18.991,9.85
				c0.457,0.004,6.94-0.665,8.107-0.871c-0.302,0.16-0.596,0.361-0.898,0.517c-5.439,2.834-11.063,4.896-16.423,6.568
				c-3.113,0.978-6.144,1.739-9.108,2.413c-0.64-1.971-3.663-10.945-6.715-14.31c-2.927-3.224-7.551-6.519-12.141-6.106
				c-4.495,0.404-8.088,4.349-7.196,8.968c1.238,6.411,12.007,11.172,17.794,11.876c0.314,0.039,3.557,0.073,5.918,0.064
				c-1.342,0.285-2.723,0.602-4.014,0.848c-4.848,0.936-9.345,1.494-13.332,1.957c-2.268,0.244-4.325,0.421-6.252,0.565
				c-1.635-1.606-8.312-7.997-12.496-9.549c-4.083-1.512-9.706-2.307-13.59,0.175c-3.803,2.431-5.173,7.589-2.253,11.276
				c4.051,5.119,15.804,4.384,21.265,2.341c0.472-0.177,7.535-3.786,7.45-3.87c0,0-0.079-0.079-0.098-0.098
				c1.857-0.101,3.845-0.232,6.015-0.419c4.005-0.376,8.526-0.838,13.412-1.673c4.886-0.821,10.171-1.851,15.641-3.437
				c5.484-1.583,11.172-3.529,16.774-6.292c0.063-0.031,0.125-0.072,0.189-0.103c-1.388,1.317-5.144,5.128-5.399,5.454
				c-3.597,4.588-7.853,15.567-4.198,20.979c2.633,3.896,7.963,4.15,11.429,1.259c3.539-2.953,4.483-8.55,4.275-12.901
				c-0.235-4.905-5.103-14.376-5.492-15.129c5.31-2.679,10.542-5.861,15.658-9.371c2.928-2.005,5.814-4.115,8.682-6.267
				c-1.163,1.177-2.195,2.238-2.322,2.403c-3.598,4.589-7.852,15.566-4.197,20.977c2.633,3.898,7.964,4.15,11.428,1.26
				c3.54-2.952,4.483-8.55,4.275-12.9c-0.212-4.413-4.199-12.572-5.283-14.716c1.091-0.837,2.191-1.661,3.279-2.502
				c5.221-4.035,10.414-8.085,15.629-11.9c1.837-1.346,3.695-2.603,5.55-3.868c-1.031,1.046-1.891,1.937-2.008,2.085
				c-3.598,4.589-7.853,15.567-4.199,20.977c2.634,3.898,7.964,4.152,11.431,1.26c3.538-2.951,4.482-8.551,4.273-12.9
				c-0.201-4.211-3.815-11.775-5.091-14.329c1.939-1.239,3.879-2.482,5.814-3.595c1.338-0.73,2.576-1.525,3.961-2.183
				c1.357-0.68,2.701-1.354,4.031-2.021c2.611-1.19,5.296-2.435,7.871-3.533c1.785-0.777,3.502-1.484,5.227-2.202
				c-1.844,1.319-5.4,3.975-5.672,4.23c-2.824,2.652-6.349,8.047-7.587,13.102c-0.419,0.389-0.803,0.812-1.143,1.273
				c-2.676,3.635-2.101,8.94,1.95,11.333c5.62,3.322,16.324-1.59,20.684-5.458c0.258-0.228,2.773-3.016,4.33-4.801
				c-0.755,1.19-1.503,2.334-2.266,3.567c-1.526,2.428-2.977,4.896-4.55,7.546c-0.714,1.306-1.434,2.625-2.163,3.958
				c-0.75,1.305-1.376,2.78-2.078,4.181c-1.557,3.282-2.978,6.684-4.331,10.141c-2.13-1.332-9.76-5.95-14.091-6.557
				c-4.312-0.606-9.974-0.177-13.237,3.077c-3.195,3.188-3.432,8.518,0.209,11.497c5.053,4.135,16.376,0.902,21.274-2.26
				c0.306-0.198,3.564-2.862,5.326-4.36c-0.797,2.084-1.604,4.162-2.342,6.298c-2.134,6.165-4.1,12.471-6.089,18.754
				c-0.609,1.925-1.237,3.835-1.861,5.75c-0.753-0.482-9.704-6.167-14.555-6.848c-4.312-0.605-9.974-0.178-13.237,3.077
				c-3.194,3.186-3.431,8.518,0.21,11.496c5.053,4.135,16.376,0.903,21.273-2.26c0.369-0.239,5.052-4.08,6.196-5.115
				c-1.373,4.216-2.78,8.406-4.335,12.481c-2.138,5.624-4.547,11.023-7.267,16.082c-0.351-0.225-9.665-6.2-14.635-6.898
				c-4.313-0.606-9.974-0.178-13.237,3.078c-3.196,3.186-3.432,8.517,0.21,11.496c5.053,4.134,16.376,0.901,21.273-2.262
				c0.385-0.248,5.422-4.384,6.28-5.198c-0.162,0.3-0.296,0.63-0.461,0.927c-2.975,5.364-6.528,10.186-10.076,14.539
				c-2.056,2.533-4.164,4.838-6.265,7.035c-1.621-1.29-9.093-7.108-13.495-8.23c-4.221-1.075-9.895-1.272-13.496,1.604
				c-3.526,2.817-4.346,8.091-1.055,11.45c4.568,4.665,16.178,2.695,21.393,0.09c0.284-0.142,3.008-1.901,4.973-3.212
				c-0.963,0.977-1.939,2.004-2.881,2.922c-3.527,3.454-6.97,6.402-10.04,8.987c-1.758,1.456-3.376,2.737-4.903,3.919
				c-2.251-0.436-11.345-2.083-15.69-1.069c-4.241,0.99-9.367,3.43-11.237,7.642c-1.832,4.125-0.129,9.183,4.339,10.648
				c6.205,2.035,15.6-5.063,19.029-9.779c0.295-0.408,4.195-7.314,4.079-7.339c0,0-0.11-0.021-0.135-0.026
				c1.492-1.108,3.079-2.316,4.785-3.668c3.133-2.522,6.649-5.402,10.264-8.794c3.622-3.381,7.463-7.155,11.149-11.496
				c3.699-4.346,7.372-9.106,10.519-14.501c0.035-0.061,0.065-0.13,0.1-0.19c-0.431,1.864-1.46,7.116-1.493,7.528
				c-0.47,5.811,2.038,17.315,8.071,19.812c4.347,1.797,8.932-0.932,10.228-5.255C323.427,360.368,321.125,355.179,318.553,351.666z
				"/>
			<path d="M218.187,293.334c-0.025-0.116-6.893,3.854-7.297,4.153c-4.681,3.475-11.684,12.942-9.588,19.126
				c1.51,4.454,6.585,6.105,10.691,4.231c4.193-1.911,6.582-7.062,7.529-11.312C220.636,304.541,218.188,293.343,218.187,293.334z"
				/>
		</g>
		<g style="opacity:0.15;">
			<path d="M419.532,377.759c1.826-4.776,10.044-12.767,10.05-12.773c0.085-0.082,3.622,7.016,3.795,7.489
				c1.989,5.481,2.607,17.241-2.553,21.241c-3.717,2.882-8.861,1.46-11.252-2.367C417.128,387.44,417.978,381.827,419.532,377.759z"
				/>
			<path d="M398.634,351.666c2.902-3.962,12.187-9.176,12.928-9.588c-2.95-5.166-5.56-10.705-7.891-16.456
				c-1.337-3.286-2.58-6.639-3.785-10.015c0.32,1.623,0.595,3.077,0.612,3.284c0.47,5.812-2.04,17.317-8.072,19.811
				c-4.347,1.8-8.931-0.931-10.228-5.253c-1.325-4.414,0.978-9.606,3.551-13.117c2.611-3.566,10.438-8.169,12.526-9.36
				c-0.449-1.3-0.912-2.593-1.354-3.895c-2.129-6.246-4.227-12.488-6.471-18.548c-0.79-2.136-1.647-4.21-2.496-6.289
				c0.284,1.442,0.51,2.659,0.525,2.849c0.469,5.811-2.039,17.315-8.072,19.811c-4.346,1.799-8.932-0.931-10.228-5.253
				c-1.323-4.415,0.978-9.605,3.552-13.118c2.491-3.402,9.677-7.716,12.151-9.143c-0.934-2.103-1.866-4.21-2.866-6.205
				c-0.714-1.347-1.306-2.694-2.099-4.006c-0.756-1.317-1.506-2.62-2.248-3.91c-1.519-2.432-3.073-4.953-4.615-7.288
				c-1.061-1.633-2.101-3.17-3.145-4.721c0.811,2.117,2.312,6.295,2.398,6.659c1.346,5.672,0.608,17.424-4.977,20.806
				c-4.024,2.436-8.969,0.432-10.905-3.645c-1.977-4.163-0.489-9.642,1.522-13.504c2.216-4.252,10.245-10.593,11.254-11.378
				c-1.737-2.56-3.449-5.034-5.104-7.342c-1.221-1.712-2.407-3.344-3.556-4.903l2.851-2.899c1.248,1.766,2.542,3.625,3.878,5.589
				c1.774,2.592,3.617,5.398,5.483,8.297c0.751-0.332,5.035-2.191,9.253-3.424c-0.238-4.92,2.745-13.995,3.138-15.163
				c-2.86-1.178-5.654-2.296-8.307-3.308c-1.403-0.54-2.739-1.037-4.067-1.529l3.014-3.065c0.822,0.33,1.629,0.65,2.479,0.998
				c2.91,1.184,5.996,2.507,9.151,3.895c0.678-1.056,6.267-9.652,10.304-12.251c3.662-2.355,8.982-4.339,13.31-2.751
				c4.236,1.554,6.683,6.297,4.624,10.527c-2.855,5.871-14.491,7.679-20.263,6.858c-0.341-0.047-3.977-0.986-6.26-1.615
				c1.286,0.574,2.541,1.117,3.858,1.725c2.613,1.182,5.185,2.441,7.956,3.784c1.316,0.695,2.645,1.398,3.988,2.107
				c1.346,0.676,2.682,1.561,4.04,2.341c3.111,1.878,6.17,3.932,9.207,6.069c1.042-2.284,4.858-10.346,8.136-13.242
				c3.263-2.883,8.22-5.65,12.738-4.736c4.423,0.895,7.561,5.212,6.168,9.705c-1.934,6.235-13.162,9.786-18.992,9.849
				c-0.363,0.005-4.551-0.421-6.847-0.699c1.815,1.299,3.634,2.587,5.427,3.961c5.18,3.965,10.298,8.141,15.425,12.283
				c1.569,1.27,3.148,2.516,4.724,3.77c0.362-0.818,4.69-10.496,8.362-13.741c3.262-2.884,8.221-5.65,12.738-4.735
				c4.423,0.894,7.561,5.211,6.167,9.704c-1.933,6.236-13.16,9.786-18.99,9.849c-0.439,0.004-6.465-0.615-7.99-0.848
				c3.472,2.76,6.957,5.478,10.502,8.017c4.885,3.511,9.874,6.686,14.933,9.405c0.167-0.381,4.64-10.504,8.399-13.827
				c3.263-2.884,8.222-5.651,12.739-4.736c4.423,0.895,7.561,5.211,6.167,9.705c-1.935,6.236-13.161,9.786-18.991,9.85
				c-0.457,0.004-6.94-0.665-8.107-0.871c0.302,0.16,0.596,0.361,0.898,0.517c5.439,2.834,11.063,4.896,16.423,6.568
				c3.113,0.978,6.144,1.739,9.108,2.413c0.64-1.971,3.663-10.945,6.715-14.31c2.927-3.224,7.551-6.519,12.141-6.106
				c4.495,0.404,8.088,4.349,7.196,8.968c-1.238,6.411-12.007,11.172-17.794,11.876c-0.314,0.039-3.557,0.073-5.918,0.064
				c1.343,0.285,2.723,0.602,4.014,0.848c4.848,0.936,9.345,1.494,13.332,1.957c2.268,0.244,4.325,0.421,6.252,0.565
				c1.635-1.606,8.312-7.997,12.496-9.549c4.083-1.512,9.706-2.307,13.59,0.175c3.803,2.431,5.173,7.589,2.253,11.276
				c-4.051,5.119-15.804,4.384-21.265,2.341c-0.472-0.177-7.535-3.786-7.451-3.87c0,0,0.079-0.079,0.098-0.098
				c-1.857-0.101-3.845-0.232-6.015-0.419c-4.005-0.376-8.526-0.838-13.412-1.673c-4.886-0.821-10.172-1.851-15.641-3.437
				c-5.484-1.583-11.172-3.529-16.773-6.292c-0.063-0.031-0.125-0.072-0.189-0.103c1.388,1.317,5.144,5.128,5.399,5.454
				c3.597,4.588,7.853,15.567,4.198,20.979c-2.633,3.896-7.963,4.15-11.43,1.259c-3.539-2.953-4.483-8.55-4.274-12.901
				c0.235-4.905,5.103-14.376,5.492-15.129c-5.31-2.679-10.542-5.861-15.658-9.371c-2.928-2.005-5.815-4.115-8.682-6.267
				c1.163,1.177,2.195,2.238,2.322,2.403c3.598,4.589,7.852,15.566,4.197,20.977c-2.633,3.898-7.964,4.15-11.428,1.26
				c-3.54-2.952-4.483-8.55-4.275-12.9c0.212-4.413,4.199-12.572,5.283-14.716c-1.091-0.837-2.191-1.661-3.279-2.502
				c-5.221-4.035-10.414-8.085-15.629-11.9c-1.837-1.346-3.695-2.603-5.55-3.868c1.031,1.046,1.891,1.937,2.008,2.085
				c3.598,4.589,7.853,15.567,4.199,20.977c-2.634,3.898-7.964,4.152-11.431,1.26c-3.538-2.951-4.482-8.551-4.273-12.9
				c0.201-4.211,3.815-11.775,5.091-14.329c-1.939-1.239-3.879-2.482-5.814-3.595c-1.338-0.73-2.576-1.525-3.961-2.183
				c-1.357-0.68-2.701-1.354-4.031-2.021c-2.611-1.19-5.296-2.435-7.871-3.533c-1.786-0.777-3.502-1.484-5.227-2.202
				c1.844,1.319,5.4,3.975,5.672,4.23c2.824,2.652,6.349,8.047,7.587,13.102c0.419,0.389,0.803,0.812,1.143,1.273
				c2.676,3.635,2.101,8.94-1.95,11.333c-5.62,3.322-16.324-1.59-20.684-5.458c-0.258-0.228-2.773-3.016-4.33-4.801
				c0.755,1.19,1.504,2.334,2.266,3.567c1.526,2.428,2.977,4.896,4.55,7.546c0.714,1.306,1.434,2.625,2.163,3.958
				c0.75,1.305,1.376,2.78,2.078,4.181c1.557,3.282,2.978,6.684,4.331,10.141c2.13-1.332,9.76-5.95,14.091-6.557
				c4.312-0.606,9.974-0.177,13.237,3.077c3.195,3.188,3.432,8.518-0.209,11.497c-5.053,4.135-16.376,0.902-21.274-2.26
				c-0.306-0.198-3.564-2.862-5.326-4.36c0.797,2.084,1.604,4.162,2.342,6.298c2.134,6.165,4.101,12.471,6.089,18.754
				c0.609,1.925,1.238,3.835,1.86,5.75c0.753-0.482,9.704-6.167,14.555-6.848c4.312-0.605,9.974-0.178,13.237,3.077
				c3.195,3.186,3.431,8.518-0.21,11.496c-5.053,4.135-16.376,0.903-21.273-2.26c-0.369-0.239-5.052-4.08-6.196-5.115
				c1.373,4.216,2.78,8.406,4.335,12.481c2.138,5.624,4.547,11.023,7.267,16.082c0.351-0.225,9.665-6.2,14.635-6.898
				c4.313-0.606,9.974-0.178,13.237,3.078c3.196,3.186,3.432,8.517-0.21,11.496c-5.053,4.134-16.376,0.901-21.273-2.262
				c-0.385-0.248-5.422-4.384-6.28-5.198c0.162,0.3,0.296,0.63,0.461,0.927c2.975,5.364,6.528,10.186,10.076,14.539
				c2.056,2.533,4.164,4.838,6.265,7.035c1.621-1.29,9.093-7.108,13.495-8.23c4.221-1.075,9.895-1.272,13.496,1.604
				c3.526,2.817,4.346,8.091,1.055,11.45c-4.568,4.665-16.178,2.695-21.393,0.09c-0.284-0.142-3.008-1.901-4.973-3.212
				c0.964,0.977,1.939,2.004,2.881,2.922c3.527,3.454,6.97,6.402,10.039,8.987c1.758,1.456,3.376,2.737,4.903,3.919
				c2.251-0.436,11.346-2.083,15.69-1.069c4.241,0.99,9.366,3.43,11.237,7.642c1.832,4.125,0.129,9.183-4.339,10.648
				c-6.205,2.035-15.6-5.063-19.029-9.779c-0.295-0.408-4.195-7.314-4.079-7.339c0,0,0.11-0.021,0.136-0.026
				c-1.492-1.108-3.079-2.316-4.785-3.668c-3.133-2.522-6.649-5.402-10.264-8.794c-3.622-3.381-7.463-7.155-11.149-11.496
				c-3.7-4.346-7.372-9.106-10.519-14.501c-0.035-0.061-0.065-0.13-0.1-0.19c0.431,1.864,1.46,7.116,1.493,7.528
				c0.47,5.811-2.038,17.315-8.071,19.812c-4.347,1.797-8.932-0.932-10.228-5.255C393.76,360.368,396.062,355.179,398.634,351.666z"
				/>
			<path d="M499,293.334c0.025-0.116,6.893,3.854,7.297,4.153c4.681,3.475,11.684,12.942,9.587,19.126
				c-1.51,4.454-6.585,6.105-10.691,4.231c-4.193-1.911-6.582-7.062-7.529-11.312C496.551,304.541,498.999,293.343,499,293.334z"/>
		</g>
	</g>
</g>
<g id="Lines">
	<g>
		
			<line style="fill:none;stroke:#263238;stroke-linecap:round;stroke-linejoin:round;stroke-miterlimit:10;" x1="163.622" y1="146.018" x2="253.18" y2="355.976"/>
		
			<line style="fill:none;stroke:#263238;stroke-linecap:round;stroke-linejoin:round;stroke-miterlimit:10;" x1="135.473" y1="80.026" x2="159.898" y2="137.288"/>
		
			<line style="fill:none;stroke:#263238;stroke-linecap:round;stroke-linejoin:round;stroke-miterlimit:10;" x1="527.842" y1="285.027" x2="518.714" y2="306.428"/>
		
			<line style="fill:none;stroke:#263238;stroke-linecap:round;stroke-linejoin:round;stroke-miterlimit:10;" x1="615.286" y1="80.026" x2="534.874" y2="268.542"/>
		
			<line style="fill:none;stroke:#263238;stroke-linecap:round;stroke-linejoin:round;stroke-miterlimit:10;" x1="702.237" y1="150.036" x2="623.164" y2="266.374"/>
		
			<line style="fill:none;stroke:#263238;stroke-linecap:round;stroke-linejoin:round;stroke-miterlimit:10;" x1="711.761" y1="136.023" x2="705.891" y2="144.66"/>
		
			<line style="fill:none;stroke:#263238;stroke-linecap:round;stroke-linejoin:round;stroke-miterlimit:10;" x1="730.092" y1="261.282" x2="696.486" y2="294.888"/>
		
			<line style="fill:none;stroke:#263238;stroke-linecap:round;stroke-linejoin:round;stroke-miterlimit:10;" x1="94.782" y1="205.175" x2="102.78" y2="217.492"/>
		
			<line style="fill:none;stroke:#263238;stroke-linecap:round;stroke-linejoin:round;stroke-miterlimit:10;" x1="51.861" y1="139.078" x2="89.248" y2="196.654"/>
		
			<line style="fill:none;stroke:#263238;stroke-linecap:round;stroke-linejoin:round;stroke-miterlimit:10;" x1="21.31" y1="268.41" x2="39.641" y2="282.668"/>
	</g>
</g>
<g id="Scale">
	<g>
		<path style="fill:#263238;stroke:#263238;stroke-linecap:round;stroke-linejoin:round;stroke-miterlimit:10;" d="M514.73,78.471
			H235.571c-4.294,0-7.794,2.79-8.54,6.393l-0.043,0l-0.001,0.236c-0.111,0.646-0.145,1.314-0.068,1.998l0.055,0.486l-0.055,10.708
			h1.263l23.947,212.192c0.451,3.999,4.19,7.042,8.652,7.042h114.37h114.37c4.462,0,8.201-3.042,8.652-7.042l23.947-212.192h1.263
			V87.097C523.903,82.481,519.88,78.471,514.73,78.471z"/>
		<path style="fill:#FFFFFF;stroke:#263238;stroke-linecap:round;stroke-linejoin:round;stroke-miterlimit:10;" d="M226.919,98.291
			l25.21,223.386c0.451,3.999,4.19,7.042,8.652,7.042h114.37h114.37c4.462,0,8.201-3.042,8.652-7.042l25.21-223.386
			c0.521-4.616-3.501-8.626-8.652-8.626H235.571C230.42,89.665,226.398,93.675,226.919,98.291z"/>
		<path style="fill:#92E3A9;stroke:#263238;stroke-linecap:round;stroke-linejoin:round;stroke-miterlimit:10;" d="M499.092,103.056
			h-45.21c0,0-18.681,1.488-28.304,9.919c-9.624,8.431-14.718,30.75-52.079,30.75c-37.361,0-42.456-22.318-52.079-30.75
			c-9.623-8.431-28.304-9.919-28.304-9.919h-41.907c-4.574,0-8.145,3.561-7.683,7.66l22.385,198.359
			c0.401,3.551,3.72,6.253,7.683,6.253H375.15h101.556c3.962,0,7.282-2.702,7.683-6.253l22.385-198.359
			C507.237,106.617,503.666,103.056,499.092,103.056z"/>
		<g>
			<path style="fill:#263238;stroke:#263238;stroke-linecap:round;stroke-linejoin:round;stroke-miterlimit:10;" d="M411.84,183.623
				c-0.144-0.084-0.288-0.167-0.432-0.249c-25.209-14.463-57.638-14.463-82.847,0c-0.144,0.083-0.288,0.166-0.432,0.249
				c-9.971,5.781-11.763,16.487-4,23.914c4.51,4.316,11.255,6.574,18.071,6.574c4.913,0.001,9.861-1.173,14.038-3.594
				c0.047-0.027,0.093-0.054,0.14-0.081c8.261-4.761,18.954-4.761,27.215,0c0.047,0.027,0.093,0.054,0.14,0.081
				c4.177,2.422,9.126,3.595,14.038,3.594c6.816,0,13.56-2.258,18.071-6.574C423.603,200.11,421.812,189.403,411.84,183.623z"/>
			<path style="fill:#FFFFFF;stroke:#263238;stroke-linecap:round;stroke-linejoin:round;stroke-miterlimit:10;" d="
				M418.926,190.579c-1.464-2.652-3.83-5.069-7.085-6.956c-0.144-0.084-0.288-0.167-0.432-0.249
				c-25.209-14.464-57.638-14.464-82.847,0c-0.144,0.083-0.288,0.166-0.432,0.249c-2.485,1.441-4.461,3.188-5.909,5.113
				l14.793,9.691l0.754-11.881l6.406,3.734l2.261-9.844l8.29,4.413l2.261-8.486l7.913,4.413l6.406-6.11l8.667,5.771l6.783-4.073
				l1.13,8.826l10.174-2.716l-0.377,10.183l7.536-3.055l-2.261,10.184L418.926,190.579z"/>
		</g>
		<g>
			
				<ellipse style="fill:#263238;stroke:#263238;stroke-linecap:round;stroke-linejoin:round;stroke-miterlimit:10;" cx="373.774" cy="116.433" rx="36.062" ry="20.582"/>
			
				<ellipse style="fill:#FFFFFF;stroke:#263238;stroke-linecap:round;stroke-linejoin:round;stroke-miterlimit:10;" cx="373.774" cy="118.183" rx="36.062" ry="20.582"/>
			<polygon style="fill:#263238;" points="372.454,97.945 373.553,129.02 375.37,129.02 376.246,98.012 			"/>
			<g>
				
					<line style="fill:none;stroke:#263238;stroke-linecap:round;stroke-linejoin:round;stroke-miterlimit:10;" x1="338.987" y1="112.86" x2="347.277" y2="120.536"/>
				
					<line style="fill:none;stroke:#263238;stroke-linecap:round;stroke-linejoin:round;stroke-miterlimit:10;" x1="342.902" y1="107.466" x2="349.35" y2="113.482"/>
				
					<line style="fill:none;stroke:#263238;stroke-linecap:round;stroke-linejoin:round;stroke-miterlimit:10;" x1="350.041" y1="102.902" x2="353.956" y2="108.504"/>
				
					<line style="fill:none;stroke:#263238;stroke-linecap:round;stroke-linejoin:round;stroke-miterlimit:10;" x1="357.641" y1="100.205" x2="360.174" y2="105.392"/>
				
					<line style="fill:none;stroke:#263238;stroke-linecap:round;stroke-linejoin:round;stroke-miterlimit:10;" x1="365.932" y1="98.545" x2="367.083" y2="104.147"/>
			</g>
			<g>
				
					<line style="fill:none;stroke:#263238;stroke-linecap:round;stroke-linejoin:round;stroke-miterlimit:10;" x1="408.308" y1="112.86" x2="400.017" y2="120.536"/>
				
					<line style="fill:none;stroke:#263238;stroke-linecap:round;stroke-linejoin:round;stroke-miterlimit:10;" x1="404.393" y1="107.466" x2="397.944" y2="113.482"/>
				
					<line style="fill:none;stroke:#263238;stroke-linecap:round;stroke-linejoin:round;stroke-miterlimit:10;" x1="397.253" y1="102.902" x2="393.338" y2="108.504"/>
				
					<line style="fill:none;stroke:#263238;stroke-linecap:round;stroke-linejoin:round;stroke-miterlimit:10;" x1="389.653" y1="100.205" x2="387.12" y2="105.392"/>
				
					<line style="fill:none;stroke:#263238;stroke-linecap:round;stroke-linejoin:round;stroke-miterlimit:10;" x1="381.362" y1="98.545" x2="380.211" y2="104.147"/>
			</g>
		</g>
	</g>
</g>
<g id="Measuring_Tape">
	<g>
		<path style="fill:#FFFFFF;stroke:#263238;stroke-linecap:round;stroke-linejoin:round;stroke-miterlimit:10;" d="M635.925,454.466
			c0,0,9.791,1.523,16.754-4.787c6.963-6.31,11.097-15.231,11.097-15.231l-19.583-4.352c0,0-6.123,16.056-21.447,21.844
			C622.746,451.941,628.962,453.813,635.925,454.466z"/>
		<path style="fill:#263238;stroke:#263238;stroke-linecap:round;stroke-linejoin:round;stroke-miterlimit:10;" d="M595.722,330.806
			c0,0,4.302,3.336,4.302,13.562c0,10.226,3.917,104.222,35.901,110.097h-24.152c0,0-6.745-3.046-17.407-25.24
			c-10.661-22.193-10.226-51.567-9.791-67.668c0.435-16.101-3.917-30.462-3.917-30.462S592.072,328.341,595.722,330.806z"/>
		<path style="fill:#263238;stroke:#263238;stroke-linecap:round;stroke-linejoin:round;stroke-miterlimit:10;" d="M597.238,159.186
			c0,0,18.199,16.581,19.008,52.979c0.809,36.398-23.861,72.796-49.744,112.025c-25.883,39.229-54.193,112.834-50.148,123.349
			c4.044,10.515,12.941,11.324,12.941,11.324s-3.235,0.809-17.795-6.066c-14.559-6.875-15.772-12.537-14.155-24.265
			c1.618-11.728,6.066-35.589,25.074-71.987c19.008-36.398,49.744-76.84,62.281-101.51c12.537-24.67,13.346-55.81,6.471-70.774
			c-6.875-14.964-19.817-23.861-19.817-23.861S594.407,158.377,597.238,159.186z"/>
		<path style="fill:#FFFFFF;stroke:#263238;stroke-linecap:round;stroke-linejoin:round;stroke-miterlimit:10;" d="M490.471,189.518
			l24.265,19.008c0,0,11.324-20.626,42.464-36.802c31.141-16.177,40.038-12.537,40.038-12.537s-21.434-13.75-27.501-14.155
			C563.671,144.627,525.656,155.546,490.471,189.518z"/>
		<path style="fill:#FFFFFF;stroke:#263238;stroke-linecap:round;stroke-linejoin:round;stroke-miterlimit:10;" d="M495.427,184.915
			c-1.656,1.49-3.31,3.013-4.957,4.603l24.265,19.008c0,0,1.34-2.441,4.366-6.301L495.427,184.915z"/>
		<path style="fill:#FFFFFF;stroke:#263238;stroke-linecap:round;stroke-linejoin:round;stroke-miterlimit:10;" d="M594.536,456.752
			c0,0-3.319,1.185-8.297-3.082c-4.978-4.267-19.201-17.849-27.735-51.747c-8.534-33.899,4.267-69.694,15.883-78.702
			c0,0,7.349,0,12.564,2.133c5.215,2.134,8.771,5.452,8.771,5.452s-6.875-0.237-12.801,6.163c-5.926,6.4-13.275,29.632-8.771,53.337
			c4.504,23.705,15.408,44.162,25.365,51.51c9.956,7.349,16.357,7.349,16.357,7.349S599.04,456.514,594.536,456.752z"/>
		<path style="fill:#FFFFFF;stroke:#263238;stroke-linecap:round;stroke-linejoin:round;stroke-miterlimit:10;" d="M529.295,458.863
			c0,0,1.618,4.449,23.052-17.39c21.434-21.839,35.185-58.641,43.678-67.943c8.493-9.302,31.949-5.258,35.589-4.853
			c3.64,0.404-9.425,4.053-20.573,22.704c-15.794,26.424-13.126,34.248-36.451,56.967
			C556.259,466.204,535.362,461.29,529.295,458.863z"/>
		<path style="fill:#263238;stroke:#263238;stroke-linecap:round;stroke-linejoin:round;stroke-miterlimit:10;" d="M631.614,368.677
			c0,0,16.259,1.006,21,11.911c4.741,10.904,5.185,34.159-10.178,56.3c-10.433,15.036-14.15,17.341-19.128,18.526
			c-4.978,1.185-28.772,1.339-28.772,1.339s24.404-6.761,39.588-40.132C642.604,397.982,642.853,380.472,631.614,368.677z"/>
		
			<line style="fill:none;stroke:#263238;stroke-linecap:round;stroke-linejoin:round;stroke-miterlimit:10;" x1="503.618" y1="178.955" x2="513.012" y2="184.827"/>
		
			<line style="fill:none;stroke:#263238;stroke-linecap:round;stroke-linejoin:round;stroke-miterlimit:10;" x1="511.603" y1="172.614" x2="515.831" y2="175.198"/>
		
			<line style="fill:none;stroke:#263238;stroke-linecap:round;stroke-linejoin:round;stroke-miterlimit:10;" x1="520.528" y1="166.508" x2="524.285" y2="169.326"/>
		
			<line style="fill:none;stroke:#263238;stroke-linecap:round;stroke-linejoin:round;stroke-miterlimit:10;" x1="529.687" y1="161.106" x2="533.445" y2="164.394"/>
		
			<line style="fill:none;stroke:#263238;stroke-linecap:round;stroke-linejoin:round;stroke-miterlimit:10;" x1="538.377" y1="156.174" x2="542.135" y2="158.758"/>
		
			<line style="fill:none;stroke:#263238;stroke-linecap:round;stroke-linejoin:round;stroke-miterlimit:10;" x1="547.067" y1="152.416" x2="553.173" y2="156.879"/>
		
			<line style="fill:none;stroke:#263238;stroke-linecap:round;stroke-linejoin:round;stroke-miterlimit:10;" x1="555.992" y1="148.893" x2="559.749" y2="151.712"/>
		
			<line style="fill:none;stroke:#263238;stroke-linecap:round;stroke-linejoin:round;stroke-miterlimit:10;" x1="565.621" y1="146.075" x2="571.257" y2="150.068"/>
		<path style="fill:none;stroke:#263238;stroke-linecap:round;stroke-linejoin:round;stroke-miterlimit:10;" d="M537.31,455.411
			c0,0,4.417,1.988,7.509,2.209"/>
		<path style="fill:none;stroke:#263238;stroke-linecap:round;stroke-linejoin:round;stroke-miterlimit:10;" d="M544.378,450.11
			c0,0,0.221,0.663,3.313,1.546"/>
		<path style="fill:none;stroke:#263238;stroke-linecap:round;stroke-linejoin:round;stroke-miterlimit:10;" d="M549.458,445.693
			c0,0,3.313,1.988,4.417,2.43"/>
		<path style="fill:none;stroke:#263238;stroke-linecap:round;stroke-linejoin:round;stroke-miterlimit:10;" d="M554.979,439.95
			c0,0,4.859,3.092,5.522,3.313"/>
		<path style="fill:none;stroke:#263238;stroke-linecap:round;stroke-linejoin:round;stroke-miterlimit:10;" d="M560.501,433.103
			c0,0,2.43,2.209,5.522,3.313"/>
		<path style="fill:none;stroke:#263238;stroke-linecap:round;stroke-linejoin:round;stroke-miterlimit:10;" d="M565.581,426.698
			c0,0,2.65,1.767,9.497,4.859"/>
		
			<line style="fill:none;stroke:#263238;stroke-linecap:round;stroke-linejoin:round;stroke-miterlimit:10;" x1="569.777" y1="419.631" x2="575.52" y2="422.944"/>
		
			<line style="fill:none;stroke:#263238;stroke-linecap:round;stroke-linejoin:round;stroke-miterlimit:10;" x1="574.415" y1="412.342" x2="580.6" y2="414.772"/>
		
			<line style="fill:none;stroke:#263238;stroke-linecap:round;stroke-linejoin:round;stroke-miterlimit:10;" x1="579.274" y1="404.17" x2="584.354" y2="406.6"/>
		
			<line style="fill:none;stroke:#263238;stroke-linecap:round;stroke-linejoin:round;stroke-miterlimit:10;" x1="583.692" y1="395.998" x2="589.876" y2="398.87"/>
		
			<line style="fill:none;stroke:#263238;stroke-linecap:round;stroke-linejoin:round;stroke-miterlimit:10;" x1="587.667" y1="388.931" x2="597.164" y2="392.685"/>
		
			<line style="fill:none;stroke:#263238;stroke-linecap:round;stroke-linejoin:round;stroke-miterlimit:10;" x1="591.643" y1="381.642" x2="598.048" y2="384.072"/>
		
			<line style="fill:none;stroke:#263238;stroke-linecap:round;stroke-linejoin:round;stroke-miterlimit:10;" x1="595.618" y1="375.458" x2="601.14" y2="377.225"/>
		
			<line style="fill:none;stroke:#263238;stroke-linecap:round;stroke-linejoin:round;stroke-miterlimit:10;" x1="602.686" y1="370.599" x2="608.649" y2="372.145"/>
		
			<line style="fill:none;stroke:#263238;stroke-linecap:round;stroke-linejoin:round;stroke-miterlimit:10;" x1="588.109" y1="454.969" x2="597.827" y2="452.76"/>
		
			<line style="fill:none;stroke:#263238;stroke-linecap:round;stroke-linejoin:round;stroke-miterlimit:10;" x1="584.354" y1="451.214" x2="589.876" y2="449.448"/>
		
			<line style="fill:none;stroke:#263238;stroke-linecap:round;stroke-linejoin:round;stroke-miterlimit:10;" x1="580.379" y1="447.901" x2="585.9" y2="445.693"/>
		
			<line style="fill:none;stroke:#263238;stroke-linecap:round;stroke-linejoin:round;stroke-miterlimit:10;" x1="564.697" y1="420.293" x2="569.556" y2="417.864"/>
		
			<line style="fill:none;stroke:#263238;stroke-linecap:round;stroke-linejoin:round;stroke-miterlimit:10;" x1="562.93" y1="414.993" x2="570.882" y2="412.784"/>
		
			<line style="fill:none;stroke:#263238;stroke-linecap:round;stroke-linejoin:round;stroke-miterlimit:10;" x1="560.943" y1="409.029" x2="566.685" y2="407.483"/>
		
			<line style="fill:none;stroke:#263238;stroke-linecap:round;stroke-linejoin:round;stroke-miterlimit:10;" x1="558.504" y1="401.922" x2="565.581" y2="400.636"/>
		
			<line style="fill:none;stroke:#263238;stroke-linecap:round;stroke-linejoin:round;stroke-miterlimit:10;" x1="556.967" y1="394.231" x2="563.814" y2="393.127"/>
		
			<line style="fill:none;stroke:#263238;stroke-linecap:round;stroke-linejoin:round;stroke-miterlimit:10;" x1="555.863" y1="387.605" x2="562.71" y2="386.722"/>
		
			<line style="fill:none;stroke:#263238;stroke-linecap:round;stroke-linejoin:round;stroke-miterlimit:10;" x1="555.642" y1="380.979" x2="565.36" y2="379.654"/>
		
			<line style="fill:none;stroke:#263238;stroke-linecap:round;stroke-linejoin:round;stroke-miterlimit:10;" x1="555.863" y1="372.807" x2="562.268" y2="372.366"/>
		
			<line style="fill:none;stroke:#263238;stroke-linecap:round;stroke-linejoin:round;stroke-miterlimit:10;" x1="556.746" y1="365.961" x2="562.71" y2="365.74"/>
		
			<line style="fill:none;stroke:#263238;stroke-linecap:round;stroke-linejoin:round;stroke-miterlimit:10;" x1="557.851" y1="358.451" x2="563.814" y2="358.893"/>
		
			<line style="fill:none;stroke:#263238;stroke-linecap:round;stroke-linejoin:round;stroke-miterlimit:10;" x1="559.838" y1="351.604" x2="566.023" y2="352.709"/>
		
			<line style="fill:none;stroke:#263238;stroke-linecap:round;stroke-linejoin:round;stroke-miterlimit:10;" x1="562.047" y1="345.199" x2="570.44" y2="347.629"/>
		
			<line style="fill:none;stroke:#263238;stroke-linecap:round;stroke-linejoin:round;stroke-miterlimit:10;" x1="564.256" y1="338.573" x2="569.556" y2="340.34"/>
		
			<line style="fill:none;stroke:#263238;stroke-linecap:round;stroke-linejoin:round;stroke-miterlimit:10;" x1="567.348" y1="332.389" x2="573.311" y2="334.819"/>
		
			<line style="fill:none;stroke:#263238;stroke-linecap:round;stroke-linejoin:round;stroke-miterlimit:10;" x1="572.207" y1="325.763" x2="577.949" y2="327.972"/>
		
			<line style="fill:none;stroke:#263238;stroke-linecap:round;stroke-linejoin:round;stroke-miterlimit:10;" x1="516.957" y1="189.046" x2="525.184" y2="194.256"/>
		
			<line style="fill:none;stroke:#263238;stroke-linecap:round;stroke-linejoin:round;stroke-miterlimit:10;" x1="527.378" y1="185.207" x2="532.314" y2="188.497"/>
		
			<line style="fill:none;stroke:#263238;stroke-linecap:round;stroke-linejoin:round;stroke-miterlimit:10;" x1="534.508" y1="178.076" x2="539.719" y2="181.916"/>
		
			<line style="fill:none;stroke:#263238;stroke-linecap:round;stroke-linejoin:round;stroke-miterlimit:10;" x1="541.638" y1="172.592" x2="547.397" y2="176.431"/>
		
			<line style="fill:none;stroke:#263238;stroke-linecap:round;stroke-linejoin:round;stroke-miterlimit:10;" x1="549.865" y1="167.381" x2="557.201" y2="171.723"/>
		
			<line style="fill:none;stroke:#263238;stroke-linecap:round;stroke-linejoin:round;stroke-miterlimit:10;" x1="556.721" y1="160.799" x2="565.771" y2="167.655"/>
		
			<line style="fill:none;stroke:#263238;stroke-linecap:round;stroke-linejoin:round;stroke-miterlimit:10;" x1="567.417" y1="158.057" x2="575.095" y2="163.268"/>
		
			<line style="fill:none;stroke:#263238;stroke-linecap:round;stroke-linejoin:round;stroke-miterlimit:10;" x1="581.128" y1="154.766" x2="586.888" y2="158.606"/>
		
			<line style="fill:none;stroke:#263238;stroke-linecap:round;stroke-linejoin:round;stroke-miterlimit:10;" x1="549.591" y1="458.895" x2="556.173" y2="458.621"/>
		<path style="fill:none;stroke:#263238;stroke-linecap:round;stroke-linejoin:round;stroke-miterlimit:10;" d="M555.899,453.136
			c0,0,5.211,1.097,12.067,1.371"/>
		
			<line style="fill:none;stroke:#263238;stroke-linecap:round;stroke-linejoin:round;stroke-miterlimit:10;" x1="560.835" y1="448.474" x2="572.353" y2="450.12"/>
		
			<line style="fill:none;stroke:#263238;stroke-linecap:round;stroke-linejoin:round;stroke-miterlimit:10;" x1="569.336" y1="443.264" x2="578.66" y2="444.086"/>
		
			<line style="fill:none;stroke:#263238;stroke-linecap:round;stroke-linejoin:round;stroke-miterlimit:10;" x1="575.644" y1="437.779" x2="584.145" y2="437.779"/>
		<path style="fill:none;stroke:#263238;stroke-linecap:round;stroke-linejoin:round;stroke-miterlimit:10;" d="M578.66,432.568
			c0,0,2.742,1.097,10.147,0"/>
		
			<line style="fill:none;stroke:#263238;stroke-linecap:round;stroke-linejoin:round;stroke-miterlimit:10;" x1="584.145" y1="425.164" x2="591.824" y2="426.535"/>
		
			<line style="fill:none;stroke:#263238;stroke-linecap:round;stroke-linejoin:round;stroke-miterlimit:10;" x1="589.63" y1="418.308" x2="596.212" y2="418.857"/>
		
			<line style="fill:none;stroke:#263238;stroke-linecap:round;stroke-linejoin:round;stroke-miterlimit:10;" x1="593.469" y1="410.355" x2="599.502" y2="411.452"/>
		
			<line style="fill:none;stroke:#263238;stroke-linecap:round;stroke-linejoin:round;stroke-miterlimit:10;" x1="597.034" y1="399.66" x2="604.713" y2="401.305"/>
		
			<line style="fill:none;stroke:#263238;stroke-linecap:round;stroke-linejoin:round;stroke-miterlimit:10;" x1="601.148" y1="391.159" x2="609.101" y2="393.627"/>
		
			<line style="fill:none;stroke:#263238;stroke-linecap:round;stroke-linejoin:round;stroke-miterlimit:10;" x1="607.455" y1="383.206" x2="615.408" y2="384.303"/>
		
			<line style="fill:none;stroke:#263238;stroke-linecap:round;stroke-linejoin:round;stroke-miterlimit:10;" x1="611.569" y1="374.704" x2="621.99" y2="376.624"/>
		
			<line style="fill:none;stroke:#263238;stroke-linecap:round;stroke-linejoin:round;stroke-miterlimit:10;" x1="572.353" y1="371.414" x2="565.497" y2="371.688"/>
		
			<line style="fill:none;stroke:#263238;stroke-linecap:round;stroke-linejoin:round;stroke-miterlimit:10;" x1="572.901" y1="386.222" x2="567.691" y2="387.319"/>
		
			<line style="fill:none;stroke:#263238;stroke-linecap:round;stroke-linejoin:round;stroke-miterlimit:10;" x1="576.466" y1="398.289" x2="569.611" y2="399.66"/>
		
			<line style="fill:none;stroke:#263238;stroke-linecap:round;stroke-linejoin:round;stroke-miterlimit:10;" x1="568.239" y1="358.799" x2="573.724" y2="358.799"/>
		
			<line style="fill:none;stroke:#263238;stroke-linecap:round;stroke-linejoin:round;stroke-miterlimit:10;" x1="572.079" y1="342.07" x2="578.66" y2="342.344"/>
		
			<line style="fill:none;stroke:#263238;stroke-linecap:round;stroke-linejoin:round;stroke-miterlimit:10;" x1="578.66" y1="331.101" x2="586.339" y2="333.569"/>
		
			<line style="fill:none;stroke:#263238;stroke-linecap:round;stroke-linejoin:round;stroke-miterlimit:10;" x1="646.026" y1="453.061" x2="637.751" y2="451.943"/>
		
			<line style="fill:none;stroke:#263238;stroke-linecap:round;stroke-linejoin:round;stroke-miterlimit:10;" x1="652.679" y1="449.679" x2="644.907" y2="448.142"/>
		
			<line style="fill:none;stroke:#263238;stroke-linecap:round;stroke-linejoin:round;stroke-miterlimit:10;" x1="657.206" y1="445.011" x2="649.38" y2="443.446"/>
		
			<line style="fill:none;stroke:#263238;stroke-linecap:round;stroke-linejoin:round;stroke-miterlimit:10;" x1="660.114" y1="440.091" x2="648.038" y2="437.184"/>
	</g>
</g>
<g id="Apple">
	<g>
		<path style="fill:#92E3A9;stroke:#263238;stroke-linecap:round;stroke-linejoin:round;stroke-miterlimit:10;" d="M163.814,247.899
			c0,0-15.064-15.638-52.399-12.817c-31.378,2.371-52.021,24.503-55.791,67.477s12.063,67.854,26.388,85.572
			c14.325,17.717,32.796,26.765,40.336,26.765c7.539,0,21.11-2.639,27.142,0c6.031,2.639,18.094,9.047,35.812,1.508
			c17.717-7.539,38.828-33.55,51.268-64.461c12.44-30.911,7.539-61.446-3.016-78.032s-30.157-25.634-42.597-27.519
			C178.515,244.506,163.814,247.899,163.814,247.899z"/>
		<path style="fill:#FFFFFF;" d="M219.544,299.264c-4.216,3.187-11.259,0.975-15.731-4.941c-4.472-5.916-4.679-13.295-0.463-16.482
			c4.216-3.187,11.259-0.975,15.731,4.941C223.553,288.698,223.761,296.077,219.544,299.264z"/>
		<path style="fill:#FFFFFF;" d="M227.829,315.94c-2.364,0.972-5.387-0.928-6.751-4.246c-1.364-3.317-0.554-6.794,1.811-7.767
			c2.364-0.972,5.387,0.928,6.751,4.246C231.003,311.49,230.193,314.967,227.829,315.94z"/>
		<g>
			<path style="fill:#92E3A9;stroke:#263238;stroke-linecap:round;stroke-linejoin:round;stroke-miterlimit:10;" d="M69.564,272.035
				c-4.047,8.809-6.713,19.512-7.821,32.14c-3.524,40.173,11.277,63.431,24.668,79.994c6.696,8.281,14.36,14.536,21.232,18.721"/>
			<path style="fill:#92E3A9;stroke:#263238;stroke-linecap:round;stroke-linejoin:round;stroke-miterlimit:10;" d="
				M105.029,242.399c-11.015,2.469-20.281,7.992-27.418,16.635"/>
		</g>
		<path style="fill:none;stroke:#263238;stroke-linecap:round;stroke-linejoin:round;stroke-miterlimit:10;" d="M146.473,249.784
			c0,0,9.04,9.633,30.534,8.67"/>
		<path style="fill:#263238;stroke:#263238;stroke-linecap:round;stroke-linejoin:round;stroke-miterlimit:10;" d="M159.87,256.385
			c0,0,6.441-20.461,13.451-30.312c7.01-9.851,17.24-16.672,24.439-19.703s8.146-3.789,9.473-3.41
			c1.326,0.379,4.736,9.283,4.357,11.556c-0.379,2.273-7.578,0.568-19.513,5.305c-11.935,4.736-21.029,18.377-23.681,24.439
			c-2.652,6.062-4.736,13.072-4.736,13.072L159.87,256.385z"/>
		<path style="fill:#263238;stroke:#263238;stroke-linecap:round;stroke-linejoin:round;stroke-miterlimit:10;" d="M152.57,305.137
			c-0.875,0.27-1.721,0.574-2.531,0.91c-6.812,2.823-13.316,8.066-16.648,14.73c-6.65,13.3-0.289,17.348,6.939,18.215
			s17.637-6.939,23.419-6.939c5.783,0,8.674,11.565,17.059,12.143c8.385,0.578,14.167-8.963,10.119-23.998
			C186.77,304.758,166.177,300.93,152.57,305.137z"/>
		<path style="fill:#FFFFFF;stroke:#263238;stroke-linecap:round;stroke-linejoin:round;stroke-miterlimit:10;" d="M192.204,330.876
			c0.17-3.12-0.208-6.705-1.277-10.678c-4.157-15.44-24.75-19.268-38.357-15.061c-0.875,0.27-1.721,0.574-2.531,0.91
			c-6.812,2.823-13.316,8.066-16.648,14.73c-0.577,1.153-1.049,2.232-1.438,3.25l8.22,5.303l-0.347-11.462l7.12,3.3l1.389-9.725
			l7.989,2.431l5.036-9.378l5.557,5.036l6.252-3.3l2.084,8.51l6.078-0.521l-1.563,7.989h6.599l-2.952,9.725L192.204,330.876z"/>
	</g>
</g>
<g id="Character">
	<g>
		
			<line style="fill:none;stroke:#263238;stroke-linecap:round;stroke-linejoin:round;stroke-miterlimit:10;" x1="351.001" y1="263.405" x2="360.538" y2="268.454"/>
		
			<line style="fill:none;stroke:#263238;stroke-linecap:round;stroke-linejoin:round;stroke-miterlimit:10;" x1="371.757" y1="246.015" x2="376.806" y2="254.991"/>
		
			<line style="fill:none;stroke:#263238;stroke-linecap:round;stroke-linejoin:round;stroke-miterlimit:10;" x1="400.927" y1="239.844" x2="400.927" y2="248.82"/>
		
			<line style="fill:none;stroke:#263238;stroke-linecap:round;stroke-linejoin:round;stroke-miterlimit:10;" x1="429.537" y1="251.064" x2="422.805" y2="259.479"/>
		
			<line style="fill:none;stroke:#263238;stroke-linecap:round;stroke-linejoin:round;stroke-miterlimit:10;" x1="433.464" y1="279.674" x2="444.122" y2="279.113"/>
	</g>
	<g>
		<g>
			<path style="fill:#FFFFFF;stroke:#263238;stroke-linecap:round;stroke-linejoin:round;stroke-miterlimit:10;" d="
				M394.241,377.161c0,0-0.006,13.336,3.094,21.345c3.1,8.009,21.186,48.832,21.186,48.832s2.325,5.942,5.943,6.976
				c3.617,1.034,9.56,1.034,9.56,1.034s4.651,1.034,6.718,1.034c2.067,0,4.651-0.775,3.876-1.55
				c-0.775-0.775-4.651-5.426-7.493-6.459c-2.842-1.033-12.402-5.167-12.402-5.167s-6.201-26.095-8.526-34.88
				s-5.167-18.344-5.167-18.344l-1.027-17.807L394.241,377.161z"/>
			<path style="fill:none;stroke:#263238;stroke-linecap:round;stroke-linejoin:round;stroke-miterlimit:10;" d="M430.406,450.698
				c0,0,4.651-0.517,6.201,0.258c1.55,0.775,8.01,3.875,8.01,3.875"/>
		</g>
		<path style="fill:#263238;stroke:#263238;stroke-linecap:round;stroke-linejoin:round;stroke-miterlimit:10;" d="M400.026,263.644
			c0,0-5.985-5.586-10.175-4.788c-4.19,0.798-24.14,13.766-23.541,17.357c0.599,3.591,1.796,3.99,1.796,3.99
			s-4.589,2.993-2.394,5.187c2.194,2.194,4.788,3.591,4.788,3.591s6.584-8.978,9.377-9.377c2.793-0.399,7.781,0.399,7.781,0.399
			l11.172,24.339c0,0-7.98,12.768-7.182,14.165c0.798,1.397,12.17,11.771,12.17,14.364c0,2.594-0.199,37.706-0.199,37.706
			s9.576,2.394,15.362-1.397c5.786-3.791,5.786-9.377,4.788-12.369c-0.997-2.993-8.778-6.783-5.985-12.17
			c2.793-5.387,7.182-2.195,5.387-12.768c-1.795-10.574-9.177-16.359-7.98-19.95c1.197-3.591,12.17-3.99,11.97-17.955
			c-0.199-13.965-9.975-28.329-15.96-29.925C405.213,262.447,400.026,263.644,400.026,263.644z"/>
		<g>
			<path style="fill:#263238;stroke:#263238;stroke-linecap:round;stroke-linejoin:round;stroke-miterlimit:10;" d="
				M317.232,390.129c0,0-8.26,7.344-12.136,19.487c-3.876,12.143,5.426,22.22,9.56,24.287c4.134,2.067,11.368,5.426,11.368,5.426
				s-27.129,0.517-31.004,0c-3.875-0.517-11.546-5.864-13.435-6.976c-4.392-2.584-6.718,1.033-8.01,2.325
				c-1.292,1.292-11.11,10.593-13.694,16.794c-2.584,6.201-5.942,12.143-2.584,12.66c3.359,0.517,14.727-9.56,20.928-11.11
				c6.201-1.55,22.737,0.517,34.105,1.809c11.368,1.292,32.813,6.976,50.382,6.718c17.569-0.258,26.354-1.034,30.229-2.842
				c3.875-1.809,5.167-2.842,5.167-2.842s19.895,2.325,24.028,0.517c4.134-1.809,8.526-10.593,6.718-14.727
				c-1.809-4.134-10.335-12.66-27.646-23.253c-17.311-10.593-25.723-13.708-25.723-13.708s-19.233-1.536-32.669-6.961
				c-13.435-5.426-21.186-8.784-21.186-8.784L317.232,390.129z"/>
			<path style="fill:none;stroke:#FFFFFF;stroke-linecap:round;stroke-linejoin:round;stroke-miterlimit:10;" d="M399.636,447.481
				c1.09,3.213,0.509,5.962-1.526,8.384"/>
			<path style="fill:none;stroke:#FFFFFF;stroke-linecap:round;stroke-linejoin:round;stroke-miterlimit:10;" d="M334.034,406.258
				c0,0,25.837,6.976,45.215,20.67c10.227,7.227,16.423,13.086,19.198,17.958"/>
			<path style="fill:none;stroke:#FFFFFF;stroke-linecap:round;stroke-linejoin:round;stroke-miterlimit:10;" d="M370.434,452.286
				c2.614,0.41,5.069,0.672,7.265,0.737"/>
			<path style="fill:none;stroke:#FFFFFF;stroke-linecap:round;stroke-linejoin:round;stroke-miterlimit:10;" d="M326.025,439.329
				c0,0,21.081,8.145,38.633,11.879"/>
			
				<line style="fill:none;stroke:#FFFFFF;stroke-linecap:round;stroke-linejoin:round;stroke-miterlimit:10;" x1="364.522" y1="417.109" x2="370.464" y2="411.942"/>
			<path style="fill:#FFFFFF;stroke:#263238;stroke-linecap:round;stroke-linejoin:round;stroke-miterlimit:10;" d="M296.054,448.63
				c0.75-4,2.95-7.023,5.023-9.087c-2.882-0.027-5.133-0.091-6.056-0.214c-3.875-0.517-11.546-5.864-13.435-6.976
				c-4.392-2.584-6.718,1.033-8.01,2.325c-1.292,1.292-11.11,10.593-13.694,16.794c-2.584,6.201-5.942,12.143-2.584,12.66
				c3.359,0.517,14.727-9.56,20.928-11.11c3.516-0.879,10.355-0.595,17.691,0.052C295.741,451.746,295.747,450.267,296.054,448.63z"
				/>
			<path style="fill:#FFFFFF;stroke:#263238;stroke-linecap:round;stroke-linejoin:round;stroke-miterlimit:10;" d="
				M257.298,464.133c3.359,0.517,14.727-9.56,20.928-11.11c0.208-0.052,0.43-0.099,0.66-0.143c0.075-0.014,0.156-0.026,0.234-0.04
				c0.16-0.028,0.322-0.055,0.492-0.08c0.098-0.014,0.2-0.027,0.301-0.04c0.001,0,0.002,0,0.002,0
				c-0.16-1.285-0.537-3.116-1.431-4.606c-1.55-2.584-3.1-3.359-3.1-3.359s6.706-6.528,10.783-9.523
				c-2.057-1.255-3.808-2.423-4.582-2.879c-4.392-2.584-6.718,1.033-8.01,2.325c-1.292,1.292-11.11,10.593-13.694,16.794
				C257.298,457.673,253.939,463.616,257.298,464.133z"/>
		</g>
		<g>
			<path style="fill:#FFFFFF;stroke:#263238;stroke-linecap:round;stroke-linejoin:round;stroke-miterlimit:10;" d="
				M368.505,312.123c0,0-22.145,1.796-25.137,4.788c-2.993,2.993-32.719,29.327-35.711,33.916
				c-2.992,4.589-7.382,16.359-1.396,17.357c5.985,0.997,38.305-26.933,38.305-26.933s-1.995,22.145-3.192,24.339
				c-1.197,2.195-23.342,23.342-24.14,24.539c-0.798,1.197,20.948,13.766,38.305,15.561c17.357,1.796,19.95-0.997,19.95-0.997
				s0.998-9.776,2.195-13.367c1.197-3.591,6.584-14.165,6.584-14.165l9.377-9.377l0.599,9.377l15.761-4.988
				c0,0,0.997-27.332,1.197-33.516s-1.995-10.773-6.584-15.162c-4.589-4.389-11.172-8.379-11.172-8.379L368.505,312.123z"/>
			
				<line style="fill:none;stroke:#263238;stroke-linecap:round;stroke-linejoin:round;stroke-miterlimit:10;" x1="358.665" y1="371.659" x2="374.29" y2="367.386"/>
			
				<line style="fill:none;stroke:#263238;stroke-linecap:round;stroke-linejoin:round;stroke-miterlimit:10;" x1="350.948" y1="373.77" x2="355.285" y2="372.584"/>
			
				<line style="fill:none;stroke:#263238;stroke-linecap:round;stroke-linejoin:round;stroke-miterlimit:10;" x1="367.308" y1="372.373" x2="376.485" y2="369.979"/>
			<path style="fill:none;stroke:#263238;stroke-linecap:round;stroke-linejoin:round;stroke-miterlimit:10;" d="M393.642,367.785
				c0,0,1.995-1.197,2.793-5.586c0.798-4.389,2.793-16.559,2.793-16.559"/>
			<polyline style="fill:none;stroke:#263238;stroke-linecap:round;stroke-linejoin:round;stroke-miterlimit:10;" points="
				350.948,336.862 344.564,341.251 352.544,340.652 			"/>
			<path style="fill:#FFFFFF;stroke:#263238;stroke-linecap:round;stroke-linejoin:round;stroke-miterlimit:10;" d="M306.26,368.184
				c3.69,0.615,17.385-9.763,27.349-17.815l-9.573-15.737c-7.664,7.081-14.973,14.039-16.38,16.195
				C304.664,355.416,300.275,367.186,306.26,368.184z"/>
		</g>
		<path style="fill:#FFFFFF;stroke:#263238;stroke-linecap:round;stroke-linejoin:round;stroke-miterlimit:10;" d="M374.49,319.106
			c0,0,5.387,19.551,6.783,18.554c1.397-0.998,15.96-24.738,15.96-24.738s-8.978,3.591-12.968,4.788
			C380.275,318.907,374.49,319.106,374.49,319.106z"/>
		<path style="fill:#263238;stroke:#263238;stroke-linecap:round;stroke-linejoin:round;stroke-miterlimit:10;" d="M384.754,317.557
			c-0.165,0.052-0.337,0.107-0.488,0.152c-3.99,1.197-9.776,1.397-9.776,1.397s1.468,5.328,3.07,10.28l14.087-10.878
			L384.754,317.557z"/>
		<g>
			<path style="fill:#FFFFFF;stroke:#263238;stroke-linecap:round;stroke-linejoin:round;stroke-miterlimit:10;" d="M388.654,273.42
				c0,0-14.963,4.988-15.96,6.584c-0.997,1.596-7.182,20.948-7.581,25.536c-0.399,4.589,2.992,12.569,6.783,14.165
				c3.79,1.596,10.574,1.596,15.561,0.599c4.988-0.997,11.372-6.983,11.372-6.983s7.382-1.197,9.177-3.192
				c1.795-1.995,3.99-5.985,1.596-7.182c-2.394-1.197-6.983,0.599-6.983,0.599s-3.392-4.988-4.988-11.97
				C396.036,284.592,390.45,274.218,388.654,273.42z"/>
			<path style="fill:none;stroke:#263238;stroke-linecap:round;stroke-linejoin:round;stroke-miterlimit:10;" d="M382.071,286.188
				c0,0-2.793,5.387-4.589,7.581c-1.796,2.195-5.387,1.995-3.99,3.392c1.396,1.396,5.387,1.995,5.387,1.995"/>
			<path style="fill:#263238;stroke:#263238;stroke-linecap:round;stroke-linejoin:round;stroke-miterlimit:10;" d="M375.137,301.45
				c0,0-4.973,0.188-6.21,3.708c-1.238,3.52,2.16,2.248,3.907,1.91c1.747-0.338,3.385,1.145,4.232,2.69
				c0.847,1.545,3.021,1.375,3.271-2.068C380.587,304.246,377.375,301.677,375.137,301.45z"/>
			<path style="fill:none;stroke:#263238;stroke-linecap:round;stroke-linejoin:round;stroke-miterlimit:10;" d="M373.891,284.592
				c0,0,3.591-2.394,6.185-1.197"/>
			<path style="fill:none;stroke:#263238;stroke-linecap:round;stroke-linejoin:round;stroke-miterlimit:10;" d="M389.054,285.39
				c0,0,2.394,0.399,4.589,4.589"/>
			<path style="fill:#263238;" d="M376.654,290.245c-0.246,1.074-0.967,1.825-1.612,1.678c-0.645-0.147-0.968-1.138-0.722-2.212
				c0.246-1.074,0.967-1.825,1.612-1.678C376.576,288.181,376.9,289.171,376.654,290.245z"/>
			<path style="fill:#263238;" d="M387.427,293.437c-0.246,1.074-0.967,1.825-1.612,1.678c-0.645-0.147-0.968-1.138-0.722-2.212
				c0.246-1.074,0.967-1.826,1.612-1.678C387.35,291.373,387.673,292.363,387.427,293.437z"/>
		</g>
		<g>
			<path style="fill:#FFFFFF;stroke:#263238;stroke-linecap:round;stroke-linejoin:round;stroke-miterlimit:10;" d="
				M321.821,352.224l15.362-42.095l4.589-1.596c0,0,2.194-0.599,4.988-1.796c2.793-1.197,4.389-3.192,5.586-3.591
				c1.197-0.399,4.788-0.599,6.983-3.591c2.194-2.992-1.397-2.793-3.392-1.796c-1.995,0.998-5.985,2.195-6.783,0.998
				c-0.798-1.197,1.596-4.19,2.594-4.589c0.998-0.399,4.788,1.995,6.384,0.399c1.596-1.596-2.992-7.182-2.992-7.182l-2.992,0.399
				c0,0-3.192-2.594-4.988-1.596c-1.796,0.997-6.584,4.988-7.98,6.783c-1.397,1.796-8.18,14.564-8.18,14.564
				s-17.357,26.733-23.741,36.509c-6.384,9.776-5.985,14.165-5.187,18.354c0.798,4.19,4.389,6.185,6.185,5.586
				c1.796-0.599,5.586-3.99,5.586-3.99"/>
			<path style="fill:#FFFFFF;stroke:#263238;stroke-linecap:round;stroke-linejoin:round;stroke-miterlimit:10;" d="
				M352.146,287.784c0,0,4.788,5.187,3.99,6.185c-0.798,0.998-4.19-0.199-5.187-2.394c-0.997-2.194-2.594-1.596-2.594-1.596"/>
			<path style="fill:#FFFFFF;stroke:#263238;stroke-linecap:round;stroke-linejoin:round;stroke-miterlimit:10;" d="
				M341.872,289.195c0,0,4.838-2.923,6.047-2.318c1.21,0.605,6.954,7.257,6.652,8.164c-0.302,0.907-0.504,1.109-2.116,0.403
				c-1.613-0.706-5.14-3.628-5.14-3.628l-1.814,2.621"/>
			<path style="fill:#FFFFFF;stroke:#263238;stroke-linecap:round;stroke-linejoin:round;stroke-miterlimit:10;" d="
				M334.589,301.749c0,0,5.187-12.569,6.185-13.167c0.997-0.598,6.783,0.599,9.177,0.798c2.394,0.199,2.993,1.397,0.997,2.194
				c-1.995,0.798-6.983,0.2-6.983,0.2s-0.798,3.392-0.798,6.185c0,2.793-4.589,6.185-4.589,6.185"/>
		</g>
	</g>
</g>
</svg>
