<?xml version="1.0" encoding="utf-8"?>
<!-- Generator: Adobe Illustrator 27.5.0, SVG Export Plug-In . SVG Version: 6.00 Build 0)  -->
<svg version="1.1" xmlns="http://www.w3.org/2000/svg" xmlns:xlink="http://www.w3.org/1999/xlink" x="0px" y="0px"
	 viewBox="0 0 500 500" style="enable-background:new 0 0 500 500;" xml:space="preserve">
<g id="Floor">
	
		<line style="fill:none;stroke:#263238;stroke-width:2.5;stroke-linecap:round;stroke-linejoin:round;stroke-miterlimit:10;" x1="59.84" y1="476.798" x2="440.16" y2="476.798"/>
</g>
<g id="Plant">
	<g>
		<g>
			<g>
				<g>
					
						<path style="fill:#9ABAE3;stroke:#263238;stroke-width:2.5;stroke-linecap:round;stroke-linejoin:round;stroke-miterlimit:10;" d="
						M75.674,309.326c3.352-0.924,14.404,23.381,7.006,25.42C75.281,336.785,72.259,310.267,75.674,309.326z"/>
					
						<path style="fill:#9ABAE3;stroke:#263238;stroke-width:2.5;stroke-linecap:round;stroke-linejoin:round;stroke-miterlimit:10;" d="
						M64.57,392.987c2.446-2.47,24.137,13.099,18.737,18.552C77.908,416.992,62.078,395.503,64.57,392.987z"/>
					
						<path style="fill:#9ABAE3;stroke:#263238;stroke-width:2.5;stroke-linecap:round;stroke-linejoin:round;stroke-miterlimit:10;" d="
						M122.949,329.937c3.475,0.099,6.923,26.575-0.748,26.357C114.53,356.076,119.409,329.836,122.949,329.937z"/>
					
						<path style="fill:none;stroke:#263238;stroke-width:2.5;stroke-linecap:round;stroke-linejoin:round;stroke-miterlimit:10;" d="
						M78.982,322.074c0,0,34.309,142.188,111.137,154.724"/>
					
						<path style="fill:none;stroke:#263238;stroke-width:2.5;stroke-linecap:round;stroke-linejoin:round;stroke-miterlimit:10;" d="
						M72.165,400.823c0,0,31.606,38.591,77.51,55.613"/>
					
						<path style="fill:none;stroke:#263238;stroke-width:2.5;stroke-linecap:round;stroke-linejoin:round;stroke-miterlimit:10;" d="
						M122.27,343.141c0,0,1.872,53.133-1.721,77.533"/>
					<g>
						
							<path style="fill:#9ABAE3;stroke:#263238;stroke-width:2.5;stroke-linecap:round;stroke-linejoin:round;stroke-miterlimit:10;" d="
							M66.959,341.405c2.374-2.54,24.502,12.402,19.261,18.008C80.979,365.018,64.54,343.992,66.959,341.405z"/>
						
							<line style="fill:none;stroke:#263238;stroke-width:2.5;stroke-linecap:round;stroke-linejoin:round;stroke-miterlimit:10;" x1="73.32" y1="347.661" x2="86.22" y2="359.412"/>
					</g>
					<g>
						
							<path style="fill:#9ABAE3;stroke:#263238;stroke-width:2.5;stroke-linecap:round;stroke-linejoin:round;stroke-miterlimit:10;" d="
							M98.491,356.604c3.471-0.192,9.119,25.904,1.456,26.328C92.285,383.355,94.954,356.799,98.491,356.604z"/>
						
							<line style="fill:none;stroke:#263238;stroke-width:2.5;stroke-linecap:round;stroke-linejoin:round;stroke-miterlimit:10;" x1="98.767" y1="363.682" x2="99.947" y2="382.931"/>
					</g>
					<g>
						
							<path style="fill:#9ABAE3;stroke:#263238;stroke-width:2.5;stroke-linecap:round;stroke-linejoin:round;stroke-miterlimit:10;" d="
							M107.608,360.239c2.986-1.78,20.092,18.721,13.5,22.65C114.515,386.817,104.565,362.052,107.608,360.239z"/>
						
							<line style="fill:none;stroke:#263238;stroke-width:2.5;stroke-linecap:round;stroke-linejoin:round;stroke-miterlimit:10;" x1="111.833" y1="367.327" x2="121.107" y2="382.888"/>
					</g>
					<g>
						
							<path style="fill:#9ABAE3;stroke:#263238;stroke-width:2.5;stroke-linecap:round;stroke-linejoin:round;stroke-miterlimit:10;" d="
							M138.992,380.654c2.768,2.103-9.837,25.639-15.949,20.998C116.932,397.01,136.171,378.512,138.992,380.654z"/>
						
							<line style="fill:none;stroke:#263238;stroke-width:2.5;stroke-linecap:round;stroke-linejoin:round;stroke-miterlimit:10;" x1="134" y1="387.226" x2="123.043" y2="401.652"/>
					</g>
					<g>
						<g>
							
								<path style="fill:#9ABAE3;stroke:#263238;stroke-width:2.5;stroke-linecap:round;stroke-linejoin:round;stroke-miterlimit:10;" d="
								M85.315,390.372c1.882-2.923,26.323,7.826,22.168,14.277C103.327,411.101,83.397,393.35,85.315,390.372z"/>
						</g>
						
							<line style="fill:none;stroke:#263238;stroke-width:2.5;stroke-linecap:round;stroke-linejoin:round;stroke-miterlimit:10;" x1="92.591" y1="394.986" x2="107.483" y2="404.65"/>
					</g>
					<g>
						
							<path style="fill:#9ABAE3;stroke:#263238;stroke-width:2.5;stroke-linecap:round;stroke-linejoin:round;stroke-miterlimit:10;" d="
							M109.679,417.957c3.084-1.605,18.983,19.844,12.176,23.388C115.048,444.889,106.537,419.592,109.679,417.957z"/>
						
							<line style="fill:none;stroke:#263238;stroke-width:2.5;stroke-linecap:round;stroke-linejoin:round;stroke-miterlimit:10;" x1="113.291" y1="424.656" x2="121.837" y2="439.926"/>
					</g>
					<g>
						
							<path style="fill:#9ABAE3;stroke:#263238;stroke-width:2.5;stroke-linecap:round;stroke-linejoin:round;stroke-miterlimit:10;" d="
							M74.865,428.751c0.158-3.473,26.69-6.466,26.34,1.2C100.856,437.617,74.704,432.289,74.865,428.751z"/>
						
							<line style="fill:none;stroke:#263238;stroke-width:2.5;stroke-linecap:round;stroke-linejoin:round;stroke-miterlimit:10;" x1="82.119" y1="428.676" x2="101.206" y2="429.951"/>
					</g>
					<g>
						
							<path style="fill:#9ABAE3;stroke:#263238;stroke-width:2.5;stroke-linecap:round;stroke-linejoin:round;stroke-miterlimit:10;" d="
							M141.62,417.736c3.439,0.506,3.753,27.204-3.84,26.087C130.188,442.706,138.116,417.221,141.62,417.736z"/>
						
							<line style="fill:none;stroke:#263238;stroke-width:2.5;stroke-linecap:round;stroke-linejoin:round;stroke-miterlimit:10;" x1="140.589" y1="425.876" x2="137.781" y2="443.823"/>
					</g>
				</g>
			</g>
		</g>
		<g>
			<g>
				<g>
					
						<path style="fill:#9ABAE3;stroke:#263238;stroke-width:2.5;stroke-linecap:round;stroke-linejoin:round;stroke-miterlimit:10;" d="
						M400.884,309.326c-3.352-0.924-14.404,23.381-7.006,25.42C401.277,336.785,404.299,310.267,400.884,309.326z"/>
					
						<path style="fill:#9ABAE3;stroke:#263238;stroke-width:2.5;stroke-linecap:round;stroke-linejoin:round;stroke-miterlimit:10;" d="
						M411.988,392.987c-2.446-2.47-24.137,13.099-18.737,18.552C398.65,416.992,414.48,395.503,411.988,392.987z"/>
					
						<path style="fill:#9ABAE3;stroke:#263238;stroke-width:2.5;stroke-linecap:round;stroke-linejoin:round;stroke-miterlimit:10;" d="
						M353.609,329.937c-3.475,0.099-6.923,26.575,0.748,26.357C362.029,356.076,357.15,329.836,353.609,329.937z"/>
					
						<path style="fill:none;stroke:#263238;stroke-width:2.5;stroke-linecap:round;stroke-linejoin:round;stroke-miterlimit:10;" d="
						M397.576,322.074c0,0-34.309,142.188-111.137,154.724"/>
					
						<path style="fill:none;stroke:#263238;stroke-width:2.5;stroke-linecap:round;stroke-linejoin:round;stroke-miterlimit:10;" d="
						M404.393,400.823c0,0-31.606,38.591-77.509,55.613"/>
					
						<path style="fill:none;stroke:#263238;stroke-width:2.5;stroke-linecap:round;stroke-linejoin:round;stroke-miterlimit:10;" d="
						M354.288,343.141c0,0-1.872,53.133,1.721,77.533"/>
					<g>
						
							<path style="fill:#9ABAE3;stroke:#263238;stroke-width:2.5;stroke-linecap:round;stroke-linejoin:round;stroke-miterlimit:10;" d="
							M409.599,341.405c-2.374-2.54-24.502,12.402-19.261,18.008C395.579,365.018,412.018,343.992,409.599,341.405z"/>
						
							<line style="fill:none;stroke:#263238;stroke-width:2.5;stroke-linecap:round;stroke-linejoin:round;stroke-miterlimit:10;" x1="403.238" y1="347.661" x2="390.338" y2="359.412"/>
					</g>
					<g>
						
							<path style="fill:#9ABAE3;stroke:#263238;stroke-width:2.5;stroke-linecap:round;stroke-linejoin:round;stroke-miterlimit:10;" d="
							M378.067,356.604c-3.471-0.192-9.119,25.904-1.456,26.328C384.273,383.355,381.604,356.799,378.067,356.604z"/>
						
							<line style="fill:none;stroke:#263238;stroke-width:2.5;stroke-linecap:round;stroke-linejoin:round;stroke-miterlimit:10;" x1="377.791" y1="363.682" x2="376.611" y2="382.931"/>
					</g>
					<g>
						
							<path style="fill:#9ABAE3;stroke:#263238;stroke-width:2.5;stroke-linecap:round;stroke-linejoin:round;stroke-miterlimit:10;" d="
							M368.95,360.239c-2.986-1.78-20.092,18.721-13.5,22.65C362.043,386.817,371.993,362.052,368.95,360.239z"/>
						
							<line style="fill:none;stroke:#263238;stroke-width:2.5;stroke-linecap:round;stroke-linejoin:round;stroke-miterlimit:10;" x1="364.725" y1="367.327" x2="355.451" y2="382.888"/>
					</g>
					<g>
						
							<path style="fill:#9ABAE3;stroke:#263238;stroke-width:2.5;stroke-linecap:round;stroke-linejoin:round;stroke-miterlimit:10;" d="
							M337.566,380.654c-2.768,2.103,9.837,25.639,15.949,20.998C359.626,397.01,340.387,378.512,337.566,380.654z"/>
						
							<line style="fill:none;stroke:#263238;stroke-width:2.5;stroke-linecap:round;stroke-linejoin:round;stroke-miterlimit:10;" x1="342.558" y1="387.226" x2="353.515" y2="401.652"/>
					</g>
					<g>
						<g>
							
								<path style="fill:#9ABAE3;stroke:#263238;stroke-width:2.5;stroke-linecap:round;stroke-linejoin:round;stroke-miterlimit:10;" d="
								M391.243,390.372c-1.882-2.923-26.323,7.826-22.168,14.277C373.231,411.101,393.161,393.35,391.243,390.372z"/>
						</g>
						
							<line style="fill:none;stroke:#263238;stroke-width:2.5;stroke-linecap:round;stroke-linejoin:round;stroke-miterlimit:10;" x1="383.967" y1="394.986" x2="369.075" y2="404.65"/>
					</g>
					<g>
						
							<path style="fill:#9ABAE3;stroke:#263238;stroke-width:2.5;stroke-linecap:round;stroke-linejoin:round;stroke-miterlimit:10;" d="
							M366.879,417.957c-3.083-1.605-18.983,19.844-12.176,23.388C361.51,444.889,370.021,419.592,366.879,417.957z"/>
						
							<line style="fill:none;stroke:#263238;stroke-width:2.5;stroke-linecap:round;stroke-linejoin:round;stroke-miterlimit:10;" x1="363.267" y1="424.656" x2="354.721" y2="439.926"/>
					</g>
					<g>
						
							<path style="fill:#9ABAE3;stroke:#263238;stroke-width:2.5;stroke-linecap:round;stroke-linejoin:round;stroke-miterlimit:10;" d="
							M401.693,428.751c-0.158-3.473-26.69-6.466-26.341,1.2C375.702,437.617,401.854,432.289,401.693,428.751z"/>
						
							<line style="fill:none;stroke:#263238;stroke-width:2.5;stroke-linecap:round;stroke-linejoin:round;stroke-miterlimit:10;" x1="394.439" y1="428.676" x2="375.352" y2="429.951"/>
					</g>
					<g>
						
							<path style="fill:#9ABAE3;stroke:#263238;stroke-width:2.5;stroke-linecap:round;stroke-linejoin:round;stroke-miterlimit:10;" d="
							M334.938,417.736c-3.439,0.506-3.753,27.204,3.84,26.087C346.37,442.706,338.442,417.221,334.938,417.736z"/>
						
							<line style="fill:none;stroke:#263238;stroke-width:2.5;stroke-linecap:round;stroke-linejoin:round;stroke-miterlimit:10;" x1="335.969" y1="425.876" x2="338.777" y2="443.823"/>
					</g>
				</g>
			</g>
		</g>
	</g>
</g>
<g id="Character">
	<g>
		<g>
			<g>
				<g>
					<g>
						<polygon style="fill:#EC644E;" points="250.338,459.271 250.338,476.798 313.656,476.798 293.718,459.271 						"/>
						
							<polygon style="fill:none;stroke:#263238;stroke-width:2.5;stroke-linecap:round;stroke-linejoin:round;stroke-miterlimit:10;" points="
							250.338,459.271 250.338,476.798 313.656,476.798 293.718,459.271 						"/>
					</g>
					<g>
						
							<polygon style="fill:#FFFFFF;stroke:#263238;stroke-width:2.5;stroke-linecap:round;stroke-linejoin:round;stroke-miterlimit:10;" points="
							294.608,438.239 293.719,459.27 250.334,459.27 247.39,438.239 						"/>
						
							<line style="fill:none;stroke:#263238;stroke-width:2.5;stroke-linecap:round;stroke-linejoin:round;stroke-miterlimit:10;" x1="253.624" y1="444.263" x2="294.412" y2="444.263"/>
					</g>
					
						<line style="fill:none;stroke:#263238;stroke-width:2.5;stroke-linecap:round;stroke-linejoin:round;stroke-miterlimit:10;" x1="284.784" y1="464.205" x2="297.723" y2="460.277"/>
					
						<line style="fill:none;stroke:#263238;stroke-width:2.5;stroke-linecap:round;stroke-linejoin:round;stroke-miterlimit:10;" x1="288.138" y1="466.978" x2="301.078" y2="463.05"/>
				</g>
				<g>
					<path style="fill:#263238;" d="M235.547,236.955h56.934c4.536,26.829,11.044,102.664,10.387,110.333
						c-0.527,6.15,1.12,76.945,2.401,97.936c0.316,5.181-4.598,10.134-4.598,10.134s4.445-6.848-35.065-0.157
						c-7.478,1.266-21.297,1.506-22.886-5.151c-0.758-3.175,1.513-10.819,1.513-10.819c-0.78-14.754,0.517-42.403-0.152-59.132
						c-0.876-21.909,4.197-32.176,4.197-32.176c-1.877-10.561-2.841-36.927-6.12-60.834L235.547,236.955z"/>
					
						<path style="fill:none;stroke:#263238;stroke-width:2.5;stroke-linecap:round;stroke-linejoin:round;stroke-miterlimit:10;" d="
						M235.547,236.955h56.934c4.536,26.829,11.044,102.664,10.387,110.333c-0.527,6.15,1.12,76.945,2.401,97.936
						c0.316,5.181-4.598,10.134-4.598,10.134s4.445-6.848-35.065-0.157c-7.478,1.266-21.297,1.506-22.886-5.151
						c-0.758-3.175,1.513-10.819,1.513-10.819c-0.78-14.754,0.517-42.403-0.152-59.132c-0.876-21.909,4.197-32.176,4.197-32.176
						c-1.877-10.561-2.841-36.927-6.12-60.834L235.547,236.955z"/>
					<path style="fill:#263238;" d="M292.959,451.483l-0.027,5.606c0,0,7.161,1.095,8.547-1.146
						C302.865,453.703,292.959,451.483,292.959,451.483z"/>
					
						<path style="fill:none;stroke:#FFFFFF;stroke-width:2.5;stroke-linecap:round;stroke-linejoin:round;stroke-miterlimit:10;" d="
						M276.922,244.891c0,0,1.337,19.521,13.696,15.738"/>
				</g>
			</g>
			<g>
				<g>
					<g>
						<polygon style="fill:#EC644E;" points="211.407,459.271 211.407,476.798 148.089,476.798 168.026,459.271 						"/>
						
							<polygon style="fill:none;stroke:#263238;stroke-width:2.5;stroke-linecap:round;stroke-linejoin:round;stroke-miterlimit:10;" points="
							211.407,459.271 211.407,476.798 148.089,476.798 168.026,459.271 						"/>
					</g>
					<g>
						
							<polygon style="fill:#FFFFFF;stroke:#263238;stroke-width:2.5;stroke-linecap:round;stroke-linejoin:round;stroke-miterlimit:10;" points="
							171.388,438.239 168.026,459.27 211.411,459.27 217.55,438.239 						"/>
						
							<line style="fill:none;stroke:#263238;stroke-width:2.5;stroke-linecap:round;stroke-linejoin:round;stroke-miterlimit:10;" x1="209.367" y1="444.263" x2="170.491" y2="444.263"/>
					</g>
					
						<line style="fill:none;stroke:#263238;stroke-width:2.5;stroke-linecap:round;stroke-linejoin:round;stroke-miterlimit:10;" x1="176.961" y1="464.205" x2="164.022" y2="460.277"/>
					
						<line style="fill:none;stroke:#263238;stroke-width:2.5;stroke-linecap:round;stroke-linejoin:round;stroke-miterlimit:10;" x1="173.606" y1="466.978" x2="160.667" y2="463.05"/>
				</g>
				<g>
					
						<path style="fill:#263238;stroke:#263238;stroke-width:2.5;stroke-linecap:round;stroke-linejoin:round;stroke-miterlimit:10;" d="
						M260.289,276.948c-4.085,1.816-10.165,3.972-10.663,7.076c-5.134,31.981-10.918,62.407-10.918,62.407s-1.149,12.364-1.61,22.06
						c-0.968,20.377-12.147,51.285-15.547,69.691c0,0,1.28,11.396-1.171,14.417c-3.019,3.722-4.843,1.541-18.143,0.43
						c-40.719-3.399-39.699,0.617-39.699,0.617s-8.094-4.747-5.79-13.898c8.19-32.526,18.755-81.545,20.213-92.239
						c0.693-5.083,22.943-110.555,22.943-110.555h56.296"/>
					<path style="fill:#263238;" d="M170.775,451.409l-0.6,4.206c0,0-7.42,0.685-8.598-1.556
						C160.399,451.818,170.775,451.409,170.775,451.409z"/>
					
						<path style="fill:none;stroke:#FFFFFF;stroke-width:2.5;stroke-linecap:round;stroke-linejoin:round;stroke-miterlimit:10;" d="
						M225.395,244.891c0,0-2.03,19.521-20.793,15.738"/>
					
						<path style="fill:none;stroke:#FFFFFF;stroke-width:2.5;stroke-linecap:round;stroke-linejoin:round;stroke-miterlimit:10;" d="
						M261.603,242.147c0,0,0.855,24.664-0.684,27.085c-1.539,2.421-8.045,3.783-8.65,3.329c-0.605-0.454,0-30.414,0-30.414"/>
				</g>
			</g>
		</g>
		<g>
			<g>
				<g>
					
						<path style="fill:#FFFFFF;stroke:#263238;stroke-width:2.5;stroke-linecap:round;stroke-linejoin:round;stroke-miterlimit:10;" d="
						M215.442,142.982c-9.021,9.47-15.408,37.421-18.197,61.118c0,0-6.706,15.035-5.913,25.781c0.435,5.895,1.884,8.366,4.307,9.539
						c0,0,90.601,2.51,96.615-0.502c3.827-1.917,10.296-4.455,6.132-20.835c-1.62-6.375-3.01-18.867-5.814-32.515
						c-2.043-9.939-3.455-26.561-11.845-40.714c-1.917-3.234-7.973-12.158-30.801-10.988
						C234.8,134.642,226.677,131.188,215.442,142.982z"/>
					
						<path style="fill:none;stroke:#263238;stroke-width:2.5;stroke-linecap:round;stroke-linejoin:round;stroke-miterlimit:10;" d="
						M203.518,233.145c0,0,10.386,6.195,22.129,6.863c11.743,0.668,23.139-5.545,23.139-5.545"/>
					
						<path style="fill:none;stroke:#263238;stroke-width:2.5;stroke-linecap:round;stroke-linejoin:round;stroke-miterlimit:10;" d="
						M275.682,240.057c4.596-0.7,12.766-6.913,12.766-6.913"/>
				</g>
				<g>
					
						<path style="fill:#EC644E;stroke:#263238;stroke-width:2.5;stroke-linecap:round;stroke-linejoin:round;stroke-miterlimit:10;" d="
						M232.274,133.044c0,0,7.789,30.804,23.099,52.423c0,0-3.543,108.117-4.81,116.912c-5.063,35.167-11.004,43.441-11.004,43.441
						s-43.091-2.39-65.864,10.605c-2.843,1.622-1.211,3.48-1.211,3.48s-6.355-0.908-4.993-7.565
						c1.362-6.658,24.998-141.33,27.305-149.042c2.307-7.712,7.948-46.214,16.609-57.03
						C221.357,133.84,232.274,133.044,232.274,133.044z"/>
				</g>
				<g>
					<g>
						<path style="fill:#EC644E;" d="M263.317,133.044c1.259,40.599-7.944,52.423-7.944,52.423
							c-0.181,10.105-4.523,108.031-4.81,116.912c-0.469,14.526,10.618,43.441,10.618,43.441s27.266,1.6,49.072,10.605
							c3.026,1.249,1.211,3.48,1.211,3.48s6.355-0.908,4.993-7.565c-1.362-6.658-17.326-138.179-19.114-149.042
							c-1.308-7.943-7.152-44.468-14.585-58.661C276.735,133.136,263.317,133.044,263.317,133.044z"/>
						<path style="fill:#FFFFFF;" d="M311.46,359.9c0,0,1.82-2.23-1.21-3.48c-0.33-0.14-0.66-0.27-1-0.4
							c0.34-1.02,0.44-2.29,0.13-3.88c-1.34-6.83-17.11-141.8-18.88-152.95c-1.29-8.15-7.07-45.64-14.41-60.2
							c-0.52-1.04-1.1-1.99-1.73-2.85c3.1,1.7,6.23,4.36,8.4,8.5c7.43,14.19,13.28,50.71,14.58,58.66
							c1.79,10.86,17.76,142.38,19.12,149.04C317.82,359,311.46,359.9,311.46,359.9z"/>
						
							<path style="fill:none;stroke:#263238;stroke-width:2.5;stroke-linecap:round;stroke-linejoin:round;stroke-miterlimit:10;" d="
							M263.317,133.044c1.259,40.599-7.944,52.423-7.944,52.423c-0.181,10.105-4.523,108.031-4.81,116.912
							c-0.469,14.526,10.618,43.441,10.618,43.441s27.266,1.6,49.072,10.605c3.026,1.249,1.211,3.48,1.211,3.48
							s6.355-0.908,4.993-7.565c-1.362-6.658-17.326-138.179-19.114-149.042c-1.308-7.943-7.152-44.468-14.585-58.661
							C276.735,133.136,263.317,133.044,263.317,133.044z"/>
					</g>
					<path style="fill:#263238;" d="M311.841,360.913c-2.507,1.35-8.991,2.12-8.991,2.12v-9.094c0,0,4.868,2.095,7.478,2.889
						C312.938,357.621,313.316,360.118,311.841,360.913z"/>
				</g>
				<path style="fill:none;stroke:#263238;stroke-width:2.5;stroke-linecap:round;stroke-linejoin:round;stroke-miterlimit:10;" d="
					M196.111,197.701c0,0,44.479-10.786,100.089-1.248"/>
				<path style="fill:none;stroke:#263238;stroke-width:2.5;stroke-linecap:round;stroke-linejoin:round;stroke-miterlimit:10;" d="
					M185.542,351.415c0,0-0.504-24.115,15.901-103.925"/>
				<path style="fill:none;stroke:#263238;stroke-width:2.5;stroke-linecap:round;stroke-linejoin:round;stroke-miterlimit:10;" d="
					M214.08,225.543c0,0-15.297,75.154-13.523,84.909"/>
				<path style="fill:none;stroke:#263238;stroke-width:2.5;stroke-linecap:round;stroke-linejoin:round;stroke-miterlimit:10;" d="
					M275.682,253.003c0,0,11.628,89.029,6.383,95.519"/>
				<path style="fill:none;stroke:#263238;stroke-width:2.5;stroke-linecap:round;stroke-linejoin:round;stroke-miterlimit:10;" d="
					M288.447,274.43c0,0,6.551,50.431,5.664,59.521"/>
			</g>
			<g>
				<g>
					<g>
						
							<path style="fill:#FCD8C3;stroke:#263238;stroke-width:2.5;stroke-linecap:round;stroke-linejoin:round;stroke-miterlimit:10;" d="
							M322.755,161.697c0,0,16.026-4.625,19.79-9.572c10.609-13.944,27.33-48.4,27.684-48.817c4.7-5.53,18.617-12.246,15.018-16.778
							c-2.514-3.166-12.823,2.851-12.823,2.851s13.446-11.912,9.823-15.741c-2.94-3.107-17.548,7.509-17.548,7.509
							s12.193-11.86,8.948-14.885c-3.838-3.578-12.878,5.404-25.967,12.841c-3.001,1.705-18.693,24.195-29.983,37.203
							c-2.692,3.102-15.808,10.217-15.808,10.217L322.755,161.697z"/>
						
							<path style="fill:#FCD8C3;stroke:#263238;stroke-width:2.5;stroke-linecap:round;stroke-linejoin:round;stroke-miterlimit:10;" d="
							M341.979,86.303c0,0,3.19-7.544,3.988-10.254c0.742-2.519,1.44-6.462,1.834-8.033c0.917-3.66,5.712-3.853,7.149,3.346
							c0.749,3.749,0.143,3.618,0.732,8.802c0,0,5.933,4.601,5.44,12.113"/>
					</g>
					<g>
						<path style="fill:#263238;" d="M349.858,158.47c2.937-2.012-3.281-11.065-3.281-11.065l-9.063,8.999
							C337.514,156.404,345.86,161.21,349.858,158.47z"/>
						<path style="fill:#263238;" d="M319.088,115.265l3.129-4.573c0,0-2.801-3.785-3.667-2.183
							C317.684,110.111,319.088,115.265,319.088,115.265z"/>
						<path style="fill:#EC644E;" d="M293.495,190.273c0,0-0.45-5.43,3.901-9.54c4.441-4.195,16.252-1.07,22.846-1.452
							c5.569-0.323,14.116-2.904,22.168-8.551c3.753-2.632,6.962-12.871,6.962-12.871c-23.445,7.171-30.822-49.35-30.822-49.35
							c-9.993,5.066-20.774,17.655-25.508,20.175c-2.643,1.407-17.827-1.513-29.12,4.295"/>
						<path style="fill:#EC644E;" d="M293.495,190.273c0,0-0.45-5.43,3.901-9.54c4.441-4.195,16.252-1.07,22.846-1.452
							c5.569-0.323,14.116-2.904,22.168-8.551c3.753-2.632,6.962-12.871,6.962-12.871c-23.445,7.171-30.822-49.35-30.822-49.35
							c-9.993,5.066-20.774,17.655-25.508,20.175c-2.643,1.407-17.827-1.513-29.12,4.295"/>
						<path style="fill:#FFFFFF;" d="M320,116.89c-10.1,5.45-22.247,14.762-26.957,16.872c-2.88,1.28-16.233-4.712-28.603,0.228
							l-0.52-1.01c11.3-5.81,26.48-2.89,29.12-4.3c4.74-2.52,15.52-15.1,25.51-20.17C318.55,108.51,318.99,111.89,320,116.89z"/>
						
							<path style="fill:none;stroke:#263238;stroke-width:2.5;stroke-linecap:round;stroke-linejoin:round;stroke-miterlimit:10;" d="
							M293.495,190.273c0,0-0.45-5.43,3.901-9.54c4.441-4.195,16.252-1.07,22.846-1.452c5.569-0.323,14.116-2.904,22.168-8.551
							c3.753-2.632,6.962-12.871,6.962-12.871c-23.445,7.171-30.822-49.35-30.822-49.35c-9.993,5.066-20.774,17.655-25.508,20.175
							c-2.643,1.407-17.827-1.513-29.12,4.295"/>
						
							<path style="fill:none;stroke:#263238;stroke-width:2.5;stroke-linecap:round;stroke-linejoin:round;stroke-miterlimit:10;" d="
							M293.043,128.684c-3.919,3.747-2.233,12.892,0,16.882"/>
					</g>
				</g>
				<g>
					<g>
						<g>
							
								<path style="fill:#FFFFFF;stroke:#263238;stroke-width:2.5;stroke-linecap:round;stroke-linejoin:round;stroke-miterlimit:10;" d="
								M114.165,251.398c0,0-0.09-9.343,11.971-13.685l22.088,25.972l34.563,22.361c0,0-13.28,4.377-12.329,16.75l-28.221-31.723
								L114.165,251.398z"/>
							
								<path style="fill:#FFFFFF;stroke:#263238;stroke-width:2.5;stroke-linecap:round;stroke-linejoin:round;stroke-miterlimit:10;" d="
								M173.737,298.366c3.037-7.11,10.911-10.087,10.911-10.087c-5.349,14.612-14.19,14.517-14.19,14.517
								s-1.477-11.698,12.329-16.75l1.861,2.233"/>
							
								<path style="fill:none;stroke:#263238;stroke-width:2.5;stroke-linecap:round;stroke-linejoin:round;stroke-miterlimit:10;" d="
								M140.974,272.429c0,0,1.507-5.202,8.544-9.822"/>
							
								<path style="fill:none;stroke:#263238;stroke-width:2.5;stroke-linecap:round;stroke-linejoin:round;stroke-miterlimit:10;" d="
								M142.641,274.43c0,0,1.507-5.202,8.544-9.822"/>
						</g>
						<g>
							
								<path style="fill:#FCD8C3;stroke:#263238;stroke-width:2.5;stroke-linecap:round;stroke-linejoin:round;stroke-miterlimit:10;" d="
								M143.955,283.467c0,0-7.88-1.806-6.911-9.858c0,0-4.895-2.754-5.282-8.558c-0.699-10.494,9.119-21.937,15.244-28.338
								c0,0,18.892,3.907,28.982,22.294c0.061,0.111-1.007,11.701-6.13,18.093l-5.847-3.201c0,0-5.062,0.813-10.849,13.264
								C151.114,291.569,143.628,288.585,143.955,283.467z"/>
							
								<path style="fill:none;stroke:#263238;stroke-width:2.5;stroke-linecap:round;stroke-linejoin:round;stroke-miterlimit:10;" d="
								M143.982,284.469c-0.379-4.904,4.262-13.84,4.262-13.84"/>
							
								<path style="fill:none;stroke:#263238;stroke-width:2.5;stroke-linecap:round;stroke-linejoin:round;stroke-miterlimit:10;" d="
								M137.044,273.608c0-2.758,2.221-7.635,2.221-7.635"/>
						</g>
					</g>
					<g>
						<path style="fill:#EC644E;" d="M232.277,133.062c-10.004-0.313-27.196,3.279-39.641,19.066
							c-12.445,15.787-19.462,33.958-22.849,38.652c-2.157,2.99-18.314,24.155-26.016,36.202c-4.389,6.865-2.551,8.05-2.551,8.05
							c11.16,1.235,46.928,24.737,39.291,39.914c0,0,5.657,2.496,8.716-4.092c6.979-15.027,14.078-44.343,16.062-48.006
							c1.28-2.363,8.729-28.82,12.738-46.365"/>
						
							<path style="fill:none;stroke:#263238;stroke-width:2.5;stroke-linecap:round;stroke-linejoin:round;stroke-miterlimit:10;" d="
							M232.277,133.062c-10.004-0.313-27.196,3.279-39.641,19.066c-12.445,15.787-19.462,33.958-22.849,38.652
							c-2.157,2.99-18.314,24.155-26.016,36.202c-4.389,6.865-2.551,8.05-2.551,8.05c11.16,1.235,46.928,24.737,39.291,39.914
							c0,0,5.657,2.496,8.716-4.092c6.979-15.027,14.078-44.343,16.062-48.006c1.28-2.363,8.729-28.82,12.738-46.365"/>
						<path style="fill:#263238;" d="M181.295,275.548c-2.186,2.949-7.54-4.86-7.54-4.86l2.591-11.843
							C176.346,258.846,184.063,271.815,181.295,275.548z"/>
						<path style="fill:#263238;" d="M147.162,236.601l-2.76,4.342c0,0-5.335-4.372-4.466-6.007
							C140.804,233.302,147.162,236.601,147.162,236.601z"/>
					</g>
				</g>
				<g>
					<path style="fill:#9ABAE3;" d="M248.198,127.956c-16.494-0.026-20.446,3.579-23.921,7.76
						c-3.475,4.18-1.774,38.353-0.222,55.202c1.552,16.849-12.719,115.724-12.719,115.724l13.058,12.407l14.071-11.407
						c0,0,9.635-99.427,7.034-118.606c-2.6-19.179-12.873-50.687-9.954-53.777c2.919-3.09,18.435-2.277,21.377-0.573
						c5.193,3.008,11.693,42.266,11.693,51.133c0,8.868-2.358,116.978-2.358,116.978l13.887,11.126l11.602-10.662
						c0,0-3.095-103.362-3.634-117.329c-0.539-13.967-12.131-48.357-17.698-53.388C264.848,127.513,257.424,127.97,248.198,127.956z
						"/>
					<path style="fill:#9ABAE3;" d="M248.198,127.956c-16.494-0.026-20.446,3.579-23.921,7.76
						c-3.475,4.18-1.774,38.353-0.222,55.202c1.552,16.849-12.719,115.724-12.719,115.724l13.058,12.407l14.071-11.407
						c0,0,9.635-99.427,7.034-118.606c-2.6-19.179-12.873-50.687-9.954-53.777c2.919-3.09,18.435-2.277,21.377-0.573
						c5.193,3.008,11.693,42.266,11.693,51.133c0,8.868-2.358,116.978-2.358,116.978l13.887,11.126l11.602-10.662
						c0,0-3.095-103.362-3.634-117.329c-0.539-13.967-12.131-48.357-17.698-53.388C264.848,127.513,257.424,127.97,248.198,127.956z
						"/>
					<g>
						<path style="fill:#FFFFFF;" d="M235.55,135.26c-2.92,3.09,7.35,34.6,9.95,53.78c2.6,19.17-7.03,118.6-7.03,118.6l-6.2,5.03
							c1.65-18,9.52-106.08,7.07-124.1c-2.72-20.1-9.49-50.12-6.43-53.36c3.06-3.24,19.28-2.52,19.81-1.59
							C246.98,132.82,237.74,132.95,235.55,135.26z"/>
						<path style="fill:#FFFFFF;" d="M283.21,311.1l2.43-2.67c0,0-3.25-108.34-3.81-122.97c-0.57-14.64-10.72-50.69-16.55-55.96
							c-0.02-0.02-0.04-0.04-0.06-0.05c1.88,0.68,3.61,1.66,5.19,3.09c5.57,5.03,17.16,39.42,17.7,53.39
							c0.54,13.97,3.64,117.33,3.64,117.33L283.21,311.1z"/>
					</g>
					
						<path style="fill:none;stroke:#263238;stroke-width:2.5;stroke-linecap:round;stroke-linejoin:round;stroke-miterlimit:10;" d="
						M248.198,127.956c-16.494-0.026-20.446,3.579-23.921,7.76c-3.475,4.18-1.774,38.353-0.222,55.202
						c1.552,16.849-12.719,115.724-12.719,115.724l13.058,12.407l14.071-11.407c0,0,9.635-99.427,7.034-118.606
						c-2.6-19.179-12.873-50.687-9.954-53.777c2.919-3.09,18.435-2.277,21.377-0.573c5.193,3.008,11.693,42.266,11.693,51.133
						c0,8.868-2.358,116.978-2.358,116.978l13.887,11.126l11.602-10.662c0,0-3.095-103.362-3.634-117.329
						c-0.539-13.967-12.131-48.357-17.698-53.388C264.848,127.513,257.424,127.97,248.198,127.956z"/>
				</g>
				<polygon style="fill:#263238;" points="255.359,141.837 254.501,146.266 249.73,146.432 248.198,142.478 252.254,140.704 				
					"/>
				<polygon style="fill:#263238;" points="254.501,146.266 249.73,146.432 247.615,171.484 255.057,185.466 261.481,171.466 				
					"/>
				
					<polygon style="fill:#FFFFFF;stroke:#263238;stroke-width:2.5;stroke-linecap:round;stroke-linejoin:round;stroke-miterlimit:10;" points="
					241.773,133.308 241.913,146.361 251.924,141.7 260.937,144.989 256.386,133.304 				"/>
				<g>
					<path style="fill:#263238;" d="M253.606,135.548c0,0,3.574,5.278,0.558,5.921c-4.729,1.009-11.27-6.474-11.27-6.474
						L253.606,135.548z"/>
					<g>
						<g>
							
								<path style="fill:#FCD8C3;stroke:#263238;stroke-width:2.5;stroke-linecap:round;stroke-linejoin:round;stroke-miterlimit:10;" d="
								M237.276,125.078c-1.796-7.949,2.176-15.62,8.872-17.133c6.696-1.513,13.58,3.705,15.376,11.654
								c1.796,7.949-2.176,15.62-8.872,17.133C245.956,138.245,239.072,133.027,237.276,125.078z"/>
							<path style="fill:#FFFFFF;" d="M252.652,136.733c-1.869,0.421-3.758,0.319-5.54-0.228c0.904,0.047,1.815-0.028,2.727-0.231
								c6.346-1.438,10.111-8.708,8.411-16.246c-1.705-7.539-8.232-12.483-14.577-11.05c-0.16,0.038-0.324,0.075-0.479,0.123
								c0.908-0.525,1.899-0.92,2.956-1.157c6.693-1.511,13.579,3.706,15.375,11.655C263.321,127.55,259.35,135.218,252.652,136.733
								z"/>
							
								<path style="fill:none;stroke:#263238;stroke-width:2.5;stroke-linecap:round;stroke-linejoin:round;stroke-miterlimit:10;" d="
								M237.276,125.078c-1.796-7.949,2.176-15.62,8.872-17.133c6.696-1.513,13.58,3.705,15.376,11.654
								c1.796,7.949-2.176,15.62-8.872,17.133C245.956,138.245,239.072,133.027,237.276,125.078z"/>
						</g>
					</g>
					<path style="fill:#263238;" d="M239.458,130.406c0,0,5.843-4.791,2.315-15.183c0,0,9.812,3.031,14.406-4.595
						c0,0-11.211-8.725-18.101,3.764C234.711,120.494,239.458,130.406,239.458,130.406z"/>
					<circle style="fill:#263238;" cx="255.124" cy="107.324" r="4.37"/>
				</g>
			</g>
		</g>
	</g>
</g>
<g id="Graduation_hat">
	<g>
		<g>
			<path style="fill:none;stroke:#263238;stroke-width:2.5;stroke-linecap:round;stroke-linejoin:round;stroke-miterlimit:10;" d="
				M395.708,39.453c0,0,16.78-6.57,23.977,3.133c9.036,12.182-16.998,27.188-16.94,39.366c0.046,9.657,13.155,8.024,13.155,8.024"/>
			<path style="fill:none;stroke:#263238;stroke-width:2.5;stroke-linecap:round;stroke-linejoin:round;stroke-miterlimit:10;" d="
				M422.913,83.825c0,0-4.461,1.344-7.014,6.151"/>
			<path style="fill:none;stroke:#263238;stroke-width:2.5;stroke-linecap:round;stroke-linejoin:round;stroke-miterlimit:10;" d="
				M415.899,89.976c0,0,3.144,3.48,9.254,3.101"/>
			<path style="fill:none;stroke:#263238;stroke-width:2.5;stroke-linecap:round;stroke-linejoin:round;stroke-miterlimit:10;" d="
				M415.899,89.976c0,0,4.791-2.876,11.282-4.139"/>
			<path style="fill:none;stroke:#263238;stroke-width:2.5;stroke-linecap:round;stroke-linejoin:round;stroke-miterlimit:10;" d="
				M415.899,89.976c0,0,6.2,1.375,12.16-0.855"/>
		</g>
		
			<polygon style="fill:#EC644E;stroke:#263238;stroke-width:2.5;stroke-linecap:round;stroke-linejoin:round;stroke-miterlimit:10;" points="
			355.959,28.183 396.272,29.627 419.405,64.793 379.642,58.61 		"/>
		<g>
			<path style="fill:#EC644E;" d="M367.548,35.987l-4.766,11.638c0,0,9.595,1.098,19.831,7.747s14.907,13.341,14.907,13.341
				l9.173-9.74c0,0-5.172-8.606-16.99-16.149C377.886,35.281,367.548,35.987,367.548,35.987z"/>
			<path style="fill:#FFFFFF;" d="M406.69,58.97l-9.17,9.74c0,0-1.31-1.87-4.05-4.62l9.32-9.89c0,0-0.22-0.37-0.68-1.04
				C405.24,56.55,406.69,58.97,406.69,58.97z"/>
			<path style="fill:none;stroke:#263238;stroke-width:2.5;stroke-linecap:round;stroke-linejoin:round;stroke-miterlimit:10;" d="
				M367.548,35.987l-4.766,11.638c0,0,9.595,1.098,19.831,7.747s14.907,13.341,14.907,13.341l9.173-9.74
				c0,0-5.172-8.606-16.99-16.149C377.886,35.281,367.548,35.987,367.548,35.987z"/>
		</g>
		
			<path style="fill:#263238;stroke:#263238;stroke-width:2.5;stroke-linecap:round;stroke-linejoin:round;stroke-miterlimit:10;" d="
			M362.783,47.625c0,0,6.102,6.66,15.535,12.485c9.433,5.825,19.203,8.604,19.203,8.604s-8.268-9.59-16.228-14.088
			C372.117,49.44,362.783,47.625,362.783,47.625z"/>
	</g>
</g>
<g id="Speech_Bubble">
	<g>
		
			<path style="fill:#FFFFFF;stroke:#263238;stroke-width:2.5;stroke-linecap:round;stroke-linejoin:round;stroke-miterlimit:10;" d="
			M186.972,51.118c10.293-3.94,23.831-2.856,32.51,4.336c7.729,6.401,10.256,17.972,6.596,27.205
			c-4.367,11.011-16.955,17.016-28.356,15.11c-0.755-0.128,0.659,5.163,3.946,8.137c1.291,1.167,2.582,2.265,4.099,3.039
			c-7.01-0.548-13.861-3.52-15.731-11.06c-8.356-2.612-20.676-10.286-20.993-21.243C168.707,65.259,176.576,55.088,186.972,51.118z"
			/>
		
			<path style="fill:#EC644E;stroke:#263238;stroke-width:2.5;stroke-linecap:round;stroke-linejoin:round;stroke-miterlimit:10;" d="
			M187.217,78.358c2.372,4.037,7.189,6.862,10.562,8.475c3.373-1.613,8.19-4.438,10.551-8.475c2.709-4.596,3.004-11.32-2.667-12.965
			c-5.06-1.455-7.884,4.965-7.884,4.965s-2.825-6.419-7.884-4.965C184.224,67.037,184.519,73.762,187.217,78.358z"/>
	</g>
</g>
</svg>
