<?xml version="1.0" encoding="UTF-8" standalone="no"?>
<!DOCTYPE svg PUBLIC "-//W3C//DTD SVG 1.1//EN" "http://www.w3.org/Graphics/SVG/1.1/DTD/svg11.dtd">
<svg width="100%" height="100%" viewBox="0 0 2353 2500" version="1.1" xmlns="http://www.w3.org/2000/svg" xmlns:xlink="http://www.w3.org/1999/xlink" xml:space="preserve" xmlns:serif="http://www.serif.com/" style="fill-rule:evenodd;clip-rule:evenodd;stroke-linejoin:round;stroke-miterlimit:2;">
    <path d="M0.949,418.401L1157.27,6.406L2344.74,411.075L2152.47,1940.95L1157.27,2492.11L177.649,1948.27L0.949,418.401ZM1159.1,296.636L438.577,1899.75L707.741,1895.17L852.401,1533.53L1498.77,1533.53L1657.16,1899.75L1914.42,1904.33L1159.1,296.636ZM1160.94,810.257L1404.47,1319.29L946.693,1319.29L1160.94,810.257Z" style="fill:rgb(226,50,55);"/>
    <path d="M1157.27,300.706L1157.27,6.406L2344.74,411.075L2152.47,1941.87L1157.27,2492.11L1157.27,1533.53L1498.77,1533.53L1657.16,1899.75L1914.42,1904.33L1159.1,296.636L1157.27,300.706ZM1157.27,1319.29L1157.27,818.971L1160.94,810.257L1404.47,1319.29L1157.27,1319.29Z" style="fill:rgb(181,46,49);"/>
</svg>
