<?xml version="1.0" encoding="utf-8"?>
<!-- Generator: Adobe Illustrator 27.5.0, SVG Export Plug-In . SVG Version: 6.00 Build 0)  -->
<svg version="1.1" xmlns="http://www.w3.org/2000/svg" xmlns:xlink="http://www.w3.org/1999/xlink" x="0px" y="0px"
	 viewBox="0 0 500 500" style="enable-background:new 0 0 500 500;" xml:space="preserve">
<g id="Building">
	<g id="College">
		<g>
			<g>
				<polygon style="fill:#E0E0E0;" points="98.395,76.619 249.999,21.684 401.605,76.619 416.282,76.619 249.999,16.366 
					83.718,76.619 				"/>
			</g>
			<polygon style="fill:#E0E0E0;" points="386.928,76.618 113.071,76.618 250,27.003 			"/>
			<g>
				<g>
					<path style="fill:#FFFFFF;" d="M246.404,41.357v3.379l-2.995,0.576v14.59c0,1.843,0.496,3.222,1.488,4.137
						c0.992,0.915,2.352,1.373,4.08,1.373c1.753,0,3.129-0.454,4.128-1.363c0.998-0.909,1.497-2.291,1.497-4.147v-14.59
						l-2.976-0.576v-3.379h11.576v3.379l-2.995,0.576v14.59c0,3.136-1.033,5.555-3.1,7.257c-2.067,1.702-4.777,2.553-8.13,2.553
						c-3.34,0-6.038-0.851-8.092-2.553c-2.054-1.702-3.081-4.121-3.081-7.257v-14.59l-2.976-0.576v-3.379h2.976h5.606H246.404z"/>
				</g>
			</g>
			<polygon style="fill:#E0E0E0;" points="393.023,82.302 393.023,89.355 381.757,89.355 381.757,82.302 374.704,82.302 
				374.704,89.355 363.439,89.355 363.439,82.302 356.386,82.302 356.386,89.355 345.121,89.355 345.121,82.302 338.067,82.302 
				338.067,89.355 326.802,89.355 326.802,82.302 319.749,82.302 319.749,89.355 308.484,89.355 308.484,82.302 301.431,82.302 
				301.431,89.355 290.166,89.355 290.166,82.302 283.112,82.302 283.112,89.355 271.847,89.355 271.847,82.302 264.794,82.302 
				264.794,89.355 253.529,89.355 253.529,82.302 246.476,82.302 246.476,89.355 235.21,89.355 235.21,82.302 228.157,82.302 
				228.157,89.355 216.892,89.355 216.892,82.302 209.839,82.302 209.839,89.355 198.574,89.355 198.574,82.302 191.521,82.302 
				191.521,89.355 180.255,89.355 180.255,82.302 173.202,82.302 173.202,89.355 161.937,89.355 161.937,82.302 154.884,82.302 
				154.884,89.355 143.619,89.355 143.619,82.302 136.566,82.302 136.566,89.355 125.3,89.355 125.3,82.302 118.247,82.302 
				118.247,89.355 106.982,89.355 106.982,82.302 99.929,82.302 99.929,89.355 99.929,103.591 400.076,103.591 400.076,89.355 
				400.076,89.355 400.076,82.302 			"/>
		</g>
		<g>
			<rect x="106.589" y="107.017" style="fill:#E0E0E0;" width="37.222" height="6.283"/>
			<rect x="106.589" y="234.013" style="fill:#E0E0E0;" width="37.222" height="6.283"/>
			<rect x="111.108" y="115.91" style="fill:#E0E0E0;" width="28.182" height="115.672"/>
		</g>
		<g>
			<rect x="188.125" y="107.017" style="fill:#E0E0E0;" width="37.222" height="6.283"/>
			<rect x="188.125" y="234.013" style="fill:#E0E0E0;" width="37.222" height="6.283"/>
			<rect x="192.645" y="115.91" style="fill:#E0E0E0;" width="28.182" height="115.672"/>
		</g>
		<g>
			
				<rect x="356.189" y="107.017" transform="matrix(-1 -1.224647e-16 1.224647e-16 -1 749.6001 220.3166)" style="fill:#E0E0E0;" width="37.222" height="6.283"/>
			
				<rect x="356.189" y="234.013" transform="matrix(-1 -1.224647e-16 1.224647e-16 -1 749.6001 474.3092)" style="fill:#E0E0E0;" width="37.222" height="6.283"/>
			
				<rect x="360.709" y="115.91" transform="matrix(-1 -1.224647e-16 1.224647e-16 -1 749.6001 347.4924)" style="fill:#E0E0E0;" width="28.182" height="115.672"/>
		</g>
		<g>
			
				<rect x="274.652" y="107.017" transform="matrix(-1 -1.224647e-16 1.224647e-16 -1 586.5268 220.3166)" style="fill:#E0E0E0;" width="37.222" height="6.283"/>
			
				<rect x="274.652" y="234.013" transform="matrix(-1 -1.224647e-16 1.224647e-16 -1 586.5268 474.3092)" style="fill:#E0E0E0;" width="37.222" height="6.283"/>
			
				<rect x="279.172" y="115.91" transform="matrix(-1 -1.224647e-16 1.224647e-16 -1 586.5268 347.4924)" style="fill:#E0E0E0;" width="28.182" height="115.672"/>
		</g>
	</g>
</g>
<g id="Trees">
	<g id="Tree_00000088852469174428641560000007117292089583683462_">
		<g>
			<path style="fill:#EBEBEB;" d="M442.465,160.395c0.622,4.853-5.291,8.899-10.426,7.965c0.311,2.923-3.798,4.605-5.447,3.112
				c1.649,2.157,4.347,8.968,0,12.676c-4.347,3.708-9.947,1.589-9.947,1.589s-2.043,5.07-9.762,3.708
				c-7.719-1.362-9.308-9.233-8.4-12.033c-5.065,2.925-15.362,0.681-19.979-6.13c-4.616-6.811-4.238-15.278-0.303-19.138
				c-2.688-2.536-1.825-6.563-0.236-8.455c1.589-1.892,3.865-1.719,3.865-1.719s-2.174-2.509,0.382-4.213
				c-3.633-2.119-5.297-9.687,0.53-15.363c5.827-5.676,14.55-3.41,14.55-3.41s-1.784-5.615,2.066-10.59
				c3.316-4.284,8.815-3.854,8.815-3.854s-0.238-4.025,3.7-4.228c-2.283-4.143-0.117-9.382,2.885-11.676
				c5.578-4.263,19.79-5.399,19.706,5.228c5.774-4.435,14.448,1.562,13.059,7.492c4.766-4.145,12.464,1.462,10.671,7.189
				c6.898-1.962,14.095,6.239,10.245,13.854c2.683-1.549,8.763-0.437,8.598,4.687c3.481-1.059,7.341,1,8.324,4.633
				c0.984,3.632-0.56,6.416-3.283,8.232c2.594-0.378,4.184,3.954,2.45,5.222c5.07,0,8.508,10.618,2.319,14.129
				c3.557,2.497,5.344,17.666-5.554,23.796c-10.898,6.13-26.558,2.418-27.36-7.526c-4.616-1.135-6.563-6.107-3.46-8.831
				C447.446,167.954,442.754,164.17,442.465,160.395z"/>
			<path style="opacity:0.07;" d="M481.294,183.1c10.897-6.13,9.111-21.298,5.554-23.796c6.189-3.511,2.751-14.129-2.319-14.129
				c1.734-1.268,0.144-5.6-2.451-5.222c2.723-1.816,4.267-4.6,3.283-8.232c-0.49-1.81-1.694-3.228-3.21-4.066
				c2.215,3.564,1.309,9.779-4.632,11.053c-5.122,1.098-7.845-2.564-7.845-2.564s-1.252,2.168-6.825,1.475
				c-5.573-0.693-8.36-6.191-6.885-10.617c2.623-4.426-1.475-9.835-6.765-9.016c0.255,11.146-9.388,14.515-18.478,10.164
				c4.426,11.146-5.245,16.556-10.163,11.638c-1.639,4.098-7.048,3.606-9.507,1.147c-2.459,2.623-10.163,0-10.163-6.229
				c-4.59,5.737-12.786,4.098-13.441-1.967c-3.493,4.582-7.865,2.009-8.321,0.207c0.452,2.178,1.606,3.949,3.087,4.813
				c-2.556,1.704-0.382,4.213-0.382,4.213s-2.276-0.173-3.865,1.719c-1.589,1.892-2.452,5.919,0.236,8.455
				c-3.935,3.86-4.314,12.327,0.303,19.138c4.616,6.811,14.913,9.055,19.979,6.13c-0.908,2.8,0.681,10.671,8.4,12.033
				c7.719,1.362,9.762-3.708,9.762-3.708s5.6,2.119,9.947-1.589c4.346-3.708,1.649-10.519,0-12.676
				c1.649,1.493,5.757-0.189,5.446-3.112c5.135,0.934,11.048-3.112,10.426-7.965c0.289,3.775,4.981,7.559,8.009,6.348
				c-3.103,2.724-1.156,7.696,3.46,8.831C454.736,185.518,470.396,189.23,481.294,183.1z"/>
			<path style="fill:#EBEBEB;" d="M420.679,151.626c0,0-9.788,2.9-12.506-4.108c-4.988,2.88-14.318,2.175-17.459-4.108
				c-5.317,0-8.501-5.65-8.501-5.65c-2.556,1.704-0.382,4.213-0.382,4.213s-2.276-0.173-3.865,1.719
				c-1.589,1.892-2.452,5.919,0.236,8.455c-0.417,0.409-0.784,0.879-1.12,1.384c-1.628,4.266,3.977,7.513,7.469,5.466
				c-1.329,4.35,3.625,17.399,17.4,11.962c8.216,5.196,16.553-1.087,15.466-12.566C421.512,158.392,423.458,153.921,420.679,151.626
				z"/>
			<path style="fill:#EBEBEB;" d="M472.756,163.225c4.223-5.03,3.02-10.271,3.02-10.271s-4.143,6.016-12.808,2.326
				c-8.665-3.69-3.987-12.234-3.987-12.234s-6.646,0.541-5.437-5.288c-2.147,1.072-5.438-0.15-5.438-4.379
				c-0.954,7.324-7.12,10.864-14.862,9.183c5.196,1.933,4.833,5.959,1.208,8.839c-4.098,4.098-3.6,14.374,6.233,14.005
				c1.284-1.392,2.018-3.142,1.778-5.013c0.289,3.775,4.981,7.559,8.009,6.348c0,0,0,0,0,0l0,0c0,0,2.829,2.523,6.213-0.739
				C459.163,168.481,468.534,168.255,472.756,163.225z"/>
		</g>
		<path style="fill:#F0F0F0;" d="M461.677,181.916c0,0,7.744-11.312,7.317-12.194c-0.428-0.882-7.317,10.365-11.584,13.414
			c-4.268,3.049-12.804,8.231-14.938,8.231s-2.286-2.591-1.524-7.622c0.762-5.03,0.932-6.402,4.429-10.975
			c3.497-4.573,13.526-16.951,12.948-17.529c-0.578-0.578-13.297,15.664-16.462,17.682c-3.09,1.97-5.807-11.28-6.859-11.28
			s3.027,9.483,3.283,13.903c0.256,4.42-0.234,9.723-2.215,11.095c-1.982,1.372-7.392-2.896-10.898-6.707
			c-3.506-3.811-3.581-20.273-4.955-20.273c-1.374,0,0.883,15.11,0.883,16.568c0,3.178-13.398-5.524-15.821-5.136
			c-2.423,0.388,12.336,5.651,18.139,11.28c5.054,4.902,5.919,6.445,7.643,10.076c1.83,3.854,2.364,8.826,2.364,23.001
			c0,14.176-3.819,53.875-3.819,62.659c0,1.165,0.77,2.33,2.31,3.219c3.079,1.778,8.072,1.778,11.151,0
			c1.54-0.889,2.31-2.054,2.31-3.219l0,0v0l0,0c0-8.784-3.819-48.483-3.819-62.659c0-14.176,0.574-19.467,4.784-22.461
			c4.21-2.994,11.395-8.293,14.575-9.244c3.18-0.95,12.347,0.612,12.347,0C473.262,183.134,461.677,181.916,461.677,181.916z"/>
	</g>
	<g id="Tree_00000060020075766237631440000018043861877286957503_">
		<g>
			<path style="fill:#EBEBEB;" d="M57.535,160.395c-0.622,4.853,5.291,8.899,10.426,7.965c-0.311,2.923,3.798,4.605,5.447,3.112
				c-1.649,2.157-4.347,8.968,0,12.676c4.347,3.708,9.947,1.589,9.947,1.589s2.043,5.07,9.762,3.708
				c7.719-1.362,9.308-9.233,8.4-12.033c5.065,2.925,15.362,0.681,19.979-6.13c4.616-6.811,4.238-15.278,0.303-19.138
				c2.688-2.536,1.825-6.563,0.236-8.455c-1.589-1.892-3.865-1.719-3.865-1.719s2.174-2.509-0.382-4.213
				c3.633-2.119,5.298-9.687-0.53-15.363c-5.827-5.676-14.55-3.41-14.55-3.41s1.784-5.615-2.066-10.59
				c-3.316-4.284-8.815-3.854-8.815-3.854s0.238-4.025-3.7-4.228c2.283-4.143,0.117-9.382-2.885-11.676
				c-5.577-4.263-19.79-5.399-19.706,5.228c-5.774-4.435-14.448,1.562-13.058,7.492c-4.765-4.145-12.464,1.462-10.671,7.189
				c-6.898-1.962-14.095,6.239-10.245,13.854c-2.684-1.549-8.763-0.437-8.598,4.687c-3.481-1.059-7.341,1-8.324,4.633
				c-0.984,3.632,0.56,6.416,3.283,8.232c-2.594-0.378-4.184,3.954-2.45,5.222c-5.07,0-8.508,10.618-2.319,14.129
				c-3.557,2.497-5.344,17.666,5.554,23.796c10.898,6.13,26.558,2.418,27.36-7.526c4.616-1.135,6.563-6.107,3.46-8.831
				C52.554,167.954,57.246,164.17,57.535,160.395z"/>
			<path style="opacity:0.07;" d="M18.706,183.1c-10.898-6.13-9.111-21.298-5.554-23.796c-6.189-3.511-2.751-14.129,2.319-14.129
				c-1.734-1.268-0.144-5.6,2.451-5.222c-2.723-1.816-4.267-4.6-3.283-8.232c0.49-1.81,1.695-3.228,3.21-4.066
				c-2.215,3.564-1.309,9.779,4.632,11.053c5.122,1.098,7.845-2.564,7.845-2.564s1.252,2.168,6.825,1.475
				c5.573-0.693,8.36-6.191,6.885-10.617c-2.623-4.426,1.475-9.835,6.765-9.016c-0.255,11.146,9.388,14.515,18.478,10.164
				c-4.426,11.146,5.245,16.556,10.163,11.638c1.639,4.098,7.048,3.606,9.507,1.147c2.459,2.623,10.163,0,10.163-6.229
				c4.59,5.737,12.786,4.098,13.441-1.967c3.493,4.582,7.865,2.009,8.321,0.207c-0.452,2.178-1.606,3.949-3.087,4.813
				c2.556,1.704,0.382,4.213,0.382,4.213s2.276-0.173,3.865,1.719c1.589,1.892,2.452,5.919-0.236,8.455
				c3.935,3.86,4.314,12.327-0.303,19.138c-4.616,6.811-14.913,9.055-19.979,6.13c0.908,2.8-0.681,10.671-8.4,12.033
				c-7.719,1.362-9.762-3.708-9.762-3.708s-5.6,2.119-9.947-1.589c-4.347-3.708-1.649-10.519,0-12.676
				c-1.649,1.493-5.757-0.189-5.446-3.112c-5.135,0.934-11.048-3.112-10.426-7.965c-0.289,3.775-4.981,7.559-8.009,6.348
				c3.103,2.724,1.156,7.696-3.46,8.831C45.264,185.518,29.604,189.23,18.706,183.1z"/>
			<path style="fill:#EBEBEB;" d="M79.321,151.626c0,0,9.788,2.9,12.506-4.108c4.988,2.88,14.318,2.175,17.459-4.108
				c5.317,0,8.501-5.65,8.501-5.65c2.556,1.704,0.382,4.213,0.382,4.213s2.276-0.173,3.865,1.719
				c1.589,1.892,2.452,5.919-0.236,8.455c0.417,0.409,0.784,0.879,1.12,1.384c1.628,4.266-3.977,7.513-7.469,5.466
				c1.329,4.35-3.625,17.399-17.399,11.962c-8.216,5.196-16.553-1.087-15.466-12.566C78.488,158.392,76.542,153.921,79.321,151.626z
				"/>
			<path style="fill:#EBEBEB;" d="M27.244,163.225c-4.223-5.03-3.021-10.271-3.021-10.271s4.143,6.016,12.808,2.326
				c8.665-3.69,3.987-12.234,3.987-12.234s6.646,0.541,5.437-5.288c2.147,1.072,5.438-0.15,5.438-4.379
				c0.954,7.324,7.12,10.864,14.862,9.183c-5.196,1.933-4.833,5.959-1.208,8.839c4.098,4.098,3.6,14.374-6.234,14.005
				c-1.284-1.392-2.018-3.142-1.778-5.013c-0.289,3.775-4.981,7.559-8.009,6.348c0,0,0,0,0,0l0,0c0,0-2.829,2.523-6.213-0.739
				C40.837,168.481,31.466,168.255,27.244,163.225z"/>
		</g>
		<path style="fill:#F0F0F0;" d="M38.323,181.916c0,0-7.744-11.312-7.316-12.194c0.428-0.882,7.316,10.365,11.584,13.414
			c4.268,3.049,12.804,8.231,14.938,8.231c2.134,0,2.286-2.591,1.524-7.622c-0.762-5.03-0.932-6.402-4.429-10.975
			c-3.497-4.573-13.526-16.951-12.948-17.529c0.578-0.578,13.297,15.664,16.462,17.682c3.09,1.97,5.806-11.28,6.859-11.28
			c1.053,0-3.027,9.483-3.283,13.903c-0.256,4.42,0.234,9.723,2.215,11.095c1.982,1.372,7.392-2.896,10.898-6.707
			c3.506-3.811,3.581-20.273,4.955-20.273S78.9,174.772,78.9,176.23c0,3.178,13.398-5.524,15.821-5.136
			c2.423,0.388-12.335,5.651-18.139,11.28c-5.054,4.902-5.919,6.445-7.643,10.076c-1.83,3.854-2.364,8.826-2.364,23.001
			c0,14.176,3.819,53.875,3.819,62.659c0,1.165-0.77,2.33-2.31,3.219c-3.079,1.778-8.072,1.778-11.151,0
			c-1.54-0.889-2.31-2.054-2.31-3.219l0,0v0l0,0c0-8.784,3.819-48.483,3.819-62.659c0-14.176-0.574-19.467-4.784-22.461
			c-4.209-2.994-11.395-8.293-14.575-9.244c-3.18-0.95-12.347,0.612-12.347,0C26.738,183.134,38.323,181.916,38.323,181.916z"/>
	</g>
</g>
<g id="Floor">
	<path id="Floor_00000064349647737827852110000001709481552717934520_" style="fill:#FAFAFA;" d="M81.845,253.291
		c-92.867,53.617-92.865,140.547,0.005,194.164s243.438,53.617,336.305,0c92.867-53.617,92.865-140.547-0.005-194.164
		C325.281,199.674,174.712,199.674,81.845,253.291z"/>
</g>
<g id="Shadows">
	
		<ellipse id="Shadow_00000126318438788995717470000003807465194158654134_" style="fill:#E0E0E0;" cx="242.012" cy="384.177" rx="65.454" ry="37.79"/>
	
		<ellipse id="Shadow_00000046330777555150897700000012618099921965904798_" style="fill:#E0E0E0;" cx="100.103" cy="421.614" rx="65.454" ry="37.79"/>
	
		<ellipse id="Shadow_00000178201529191603657590000016541252330670722182_" style="fill:#E0E0E0;" cx="394.743" cy="420.304" rx="65.454" ry="37.79"/>
</g>
<g id="Character_3">
	<g id="Character_00000080910069993554688160000015403134843905292724_">
		<g id="Bottom_00000054956587851001720860000003676970090990815648_">
			<g>
				<path style="fill:#FFBDA7;" d="M60.226,399.292c1.152-12.241,0.264-18.31,1.692-37.431l0,0
					c0.196-4.905,0.485-10.158,0.913-14.821c1.441-15.688,3.978-21.008,4.267-24.036c0,0,0.936-24.438,2.694-58.795
					c0.827-16.162,5.618-20.96,9.545-29.465l44.51,0.947c4.522,21.288,4.955,67.512,4.342,89.34
					c-0.313,11.129-5.134,66.674-5.253,68.042c-0.422,4.852-0.039,6.779,1.822,8.862c3.897,4.364,9.592,8.56,14.509,12.397
					c-0.764,1.896-7.648,2.592-10.592,1.073c-4.703-2.426-9.346-6.072-10.942-7.308c-4.042-3.127-9.237-5.677-9.206-10.305
					c0.001-0.576-0.152-0.738-0.12-0.829c-0.021-2.703-5.532-39.66-5.859-48.913c-0.282-7.956,0.973-21.421,0.973-21.421
					l-4.411-33.771c0,0-3.584,19.828-7.071,33.346c-2.838,11.003-7.532,29.781-10.752,43.328l0,0
					c-3.147,15.618-6.921,23.724-7.802,31.557c-0.256,1.869-3.302,20.176-4.268,24.37c-0.966,4.194-10.15,4.11-10.584-3.148
					C58.342,417.482,60.009,401.596,60.226,399.292z"/>
				<path id="XMLID_00000139272448598022659970000015179267659408721323_" style="fill:#9A4A4D;" d="M99.109,292.86l4.265-24.203
					c0,0,14.528-1.412,19.906-6.363c0,0-6.845,9.236-16.71,10.555l-4.561,20.041l1.473,33.452L99.109,292.86z"/>
			</g>
			<g>
				<path style="fill:#263238;" d="M146.792,420.295c0.254,0.003,0.608,2.808-0.785,3.984c-1.608,1.357-6.31,3.565-12.482,2.7
					c-6.173-0.865-9.499-2.812-11.951-4.908s-5.887-5.052-8.677-5.699c-2.591-0.6-5.399-1.807-6.222-2.618
					c-0.822-0.811-0.669-4.379-0.669-4.379L146.792,420.295z"/>
				<path id="XMLID_00000115499869416042582180000005610612558873628600_" style="fill:#37474F;" d="M108.305,395.656
					c0,0-0.466,0.01-0.635,0.835c-0.2,0.982-0.436,3.84-0.862,5.449c-0.591,2.238-1.02,6.833-0.699,8.665
					c0.321,1.832,4.542,3.148,7.236,4.207c2.752,1.082,5.926,3.285,8.707,5.628c2.879,2.425,8.964,4.893,12.991,4.995
					c6.149,0.155,10.149-1.471,11.402-3.669c1.55-2.719,1.249-5.209-5.784-8.559c-1.331-0.634-6.001-3.465-7.592-4.49
					c-1.681-1.083-3.291-2.285-4.771-3.63c-0.749-0.681-1.465-1.398-2.135-2.158c-0.59-0.668-1.422-1.477-1.766-2.305
					c-0.078-0.187-0.131-0.406-0.2-0.601c-0.2-0.561-0.337-1.078-0.443-1.661c-0.108-0.589-0.17-1.446-0.726-1.804
					c-0.637-0.411-1.796-0.373-2.523-0.325c-0.915,0.059-2.943,0.487-3.831,0.711c-1.583,0.4-2.021,0.841-2.647,1.811
					c-0.48,0.744-0.563,1.689-0.609,2.554c-0.022,0.412-0.017,0.828-0.026,1.241c-0.004,0.176,0.068,0.494-0.178,0.418
					c-0.234-0.072-0.49-0.692-0.577-0.902c-0.191-0.464-0.311-0.96-0.521-1.416c-0.24-0.522-0.511-1.058-0.864-1.506
					c-0.329-0.418-0.689-0.819-1.106-1.151c-0.379-0.302-0.866-0.455-1.202-0.797C108.52,396.765,108.339,396.006,108.305,395.656z"
					/>
				<path style="fill:#FFFFFF;" d="M141.797,413.759c-8.911,0.519-12.647,6.881-13.061,10.28c2.198,0.805,4.467,1.349,6.308,1.395
					c6.149,0.155,10.402-1.466,11.655-3.664C148.162,419.207,148.084,416.222,141.797,413.759z"/>
				<g>
					<g>
						<path style="fill:#F0F0F0;" d="M127.574,414.602c-0.097-0.001-0.194-0.034-0.274-0.101c-0.184-0.154-0.208-0.428-0.055-0.612
							c1.256-1.505,5.726-4.369,8.959-3.983c0.239,0.028,0.41,0.245,0.381,0.483c-0.028,0.238-0.238,0.408-0.482,0.381
							c-3.018-0.352-7.194,2.483-8.19,3.677C127.826,414.55,127.701,414.603,127.574,414.602z"/>
					</g>
					<g>
						<path style="fill:#F0F0F0;" d="M123.763,412.328c-0.097-0.001-0.194-0.034-0.274-0.101c-0.185-0.154-0.208-0.428-0.055-0.613
							c1.257-1.506,5.729-4.375,8.959-3.982c0.239,0.027,0.41,0.245,0.381,0.483c-0.028,0.238-0.234,0.409-0.483,0.381
							c-3.017-0.356-7.194,2.483-8.189,3.677C124.015,412.276,123.89,412.329,123.763,412.328z"/>
					</g>
					<g>
						<path style="fill:#F0F0F0;" d="M120.238,409.738c-0.097-0.001-0.194-0.034-0.274-0.102c-0.185-0.154-0.208-0.428-0.055-0.613
							c1.256-1.506,5.741-4.371,8.959-3.983c0.239,0.028,0.41,0.245,0.381,0.483c-0.028,0.238-0.236,0.407-0.483,0.381
							c-3.013-0.353-7.194,2.483-8.189,3.677C120.489,409.686,120.364,409.74,120.238,409.738z"/>
					</g>
					<g>
						<path style="fill:#F0F0F0;" d="M116.784,407.149c-0.094-0.001-0.19-0.033-0.269-0.097c-0.187-0.151-0.215-0.425-0.064-0.611
							c1.728-2.135,6.472-4.406,9.7-4.019c0.239,0.028,0.41,0.245,0.381,0.483c-0.028,0.238-0.237,0.402-0.483,0.381
							c-2.907-0.347-7.389,1.81-8.923,3.703C117.039,407.096,116.911,407.151,116.784,407.149z"/>
					</g>
				</g>
			</g>
			<g>
				<path style="fill:#263238;" d="M72.521,428.124c-0.353,4.431-1.104,7.358-2.734,9.926c-1.629,2.568-4.617,3.322-7.608,2.497
					c-2.991-0.826-6.8-2.945-7.581-6.79c-0.78-3.845-1.227-6.479-0.456-10.579L72.521,428.124z"/>
				<path id="XMLID_00000132779565209716549860000009087330431894839433_" style="fill:#37474F;" d="M60.527,395.611
					c-1.241,0.071-1.7,6.137-2.542,12.086c-0.902,6.377-2.867,8.981-3.663,14.208c-0.909,5.972,0.025,8.669,2.046,12.335
					c2.021,3.666,9.374,7.376,13.145,2.268c3.074-4.164,3.298-8.85,3.153-14.836c-0.15-6.188,0.369-10.459,0.721-15.145
					c0.337-4.479,1.957-9.474,0.891-9.996c-0.195,1.002-0.39,1.801-0.492,2.446c-0.125,0.794-0.482,1.813-0.787,2.567
					c-0.133,0.331-0.417,0.674-0.518,0.13c-0.069-0.369-0.024-0.749,0.024-1.116c0.216-1.648-0.613-1.8-1.059-1.938
					c-0.968-0.299-4.804-0.854-5.731-0.937c-0.945-0.085-4.21-0.297-4.646,0.233c-0.295,0.359-0.349,0.969-0.454,1.723
					c-0.125,0.899-0.347,1.555-0.368,1.271c-0.045-0.647,0.051-1.979,0.076-2.384c0.023-0.388,0.092-1.22,0.106-1.61
					C60.445,396.533,60.493,395.994,60.527,395.611z"/>
				<path style="fill:#FFFFFF;" d="M53.905,425.368c-0.293,3.714,0.542,6.28,2.124,9.149c2.021,3.666,9.972,7.401,13.743,2.293
					c1.876-2.542,2.429-5.582,2.746-8.689C70.41,424.077,57.439,422.039,53.905,425.368z"/>
				<g>
					<g>
						<path style="fill:#F0F0F0;" d="M69.954,421.551c-0.052-0.006-0.102-0.021-0.152-0.045c-0.049-0.025-5.733-2.518-11.341-1.345
							c-0.248,0.048-0.491-0.108-0.544-0.357c-0.052-0.248,0.108-0.492,0.357-0.544c5.932-1.237,11.727,1.317,11.943,1.424
							c0.227,0.116,0.318,0.392,0.203,0.618C70.331,421.48,70.141,421.574,69.954,421.551z"/>
					</g>
					<g>
						<path style="fill:#F0F0F0;" d="M58.833,415.703c-0.173-0.021-0.327-0.14-0.383-0.317c-0.075-0.243,0.058-0.501,0.3-0.578
							c5.595-1.764,11.701,1.192,11.931,1.319c0.223,0.122,0.304,0.401,0.18,0.624c-0.123,0.221-0.406,0.297-0.624,0.18
							c-0.052-0.028-6.003-2.893-11.209-1.245C58.963,415.706,58.897,415.711,58.833,415.703z"/>
					</g>
					<g>
						<path style="fill:#F0F0F0;" d="M59.118,411.499c-0.17-0.021-0.322-0.137-0.38-0.31c-0.08-0.242,0.049-0.502,0.29-0.582
							c6.157-2.059,11.944,1.152,12.158,1.289c0.214,0.137,0.277,0.421,0.141,0.634c-0.137,0.214-0.426,0.278-0.634,0.141
							c-0.047-0.031-5.641-3.107-11.372-1.193C59.252,411.501,59.184,411.507,59.118,411.499z"/>
					</g>
					<g>
						<path style="fill:#EBEBEB;" d="M59.51,407.362c-0.167-0.021-0.318-0.134-0.378-0.304c-0.084-0.24,0.041-0.502,0.281-0.586
							c5.772-2.022,12.004,1.276,12.237,1.419c0.218,0.13,0.286,0.413,0.155,0.63c-0.13,0.218-0.412,0.291-0.63,0.155
							c-0.054-0.032-6.098-3.216-11.458-1.338C59.648,407.363,59.578,407.37,59.51,407.362z"/>
					</g>
				</g>
			</g>
			<path style="fill:#37474F;" d="M76.231,234.678c-5.478,9.504-8.485,17.307-9.628,45.888c-1.143,28.581-1.505,37.362-1.69,40.808
				c-0.185,3.445-3.602,8.523-4.347,24.567c-0.918,19.776-0.148,35.379-0.148,35.379s1.918,2.93,8.399,3.65
				c5.979,0.665,9.685-1.506,9.685-1.506s8.598-29.897,11.088-40.078c2.49-10.181,9.374-43.684,9.374-43.684l3.337,27.363
				c0,0-2.027,9.333-0.517,24.265c1.51,14.932,3.783,26.835,3.783,26.835s4.726,2.083,9.853,2.115s9.034-2.106,9.034-2.106
				s5.055-41.03,5.414-57.911c0.359-16.881,0.023-59.94-3.276-85.013L76.231,234.678z"/>
			<path style="fill:#263238;" d="M105.003,267.353l-6.039,32.347l3.337,27.363l-1.076-27.68l5.346-26.534
				c4.091-0.889,13.457-5.574,16.151-12.49C116.308,266.787,105.003,267.353,105.003,267.353z M86.382,247.972
				c0.777-2.712,1.593-5.409,2.504-8.12c-1.584,2.39-2.791,5.01-3.829,7.672c-1.047,2.665-1.881,5.403-2.616,8.162
				c-0.704,2.767-1.298,5.56-1.726,8.382c-0.436,2.817-0.748,5.664-0.746,8.529c0.741-2.763,1.433-5.505,2.123-8.25
				c0.703-2.74,1.365-5.484,2.09-8.21C84.874,253.403,85.621,250.687,86.382,247.972z M82.338,245.84
				c0.954-1.646,1.914-3.296,2.795-5.034c-1.469,1.281-2.763,2.727-3.954,4.25c-1.2,1.518-2.264,3.139-3.243,4.81
				c-0.95,1.688-1.817,3.429-2.494,5.252c-0.686,1.815-1.223,3.702-1.429,5.643l2.706-5.058c0.916-1.656,1.823-3.31,2.777-4.942
				C80.42,249.113,81.393,247.491,82.338,245.84z M76.642,354.159c-1.769,8.758-3.423,17.539-4.964,26.34
				c2.226-8.659,4.339-17.338,6.337-26.04c2.024-8.706,3.94-17.396,5.844-26.158c1.793-8.786,3.068-17.651,4.119-26.527
				c1.07-8.875,1.902-17.771,2.631-26.679c-1.419,8.824-2.715,17.664-4.018,26.492c-1.334,8.823-2.68,17.64-4.494,26.35
				C80.239,336.635,78.384,345.404,76.642,354.159z M123.748,310.735c0.095,3.876,0.242,7.773,0.096,11.601
				c-0.161,3.844-0.48,7.734-0.758,11.605l-0.835,11.634c-0.563,7.758-1.04,15.525-1.422,23.302
				c1.079-7.712,2.023-15.439,2.821-23.18c0.802-7.749,1.561-15.469,1.991-23.295c0.143-7.871-0.359-15.615-0.89-23.394
				c-0.554-7.767-1.323-15.521-2.359-23.239l0.962,23.316C123.487,302.971,123.654,306.853,123.748,310.735z"/>
		</g>
		<g id="Top_00000117667756960131487810000008393773544286119831_">
			<g>
				<g>
					<path style="fill:#FFBDA7;" d="M189.306,191.74c-0.704-0.425-1.559-0.546-2.379-0.489c-1.335,0.092-2.572,0.618-3.866,0.904
						c-1.971,0.436-5.15,1.166-7.097,0.51c-0.397-0.134-1.178-0.533-0.488-0.874c0.899-0.446,1.844-0.822,2.654-1.415
						c0.81-0.593,1.491-1.456,1.585-2.455c0.028-0.301-0.005-0.626-0.188-0.866c-0.26-0.341-0.533-0.251-0.849-0.13
						c-0.333,0.127-0.688,0.197-1.038,0.281c-0.72,0.172-1.44,0.346-2.158,0.528c-4.189,1.066-8.481,2.486-11.66,5.552
						c-0.462,0.445-3.523,4.111-5.401,6.136c-1.597,1.879-11.77,11.057-11.77,11.057s-4.984-5.782-8.618-9.844
						c-6.475-7.236-8.981-10.122-11.261-12.536c-2-2.117-5.332-4.692-9.112-5.189l2.485,26.328c0,0,12.353,11.388,15.959,14.316
						c7.419,6.025,9.942,7.736,13.919,5.003c4.273-2.937,7.153-6.058,11.411-13.57c3.477-6.134,4.333-7.577,5.546-9.439
						c1.033-1.584,3.516-1.458,4.847-1.488c2.432-0.055,3.063-0.158,5.43-0.717c1.559-0.367,3.085-0.906,4.495-1.669
						c0.591-0.32,1.546-0.734,1.929-1.306c0.358-0.535,0.439-1.212,0.873-1.733c0.487-0.584,1.236-0.923,1.655-1.557
						c0.33-0.498,0.414-1.114,0.605-1.68c0.305-0.9,1.016-1.267,1.817-1.666c0.389-0.193,0.813-0.368,1.073-0.715
						C190.124,192.457,189.784,192.029,189.306,191.74z"/>
					<path style="fill:#E6E6E6;" d="M116.136,181.697c5.026,0.749,6.373,1.525,10.568,5.657c4.196,4.132,9.361,9.639,9.361,9.639
						s-2.018,6.807-7.122,12.281c-1.97,2.112-6.803,4.832-6.803,4.832l-4.995-3.66L116.136,181.697z"/>
					<path style="fill:#F0997A;" d="M146.652,210.478l-0.001-0.001c-0.005-0.008-0.746-0.701-1.352-1.563
						c-2.84,2.724-4.373,7.474-3.21,11.446C142.065,218.763,142.984,214.046,146.652,210.478z"/>
					<path style="fill:#F0997A;" d="M173.223,193.73c-1.472,2.013-4.473,3.91-6.002,4.27c0,0,2.217,0.401,3.76-0.729
						C172.67,196.032,173.078,194.671,173.223,193.73z"/>
				</g>
			</g>
			<path id="Chest_00000171695568067986862980000001538378635567153072_" style="fill:#455A64;" d="M70.362,247.878
				c2.142-8.866,4.008-15.654,4.029-17.623c0.093-8.544-1.913-19.817-2.549-24.792c-1.385-10.834,1.742-20.984,4.302-23.057
				l12.492-3.013c0,0,14.526,0.306,16.896,0.598c1.169,0.144,10.596,1.704,10.602,1.708c0,0,3.42,4.445,7.361,10.652
				c6.407,10.09,6.923,14.815,4.993,23.699c-2.647,12.19-0.24,24.288-0.439,33.604C120.206,258.25,90.064,262.622,70.362,247.878z"
				/>
			<path style="fill:#263238;" d="M82.464,139.814c-0.056,0.266-1.526,1.066-1.799,1.317c-0.52,0.478-0.981,1.016-1.365,1.61
				c-0.83,1.286-1.26,2.778-1.525,4.274c-0.451,2.543-0.337,5.135-0.534,7.701c-0.193,2.518-0.765,4.894-1.329,7.361
				c-0.49,2.143-0.983,4.317-0.898,6.514c0.084,2.197,0.816,4.458,2.435,5.945c-0.505-2.155-0.498-4.427,0.02-6.579
				c0.125,1.368,0.287,2.756,0.822,4.021c0.842,1.991,2.558,3.515,4.475,4.514c1.917,0.999,4.041,1.524,6.153,1.982
				c3.435,0.745,6.997,1.127,10.501,1.03c2.176-0.06,4.35-0.23,6.509-0.508c2.79-0.36,5.638-0.932,7.992-2.472
				c2.354-1.54,4.129-4.244,3.843-7.043c0.793,1.348,1.185,2.929,1.114,4.492c1.526-1.666,2.201-3.997,2.14-6.255
				c-0.062-2.258-0.807-4.453-1.826-6.469c-0.647-1.28-1.41-2.511-1.875-3.868c-0.384-1.12-0.685-2.697-0.154-3.826
				c0.376-0.798,1.006-1.532,1.405-2.355c1.077-2.222,1.823-4.711,1.647-7.203c-0.362-5.139-3.388-11.862-12.772-13.974
				C99.625,128.265,84.589,129.661,82.464,139.814z"/>
			<g>
				<path style="fill:#BA68C8;" d="M83.239,260.487l-21.427-9.291c0,0-5.085,13.317-6.786,23.838
					c-1.326,8.203,1.096,12.804,6.312,16.752c5.216,3.948,14.546,10.023,19.013,9.768c4.467-0.255,9.615-2.509,11.35-6.181
					c1.735-3.671,1.711-36.93,1.711-36.93L83.239,260.487z"/>
				<path style="opacity:0.4;fill:#FFFFFF;" d="M83.239,260.487l-21.427-9.291c0,0-5.085,13.317-6.786,23.838
					c-1.326,8.203,1.096,12.804,6.312,16.752c5.216,3.948,14.546,10.023,19.013,9.768c4.467-0.255,9.615-2.509,11.35-6.181
					c1.735-3.671,1.711-36.93,1.711-36.93L83.239,260.487z"/>
				<path style="opacity:0.3;fill:#BA68C8;" d="M78.556,298.55c0.09,1.996,0.888,2.998,4.406,2.641
					c0.016-0.004,0.033-0.008,0.049-0.012c0.147-0.045,0.31-0.083,0.483-0.117c3.513-0.881,6.871-2.863,8.207-5.689
					c1.735-3.671,1.711-36.93,1.711-36.93l-10.174,2.043C80.625,273.98,78.437,295.921,78.556,298.55z"/>
				<path style="fill:#BA68C8;" d="M93.412,258.444c-9.946-5.196-23.592-12.386-27.121-11.409c-3.529,0.977-5.611,5.413-6.631,9.349
					c-1.019,3.936,2.52,13.483,5.056,15.175c2.537,1.691,12.629-2.087,15.068-4.707c2.439-2.621,3.453-6.364,3.453-6.364
					L93.412,258.444z"/>
				<g>
					<path style="fill:#BA68C8;" d="M116.136,181.697l-8.859-1.445c4.512,9.303-0.512,30.673-6.468,45.933
						c-5.956,15.26-17.57,34.302-17.57,34.302l10.174-2.043c0,0,9.9-15.879,15.856-31.14
						C115.225,212.044,120.648,191,116.136,181.697z"/>
					<path style="opacity:0.2;" d="M116.136,181.697l-8.859-1.445c4.512,9.303-0.512,30.673-6.468,45.933
						c-5.956,15.26-17.57,34.302-17.57,34.302l10.174-2.043c0,0,9.9-15.879,15.856-31.14
						C115.225,212.044,120.648,191,116.136,181.697z"/>
				</g>
			</g>
			<g id="Head_00000098197490083090487080000006682905194233349296_">
				<g id="XMLID_00000160160142592526303810000007374944855771461504_">
					<path id="XMLID_00000111873905975416264030000018378875238475601320_" style="fill:#FFBDA7;" d="M86.656,166.271
						c-2.073,0.338-4.012-0.706-5.238-2.085c-2.72-3.062-2.916-6.125-1.578-8.135c1.099-1.652,3.747-2.667,5.565-1.498
						c1.944,1.251,1.985,2.241,2.702,3.624c0.735,1.42,2.646,0.354,2.12-5.157c3.858-1.687,3.376-7.987,5.494-10.509
						c3.316-3.948,8.62-2.795,10.331-1.815c1.565-1.197,4.672-1.737,7.263-0.306c2.542,1.404,4.192,4.28,4.896,14.066
						c0.718,9.976-1.172,16.573-3.556,18.636c-1.641,1.419-4.656,2.34-8.218,2.063l-0.083,4.95c0,0,4.302,6.467-8.69,4.27
						c-6.403-1.083-9.035-4.526-9.035-4.526l0.232-15.1C88.862,164.751,88.625,165.95,86.656,166.271z"/>
				</g>
				<path style="fill:#F0997A;" d="M106.438,175.156c-5.135-0.296-11.985-2.235-13.765-5.528c0.953,3.53,4.536,5.424,7.407,6.281
					c3.491,1.042,6.276,1.202,6.276,1.202L106.438,175.156z"/>
				<g>
					<path style="fill:#B16668;" d="M108.266,164.959c-0.349,1.552-1.913,2.533-3.495,2.189c-1.582-0.343-2.581-1.88-2.233-3.433
						L108.266,164.959z"/>
					<path style="fill:#F28F8F;" d="M102.5,164.655c0.137,1.19,1.013,2.22,2.271,2.493c0.351,0.076,0.699,0.078,1.035,0.032
						C105.597,165.59,104.121,164.464,102.5,164.655z"/>
				</g>
				<g>
					<path id="XMLID_00000139999000458984527030000011801979819467641477_" style="fill:#263238;" d="M115.397,153.726
						c0.294,0.875-0.318,1.156-1.161,1.437c-0.843,0.281-1.599,0.455-1.893-0.421c-0.294-0.875,0.151-1.812,0.994-2.093
						C114.181,152.369,115.103,152.851,115.397,153.726z"/>
					<path style="fill:#263238;" d="M112.539,152.961c0.368-0.214,0.8-0.335,1.214-0.424c0.407-0.088,0.837-0.118,1.247-0.053
						c0.689,0.109,1.057,0.277,1.268,0.385c0.028,0.014,0.056,0.108,0.005,0.102c-0.341-0.043-0.641-0.102-1.135-0.123
						c-0.416-0.018-0.994,0.06-1.399,0.154c-0.637,0.149-0.884,0.229-1.59,0.574c-0.165,0.081-0.485,0.252-0.517,0.276
						c-0.047,0.036-0.085-0.091-0.061-0.13C111.777,153.393,112.211,153.151,112.539,152.961z"/>
				</g>
				<g>
					<path id="XMLID_00000002353476550804074470000016294429642327593407_" style="fill:#263238;" d="M99.157,153.965
						c-0.211,0.899,0.425,1.122,1.29,1.322c0.866,0.201,1.634,0.303,1.845-0.596c0.211-0.899-0.32-1.79-1.186-1.991
						C100.241,152.5,99.368,153.066,99.157,153.965z"/>
					<path style="fill:#263238;" d="M101.932,152.936c-0.387-0.178-0.828-0.259-1.249-0.309c-0.413-0.049-0.844-0.039-1.246,0.063
						c-0.676,0.173-1.026,0.375-1.226,0.502c-0.026,0.017-0.045,0.113,0.004,0.102c0.336-0.074,0.629-0.161,1.118-0.228
						c0.413-0.057,0.996-0.034,1.408,0.023c0.648,0.089,0.901,0.145,1.637,0.423c0.172,0.065,0.507,0.206,0.54,0.226
						c0.05,0.031,0.076-0.099,0.049-0.135C102.731,153.295,102.276,153.095,101.932,152.936z"/>
				</g>
				<g>
					<g id="XMLID_00000101796706857536006620000002065784110174455424_">
						<path id="XMLID_00000070815419004057172830000010429566737565287573_" style="fill:#263238;" d="M115.514,148.159
							l-3.764-1.316c0.339-1.045,1.457-1.597,2.496-1.234C115.286,145.973,115.853,147.115,115.514,148.159z"/>
					</g>
					<g id="XMLID_00000072253109161449680140000001642683079232995252_">
						<path id="XMLID_00000003824419482480303230000003716653481258166690_" style="fill:#263238;" d="M101.542,146.767
							l-3.808,1.924c-0.586-1.021-0.209-2.279,0.843-2.811C99.628,145.35,100.956,145.747,101.542,146.767z"/>
					</g>
					<g>
						<path style="fill:#37474F;" d="M120.28,149.286c-0.241-0.025-0.491-0.049-0.751-0.069c-2.423-0.193-5.577-0.193-7.452,0.399
							c-2.349,0.746-3.153,1.536-4.471,1.573c-1.41,0.026-2.337-0.727-4.912-1.36c-2.052-0.501-5.418-0.353-7.986-0.046
							c-0.276,0.033-0.543,0.069-0.798,0.105c-0.439,0.063-0.891,0.632-0.829,1.282c0.063,0.651,0.603,1.158,0.834,1.451
							c0.103,0.13,0.204,0.316,0.29,0.585c0.32,1.012,0.582,2.959,1.163,4.031c0.234,0.43,0.565,0.957,1.089,1.433
							c0.171,0.154,0.345,0.29,0.541,0.418c0.101,0.064,0.202,0.125,0.31,0.186c0.271,0.149,0.572,0.279,0.914,0.386
							c0.051,0.016,0.102,0.031,0.153,0.044c0.077,0.02,0.159,0.043,0.241,0.062c0.082,0.019,0.166,0.035,0.252,0.052
							c0.247,0.047,0.513,0.083,0.797,0.101c0.109,0.01,0.223,0.015,0.34,0.02c0.136,0.002,0.278,0.004,0.424,0.001
							c3.276-0.061,4.575-1.58,5.316-3.135c0.743-1.552,0.432-3.72,1.942-3.748c0.051-0.001,0.098,0,0.145,0.005
							c0.046,0.003,0.093,0.009,0.135,0.018c1.127,0.224,1.084,2.216,1.854,3.634c0.296,0.544,0.659,1.083,1.144,1.541
							c0.086,0.083,0.173,0.161,0.266,0.236c0.047,0.039,0.094,0.075,0.142,0.111c0.048,0.037,0.097,0.072,0.148,0.106
							c0.045,0.031,0.089,0.061,0.135,0.09c0.078,0.049,0.112,0.07,0.145,0.089c0.038,0.023,0.076,0.044,0.115,0.065
							c0.025,0.015,0.053,0.03,0.08,0.045c0.385,0.202,0.824,0.365,1.328,0.47c0.039,0.008,0.081,0.017,0.122,0.024
							c0.474,0.091,1.006,0.134,1.602,0.117c3.066-0.083,4.043-1.822,4.494-2.917c0.449-1.097,0.548-3.046,0.747-4.075
							c0.044-0.228,0.143-0.405,0.254-0.538c0.211-0.255,0.614-0.861,0.622-1.511C121.171,149.912,120.695,149.33,120.28,149.286z
							 M104.829,155.376c-0.112,0.593-0.372,1.45-1.037,2.165l-0.002,0.001c-0.671,0.717-1.755,1.289-3.513,1.302
							c-1.778,0.015-2.846-0.669-3.505-1.483c-0.042-0.051-0.081-0.101-0.116-0.151c-0.039-0.051-0.074-0.1-0.107-0.15
							c-0.033-0.046-0.063-0.094-0.091-0.141c-0.026-0.042-0.052-0.085-0.075-0.127c-0.021-0.034-0.04-0.067-0.057-0.101
							c-0.019-0.031-0.035-0.061-0.049-0.091c-0.026-0.05-0.053-0.102-0.077-0.152l0-0.002c-0.074-0.153-0.138-0.301-0.192-0.445
							c-0.002-0.003-0.002-0.007-0.005-0.011c-0.035-0.092-0.067-0.181-0.097-0.267c-0.053-0.156-0.096-0.302-0.133-0.431
							c-0.008-0.028-0.016-0.057-0.023-0.083c-0.008-0.026-0.016-0.053-0.023-0.079c-0.303-1.067-0.701-3.17-0.16-3.658
							c0.522-0.47,2.007-1.016,4.456-0.844c0.083,0.002,0.171,0.009,0.261,0.018c0.376,0.034,0.751,0.086,1.123,0.158
							c0.147,0.027,0.293,0.059,0.437,0.091c0.387,0.088,0.761,0.194,1.101,0.312c0.118,0.04,0.231,0.082,0.338,0.124
							c0.129,0.049,0.251,0.102,0.368,0.156c0.024,0.011,0.049,0.022,0.074,0.034c0.047,0.021,0.092,0.042,0.134,0.067
							c0.346,0.174,0.611,0.363,0.757,0.546C105.131,152.78,105.05,154.176,104.829,155.376z M119.032,154.598
							c-0.15,0.842-0.471,2.659-2.143,3.489c-0.476,0.237-1.069,0.393-1.796,0.419c-1.93,0.078-3.059-0.663-3.721-1.525
							c-0.004-0.005-0.009-0.011-0.011-0.016c-0.026-0.033-0.05-0.066-0.072-0.097c-0.028-0.038-0.054-0.077-0.079-0.113
							c-0.013-0.018-0.026-0.039-0.039-0.059c-0.035-0.055-0.07-0.113-0.101-0.168c-0.038-0.065-0.073-0.129-0.107-0.196
							c-0.018-0.031-0.033-0.063-0.049-0.095c-0.009-0.018-0.017-0.036-0.025-0.054c-0.013-0.028-0.025-0.054-0.036-0.081
							c-0.009-0.022-0.02-0.043-0.027-0.062c-0.125-0.288-0.211-0.56-0.272-0.795c-0.306-1.188-0.503-2.575-0.075-3.245
							c0.429-0.67,2.194-1.433,3.916-1.677c0.397-0.057,0.77-0.091,1.117-0.106c0.045-0.001,0.09-0.003,0.133-0.004
							c0.049-0.002,0.096-0.003,0.143-0.003c0.133-0.003,0.264-0.001,0.389,0.001c0.047,0.001,0.094,0.002,0.142,0.005
							c0.063,0.004,0.125,0.006,0.184,0.011c0.105,0.005,0.207,0.015,0.306,0.026c0.201,0.021,0.391,0.048,0.566,0.083
							c0.045,0.009,0.091,0.018,0.134,0.028c0.01,0.001,0.023,0.004,0.035,0.008c0.029,0.006,0.06,0.012,0.091,0.021
							c0.045,0.009,0.093,0.023,0.136,0.035c0.056,0.014,0.112,0.032,0.164,0.047c0.097,0.03,0.186,0.061,0.27,0.096
							c0.017,0.006,0.031,0.011,0.048,0.019c0.27,0.108,0.477,0.23,0.618,0.349C119.418,151.401,119.22,153.52,119.032,154.598z"/>
						<g id="XMLID_00000044158014697318017130000015009697220266066852_">
							<path style="fill:#F0997A;" d="M112.875,160.039l-5.613,2.248l-1.04-7.044c0.225-1.042,0.452-2.117,1.367-2.184
								L112.875,160.039z"/>
						</g>
						<path style="fill:#37474F;" d="M94.068,150.703l-8.663,3.851c0.43,0.295,0.68,0.486,1.304,1.072l7.541-3.171L94.068,150.703z"
							/>
					</g>
				</g>
			</g>
			<g id="Arm_00000181065570816867122480000006942508388752505520_">
				<g>
					<path style="fill:#FFBDA7;" d="M76.145,182.405c-7.9,2.017-10.979,4.046-13.256,9.793c-2.97,7.499-9.523,25.069-11.639,33.847
						c-1.137,4.716-1.907,6.857,2.337,11.919c3.518,4.196,12.158,11.357,20.069,16.871c1.56,1.088,6.483,4.945,7.974,5.768
						c9.052,4.993,19.654,3.968,19.654,3.968l-9.902-6.285l-1.719-3.435l-20.32-24.216c0,0,7.591-20.245,9.6-25.941
						C80.951,198.999,82.099,186.124,76.145,182.405z"/>
					<path style="fill:#F0997A;" d="M69.343,230.636c-2.816-2.954-6.995-3.043-6.995-3.043s3.132-1.433,7.752,1.085L69.343,230.636z
						"/>
				</g>
				<g>
					<g id="XMLID_00000166666254254589922180000007253767517689957308_">
						<g id="XMLID_00000011712270438728157160000017410956774568435640_">
							<path id="XMLID_00000154407617951765353440000017459294378994924683_" style="fill:#BA68C8;" d="M82.396,250.035l-0.041,0.94
								c-0.041,0.949,0.428,1.85,1.226,2.36l24.704,15.679c0.399,0.255,0.855,0.391,1.315,0.411c0.456,0.02,0.922-0.076,1.341-0.296
								l47.642-24.818c0.844-0.439,1.389-1.296,1.43-2.245l0.028-0.646l-50.365,26.238L82.396,250.035z"/>
						</g>
						<g id="XMLID_00000116957263022647076220000009654055597144246403_" style="opacity:0.5;">
							<path id="XMLID_00000160174318762237178230000012134403281828138140_" style="fill:#FFFFFF;" d="M82.396,250.035l-0.041,0.94
								c-0.041,0.949,0.428,1.85,1.226,2.36l24.704,15.679c0.399,0.255,0.855,0.391,1.315,0.411c0.456,0.02,0.922-0.076,1.341-0.296
								l47.642-24.818c0.844-0.439,1.389-1.296,1.43-2.245l0.028-0.646l-50.365,26.238L82.396,250.035z"/>
						</g>
						<g id="XMLID_00000054985463133265070810000002957643287761172615_" style="opacity:0.1;">
							<path id="XMLID_00000009558099457486531550000016350125967727509171_" d="M82.396,250.035l-0.041,0.94
								c-0.041,0.949,0.428,1.85,1.226,2.36l24.704,15.679c0.399,0.255,0.855,0.391,1.315,0.411c0.456,0.02,0.922-0.076,1.341-0.296
								l47.642-24.818c0.844-0.439,1.389-1.296,1.43-2.245l0.028-0.646l-50.365,26.238L82.396,250.035z"/>
						</g>
						<g id="XMLID_00000119112924719712017060000009246556103685932722_">
							<path id="XMLID_00000046314441355489264450000009737940950122882215_" style="fill:#BA68C8;" d="M160.042,241.419
								l-26.869-17.104c-0.478-0.304-1.082-0.33-1.584-0.069l-49.006,25.534c-0.241,0.125-0.255,0.464-0.026,0.61l27.12,17.268
								L160.042,241.419z"/>
						</g>
						<g id="XMLID_00000119809258583024312700000002639743109661602452_" style="opacity:0.85;">
							<path id="XMLID_00000036218352518640669650000014188904417570173588_" style="fill:#FFFFFF;" d="M160.042,241.419
								l-26.869-17.104c-0.478-0.304-1.082-0.33-1.584-0.069l-49.006,25.534c-0.241,0.125-0.255,0.464-0.026,0.61l27.12,17.268
								L160.042,241.419z"/>
						</g>
						<g id="XMLID_00000024718559545458589690000010507284528212051883_">
							<polygon id="XMLID_00000021841180303795956770000013050444849271140277_" style="fill:#BA68C8;" points="109.963,265.073 
								95.471,255.856 139.583,232.882 154.154,242.057 							"/>
						</g>
						<g id="XMLID_00000072974886103990730390000002323647823939419290_" style="opacity:0.6;">
							<polygon id="XMLID_00000007428869590540278550000017551650443265340346_" style="fill:#FFFFFF;" points="109.963,265.073 
								95.471,255.856 139.583,232.882 154.154,242.057 							"/>
						</g>
						<g id="XMLID_00000171712374670219513000000013038338366133831597_">
							<polygon id="XMLID_00000152965810710667015590000014111871349774667653_" style="fill:#BA68C8;" points="103.253,241.143 
								103.52,241.313 110.623,245.835 123.903,238.916 124.18,238.774 116.809,234.083 							"/>
						</g>
						<g id="XMLID_00000113349915252928176990000009923034239653398448_">
							<polygon id="XMLID_00000096037969434589002900000002102982237506736286_" style="fill:#BA68C8;" points="103.52,241.313 
								110.623,245.835 123.903,238.916 116.796,234.394 							"/>
						</g>
						<g id="XMLID_00000078037519545065532410000010722536281121576094_" style="opacity:0.6;">
							<polygon id="XMLID_00000089538073750011948640000011647247286884537994_" style="fill:#FFFFFF;" points="103.52,241.313 
								110.623,245.835 123.903,238.916 116.796,234.394 							"/>
						</g>
						<g id="XMLID_00000013898394492804452470000014194979159559282081_">
							<path id="XMLID_00000055695180487649131120000003150812138454515347_" style="fill:#BA68C8;" d="M109.677,267.657
								l-0.077,1.768c0.456,0.02,0.922-0.076,1.341-0.296l47.642-24.818c0.844-0.439,1.389-1.296,1.43-2.245l0.028-0.646
								L109.677,267.657z"/>
						</g>
						<g id="XMLID_00000115481929203833061030000008257942010582046138_" style="opacity:0.03;">
							<path id="XMLID_00000044137665929777103080000018234446220866381983_" style="fill:#FFFFFF;" d="M109.677,267.657
								l-0.077,1.768c0.456,0.02,0.922-0.076,1.341-0.296l47.642-24.818c0.844-0.439,1.389-1.296,1.43-2.245l0.028-0.646
								L109.677,267.657z"/>
						</g>
						<g id="XMLID_00000076601591427631488930000018024259040706953149_" style="opacity:0.2;">
							<path id="XMLID_00000068674998740535001300000009475152756651635350_" d="M109.677,267.657l-0.077,1.768
								c0.456,0.02,0.922-0.076,1.341-0.296l47.642-24.818c0.844-0.439,1.389-1.296,1.43-2.245l0.028-0.646L109.677,267.657z"/>
						</g>
						<g id="XMLID_00000060728749089099531080000004629017252420181376_">
							<path id="XMLID_00000101099652155212518370000014835843845801932691_" style="fill:#BA68C8;" d="M110.409,268.082
								c0.865,0.378,1.867,0.356,2.721-0.092l47.432-24.71c0.835-0.435,1.428-1.215,1.626-2.134l6.376-29.99
								c0.035-0.171,0.057-0.343,0.064-0.515c0.037-0.842-0.264-1.661-0.833-2.278l-49.292,25.683
								c-0.615,0.323-1.055,0.9-1.201,1.579L110.409,268.082z"/>
						</g>
						<g id="XMLID_00000008118655887051561870000002465065863004633473_" style="opacity:0.4;">
							<path id="XMLID_00000123418372806899112560000007572318528543928972_" style="fill:#FFFFFF;" d="M110.409,268.082
								c0.865,0.378,1.867,0.356,2.721-0.092l47.432-24.71c0.835-0.435,1.428-1.215,1.626-2.134l6.376-29.99
								c0.035-0.171,0.057-0.343,0.064-0.515c0.037-0.842-0.264-1.661-0.833-2.278l-49.292,25.683
								c-0.615,0.323-1.055,0.9-1.201,1.579L110.409,268.082z"/>
						</g>
						<g id="XMLID_00000177456470847689915450000004880655486834287790_">
							<path id="XMLID_00000081637546306399161700000000233997708709469348_" style="fill:#BA68C8;" d="M109.677,267.659
								l0.308,0.195c0.136,0.085,0.277,0.161,0.424,0.228l6.893-32.457c0.146-0.679,0.586-1.256,1.201-1.579l49.292-25.683
								c-0.178-0.194-0.389-0.366-0.621-0.516l-49.392,25.73c-0.615,0.323-1.055,0.9-1.201,1.579L109.677,267.659z"/>
						</g>
						<g id="XMLID_00000093136773124734100020000018008611532625134999_" style="opacity:0.6;">
							<path id="XMLID_00000133492975192913259930000005385656703681862588_" style="fill:#FFFFFF;" d="M109.677,267.659
								l0.308,0.195c0.136,0.085,0.277,0.161,0.424,0.228l6.893-32.457c0.146-0.679,0.586-1.256,1.201-1.579l49.292-25.683
								c-0.178-0.194-0.389-0.366-0.621-0.516l-49.392,25.73c-0.615,0.323-1.055,0.9-1.201,1.579L109.677,267.659z"/>
						</g>
						<path style="fill:#BA68C8;" d="M117.781,234.644l-0.726-0.464c-0.229,0.282-0.396,0.612-0.474,0.975l-6.904,32.503
							l0.308,0.195c0.136,0.085,0.277,0.161,0.424,0.228l6.893-32.457C117.381,235.259,117.55,234.927,117.781,234.644z"/>
						<path style="opacity:0.5;fill:#FFFFFF;" d="M117.781,234.644l-0.726-0.464c-0.229,0.282-0.396,0.612-0.474,0.975
							l-6.904,32.503l0.308,0.195c0.136,0.085,0.277,0.161,0.424,0.228l6.893-32.457
							C117.381,235.259,117.55,234.927,117.781,234.644z"/>
						<path style="opacity:0.5;fill:#BA68C8;" d="M117.781,234.644l-0.726-0.464c-0.229,0.282-0.396,0.612-0.474,0.975
							l-6.904,32.503l0.308,0.195c0.136,0.085,0.277,0.161,0.424,0.228l6.893-32.457
							C117.381,235.259,117.55,234.927,117.781,234.644z"/>
						<g id="XMLID_00000182504261287831620910000017274781599198701200_">
							<path id="XMLID_00000088121559542421951320000007720054445226833332_" style="fill:#BA68C8;" d="M137.68,241.324
								c0.427-2.008,2.632-4.604,4.924-5.798c2.293-1.194,3.805-0.535,3.378,1.473c-0.427,2.008-2.632,4.604-4.924,5.798
								C138.766,243.991,137.253,243.332,137.68,241.324z"/>
						</g>
					</g>
				</g>
				<path style="fill:#FFBDA7;" d="M81.541,247.341c2.583,1.896,6.145,0.489,9.616,0.986c3.471,0.497,6.432,1.411,9.227,1.39
					c2.795-0.021,4.157,0.576,2.156,2.772c-2.002,2.196-7.587,0.788-9.113,1.436c-1.526,0.649-2.523,3.067-0.816,5.141
					c1.597,1.941-9.305-1.977-10.721-4.268C80.474,252.508,79.546,247.587,81.541,247.341z"/>
				<path style="fill:#E6E6E6;" d="M76.145,182.405c-5.309,0.93-7.521,2.089-10.326,4.234c-2.805,2.145-11.308,20.652-11.308,20.652
					s4.559,6.717,20.567,9.553c0,0,4.904-12.116,5.911-15.972C81.995,197.016,83.519,185.518,76.145,182.405z"/>
			</g>
		</g>
	</g>
</g>
<g id="Speech_Bubble_2">
	<g id="Speech_Bubble_00000103954763486502680070000000137830735968769923_">
		<g id="Speech_Bubble_00000085943536739787780380000009275123472814666399_">
			<g>
				<path style="fill:#BA68C8;" d="M59.26,131.455l0.996-3.111c0.537-2.513-9.716,3.406-10.253,5.919l3.304,8.892
					c0.127,0.29,0.323,0.505,0.554,0.647c0.726,0.447,3.397,1.953,3.629,2.095c0.731,0.448,1.807,0.167,2.112-0.785l4.279-14.676
					C64.147,129.198,61.785,130.012,59.26,131.455z"/>
				<path style="opacity:0.2;fill:#FFFFFF;" d="M59.26,131.455l0.996-3.111c0.537-2.513-9.716,3.406-10.253,5.919l3.304,8.892
					c0.127,0.29,0.323,0.505,0.554,0.647c0.726,0.447,3.397,1.953,3.629,2.095c0.731,0.448,1.807,0.167,2.112-0.785l4.279-14.676
					C64.147,129.198,61.785,130.012,59.26,131.455z"/>
			</g>
			<g id="XMLID_00000045577010795996453880000009614541683979809198_">
				<path id="XMLID_00000080201793596242068430000006768386957422093968_" style="fill:#BA68C8;" d="M73.194,71.684L34.217,94.169
					c-0.728,0.42-1.318,1.442-1.318,2.282v46.184c0,0.84,0.593,1.856,1.325,2.269l2.411,1.363c0.732,0.413,1.915,0.407,2.643-0.013
					l38.977-22.484c0.728-0.42,1.317-1.442,1.317-2.282V75.304c0-0.84-0.593-1.856-1.325-2.269l-2.411-1.363
					C75.105,71.259,73.922,71.264,73.194,71.684z"/>
				<path id="XMLID_00000121978312727071040600000004835895931322836378_" style="opacity:0.2;fill:#FFFFFF;" d="M73.194,71.684
					L34.217,94.169c-0.728,0.42-1.318,1.442-1.318,2.282v46.184c0,0.84,0.593,1.856,1.325,2.269l2.411,1.363
					c0.732,0.413,1.915,0.407,2.643-0.013l38.977-22.484c0.728-0.42,1.317-1.442,1.317-2.282V75.304c0-0.84-0.593-1.856-1.325-2.269
					l-2.411-1.363C75.105,71.259,73.922,71.264,73.194,71.684z"/>
				<path style="fill:#BA68C8;" d="M78.255,74.543L39.278,97.028c-0.728,0.42-1.318,1.442-1.318,2.282v46.184
					c0,0.84,0.59,1.181,1.318,0.76l14.916-8.604l2.74,7.599c0.527,1.207,2.267,1.119,2.669-0.135l3.642-12.685l15.01-8.659
					c0.728-0.42,1.317-1.442,1.317-2.282V75.304C79.572,74.464,78.983,74.123,78.255,74.543z"/>
				<path style="opacity:0.4;fill:#FFFFFF;" d="M78.255,74.543L39.278,97.028c-0.728,0.42-1.318,1.442-1.318,2.282v46.184
					c0,0.84,0.59,1.181,1.318,0.76l14.916-8.604l2.74,7.599c0.527,1.207,2.267,1.119,2.669-0.135l3.642-12.685l15.01-8.659
					c0.728-0.42,1.317-1.442,1.317-2.282V75.304C79.572,74.464,78.983,74.123,78.255,74.543z"/>
				<g>
					<g>
						<path style="fill:#FFFFFF;" d="M56.705,97.731v3.556l-2.364,1.971v15.356c0,1.94,0.391,3.165,1.174,3.676
							c0.783,0.511,1.856,0.373,3.22-0.414c1.384-0.799,2.47-1.904,3.258-3.316c0.788-1.411,1.182-3.094,1.182-5.047V98.157
							l-2.349,0.75v-3.556l9.138-5.276v3.556l-2.364,1.971v15.356c0,3.3-0.816,6.317-2.447,9.051
							c-1.632,2.733-3.771,4.864-6.418,6.393c-2.637,1.522-4.766,1.856-6.388,1c-1.622-0.855-2.432-2.933-2.432-6.233v-15.356
							l-2.349,0.75v-3.556l2.349-1.356l4.425-2.555L56.705,97.731z"/>
					</g>
				</g>
				<path id="XMLID_00000127722921582340684080000016116707416854005397_" style="opacity:0.7;fill:#FFFFFF;" d="M79.555,75.065
					c-0.103-0.664-0.645-0.901-1.302-0.524L39.28,97.028c-0.365,0.213-0.694,0.572-0.931,0.986l-5.037-2.908
					c0.237-0.396,0.554-0.736,0.907-0.937l38.978-22.486c0.724-0.42,1.905-0.426,2.641-0.012l2.408,1.362
					C78.91,73.41,79.464,74.28,79.555,75.065z"/>
			</g>
		</g>
	</g>
</g>
<g id="Character_2">
	<g id="Character_9_">
		<g id="Arm_00000138573289688101364670000002689416140904467872_">
			<path style="fill:#C8856A;" d="M261.821,154.096c8.515,0.212,13.484,4.875,16.264,13.738c2.716,8.659,6.632,21.846,7.547,28.017
				c0.915,6.171,3.845,34.126,3.845,34.126l-10.657,0.945l-10.644-31.705l-4.938-20.894L261.821,154.096z"/>
			<g id="Book_00000030471480273827797790000006004431593146138504_">
				<g id="XMLID_00000067949401842873956880000007492782065243596452_">
					<polygon style="fill:#BA68C8;" points="298.509,245.93 298.456,221.629 266.199,202.572 266.25,226.872 					"/>
					<polygon style="opacity:0.4;" points="298.509,245.93 298.456,221.629 266.199,202.572 266.25,226.872 					"/>
				</g>
				<g id="XMLID_00000011742452437155120270000007711094073987036570_">
					<path style="fill:#F5F5F5;" d="M297.583,221.861l-0.01,23.517c-1.504,0.27-2.047,0.621-3.432,2.068l-0.031-23.35
						C294.11,224.095,294.084,223.685,297.583,221.861z"/>
				</g>
				<g id="XMLID_00000034775006245657512170000011654884954802104711_">
					<path style="fill:#BA68C8;" d="M293.23,225.736c0.006-1.189,0.845-2.628,1.875-3.212l2.366-1.343
						c1.03-0.585,1.861-0.094,1.855,1.096l-0.009,23.192l-0.808,0.462l-0.053-22.864c0.003-0.714-0.495-1.008-1.112-0.656
						l-2.118,1.222c-0.618,0.351-1.121,1.214-1.125,1.928l0.038,22.847l-0.918,0.521L293.23,225.736z"/>
					<path style="opacity:0.25;" d="M293.23,225.736c0.006-1.189,0.845-2.628,1.875-3.212l2.366-1.343
						c1.03-0.585,1.861-0.094,1.855,1.096l-0.009,23.192l-0.808,0.462l-0.053-22.864c0.003-0.714-0.495-1.008-1.112-0.656
						l-2.118,1.222c-0.618,0.351-1.121,1.214-1.125,1.928l0.038,22.847l-0.918,0.521L293.23,225.736z"/>
				</g>
				<path style="fill:#BA68C8;" d="M293.223,248.927l-32.257-19.057l0.008-23.19c0.006-1.189,0.846-2.628,1.875-3.213l2.366-1.343
					c0.514-0.29,0.977-0.316,1.315-0.116l32.257,19.057c-0.337-0.199-0.801-0.174-1.315,0.116l-2.37,1.342
					c-1.029,0.584-1.87,2.023-1.875,3.212L293.223,248.927z"/>
				<g id="XMLID_00000057145900783194306530000012981472571659668130_">
					<path style="fill:#BA68C8;" d="M293.781,223.902c0.34-0.581,0.807-1.087,1.322-1.379l2.37-1.342
						c0.513-0.29,0.977-0.315,1.315-0.116l-32.257-19.057c-0.337-0.199-0.801-0.174-1.315,0.116l-2.366,1.343
						c-0.515,0.292-0.982,0.798-1.322,1.379L293.781,223.902z"/>
					<path style="opacity:0.15;" d="M293.781,223.902c0.34-0.581,0.807-1.087,1.322-1.379l2.37-1.342
						c0.513-0.29,0.977-0.315,1.315-0.116l-32.257-19.057c-0.337-0.199-0.801-0.174-1.315,0.116l-2.366,1.343
						c-0.515,0.292-0.982,0.798-1.322,1.379L293.781,223.902z"/>
				</g>
				<g>
					<path style="fill:#BA68C8;" d="M265.862,207.434c1.989-1.825,3.067-2.427,5.039-2.86l1.54,0.905
						c-1.972,0.433-3.05,1.035-5.039,2.86L265.862,207.434z"/>
					<path style="fill:#BA68C8;" d="M287.047,219.917c1.988-1.825,3.029-2.405,5.001-2.838l1.54,0.905
						c-1.972,0.433-3.019,1.018-5.007,2.842L287.047,219.917z"/>
				</g>
				<g style="opacity:0.4;">
					<path style="fill:#FFFFFF;" d="M265.862,207.434c1.989-1.825,3.067-2.427,5.039-2.86l1.54,0.905
						c-1.972,0.433-3.05,1.035-5.039,2.86L265.862,207.434z"/>
					<path style="fill:#FFFFFF;" d="M287.047,219.917c1.988-1.825,3.029-2.405,5.001-2.838l1.54,0.905
						c-1.972,0.433-3.019,1.018-5.007,2.842L287.047,219.917z"/>
				</g>
			</g>
			<path style="fill:#C8856A;" d="M287.047,245.279c-0.291,1.219-2.932,1.797-3.922,1.467c-0.991-0.33-6.356-2.971-6.934-3.962
				c-0.578-0.99-1.816-3.797-1.568-5.035c0.248-1.238,0.825-4.21,2.064-3.88c1.238,0.33,1.278,1.536,1.278,1.536
				s0.589-2.233,1.598-2.059c0.776,0.134,1.716,1.25,1.611,2.469c1.374-0.143,2.281,0.877,2.281,2.281
				c1.046,0.209,1.653,1.297,1.38,3.621c-0.042,1.234,0.592,2.604,0.592,2.604L287.047,245.279z"/>
			<path style="fill:#455A64;" d="M261.481,153.363c7.394,0.627,11.961,2.768,14.958,9.404c2.997,6.636,7.493,23.951,7.493,23.951
				s-4.802,6.091-17.983,5.092l-3.211-13.559L261.481,153.363z"/>
		</g>
		<g id="Backpack_00000156563477912753431380000009663081150389010839_">
			<path style="fill:#263238;" d="M194.341,175.76c0.488,0.222,5.48-0.944,10.171-2.762l-0.002-17.749c0,0-6.105,0.609-8.044,7.573
				C193.125,174.817,194.341,175.76,194.341,175.76z"/>
			<path style="fill:#BA68C8;" d="M231.059,146.976c4.42-0.074,9.587,2.115,11.139,5.554c0.264,0.585,2.117,5.105,2.117,5.105
				c2.487,11.99,6.971,42.868,3.818,46.695c-4.723,5.732-27.971,16.966-38.161,16.647c-8.406-0.263-16.517-7.914-17.686-10.222
				c-3.838-7.575,6.232-49.785,8.899-54.021C205.505,149.869,225.428,147.07,231.059,146.976z"/>
			<path style="opacity:0.18;" d="M248.132,204.33c-4.723,5.732-27.971,16.966-38.161,16.647c-2.274-0.071-4.521-0.693-6.62-1.593
				c2.375,1.12,5.164-0.018,5.936-3.104c0.778-3.111,2.062-27.821,2.062-49l32.966-9.645
				C246.802,169.625,251.286,200.503,248.132,204.33z"/>
			<path style="opacity:0.5;" d="M200.129,158.996c0.398-1.364,0.774-2.202,1.055-2.649c4.321-6.865,24.244-9.664,29.875-9.759
				c4.42-0.074,9.587,2.115,11.138,5.554c0.252,0.559,2.117,5.105,2.117,5.105c-8.834,4.687-30.921,9.454-33.266,8.601
				C208.166,164.801,200.129,158.996,200.129,158.996z"/>
			<g>
				<path style="fill:#BA68C8;" d="M194.088,191.63c0.213-0.099,3.359-2.299,3.722-2.467c0.639-0.298,9.537,6.171,10.344,7.245
					c0.561,0.747-0.977,16.1-1.361,16.89c-0.138,0.284-3.584,2.184-3.722,2.467c-0.385,0.79-9.788-5.797-10.336-7.334
					C192.187,206.895,193.149,192.068,194.088,191.63z"/>
				<path style="opacity:0.18;" d="M194.088,191.63c0.213-0.099,3.359-2.299,3.722-2.467c0.639-0.298,9.537,6.171,10.344,7.245
					c0.561,0.747-0.977,16.1-1.361,16.89c-0.138,0.284-3.584,2.184-3.722,2.467c-0.385,0.79-9.788-5.797-10.336-7.334
					C192.187,206.895,193.149,192.068,194.088,191.63z"/>
				<path style="fill:#BA68C8;" d="M204.432,198.875c0.561,0.747-0.977,16.1-1.361,16.891c-0.385,0.79-9.788-5.797-10.337-7.334
					c-0.548-1.537,0.415-16.364,1.353-16.801C194.727,191.333,203.625,197.801,204.432,198.875z"/>
				<path style="opacity:0.4;" d="M197.807,189.164c-0.359,0.165-3.505,2.369-3.716,2.465c0.634-0.296,9.534,6.173,10.339,7.243
					l3.723-2.465C207.348,195.331,198.449,188.863,197.807,189.164z"/>
				<path style="opacity:0.3;" d="M204.432,198.875c0.561,0.747-0.977,16.1-1.361,16.891c-0.385,0.79-9.788-5.797-10.337-7.334
					c-0.548-1.537,0.415-16.364,1.353-16.801C194.727,191.333,203.625,197.801,204.432,198.875z"/>
				<path style="fill:#BA68C8;" d="M208.153,196.408c-0.661-0.465-2.726,0.544-3.628,1.266c-0.902,0.721-1.973,4.217-4.252,4.697
					c-2.279,0.48-5.363-2.619-5.965-4.556c-0.602-1.937-1.256-5.986-0.111-7.383c1.145-1.397,3.081-2.111,4.65-1.192
					C200.415,190.159,208.02,194.64,208.153,196.408z"/>
				<path style="opacity:0.1;" d="M208.153,196.408c-0.661-0.465-2.726,0.544-3.628,1.266c-0.902,0.721-1.973,4.217-4.252,4.697
					c-2.279,0.48-5.363-2.619-5.965-4.556c-0.602-1.937-1.256-5.986-0.111-7.383c1.145-1.397,3.081-2.111,4.65-1.192
					C200.415,190.159,208.02,194.64,208.153,196.408z"/>
				<path style="fill:#37474F;" d="M198.24,198.164c0.492,0.291,0.819,1.001,0.731,1.585c-0.088,0.585-0.56,0.836-1.054,0.561
					c-0.494-0.275-0.821-0.985-0.731-1.586C197.277,198.124,197.749,197.873,198.24,198.164z"/>
			</g>
			<path style="fill:#37474F;" d="M211.349,166.892c0,0-3.108-2.134-6.878-4.311c-3.77-2.177-5.873-2.923-7.215,1.452
				c-1.43,4.663-2.81,10.452-2.915,11.727c-0.721-0.35-0.643-1.647-0.14-7.231c0.731-8.123-0.3-11.747,8.107-15
				c13.035-5.044,23.983-9.007,31.442-7.336c7.459,1.671,9.207,5.851,10.563,11.054
				C244.314,157.247,235.251,165.472,211.349,166.892z"/>
		</g>
		<g id="Bottom_11_">
			<g>
				<g id="XMLID_5271_">
					<path id="XMLID_5272_" style="fill:#C8856A;" d="M270.954,355.364c0.08-5.01,1.457-43.714,1.457-43.714l-21.026,11.418
						c2.243,22.418,4.43,33.036,4.6,36.909l0,0c-0.035,0.085,0.121,0.244,0.108,0.794c-0.131,4.415,5.233,6.985,9.381,10.076
						c1.639,1.221,6.402,4.823,11.256,7.262c3.038,1.527,9.978,0.785,10.815-1.004c-5.047-3.791-10.182-7.205-13.749-11.794
						C271.912,362.888,270.88,360.012,270.954,355.364z"/>
				</g>
				<g>
					<path style="fill:#263238;" d="M295.517,383.253c0.264,0.009,0.575,2.696-0.903,3.781c-1.706,1.253-6.655,3.235-13.073,2.247
						c-6.418-0.988-9.846-2.934-12.358-4.999c-2.512-2.065-6.032-4.977-8.927-5.667c-2.689-0.641-5.592-1.866-6.432-2.663
						c-0.841-0.796-0.605-4.197-0.605-4.197L295.517,383.253z"/>
					<path id="XMLID_5269_" style="fill:#37474F;" d="M255.865,358.783c0,0-0.445-0.061-0.638,0.722
						c-0.23,0.931-0.536,3.652-1.014,5.177c-0.663,2.12-1.208,6.493-0.912,8.25c0.296,1.757,4.669,3.124,7.457,4.205
						c2.847,1.105,6.11,3.291,8.96,5.601c2.951,2.39,9.243,4.906,13.441,5.109c6.409,0.31,10.614-1.136,11.968-3.199
						c1.674-2.553,1.16-5.197-6.103-8.58c-1.375-0.64-6.28-3.643-7.81-4.808c-4.309-3.28-5.424-4.721-7.706-9.073
						c-0.275-0.525-0.461-1.256-1-1.939c-0.293-0.372-0.939-0.919-2.396-0.688c-1.222,0.194-5.177,0.689-6.312,1.138
						c-1.003,0.397-2.423,0.849-2.441,2.009c-0.006,0.403,0.108,0.801,0.238,1.188c0.081,0.239,0.139,0.557-0.092,0.689
						c-0.218,0.125-0.497-0.036-0.683-0.2c-0.75-0.659-1.288-1.489-1.913-2.251c-0.334-0.408-0.701-0.8-1.129-1.128
						c-0.389-0.298-0.894-0.457-1.237-0.792C256.108,359.789,256.002,359.457,255.865,358.783z"/>
					<path style="fill:#FAFAFA;" d="M290.195,376.624c-9.302,0.26-13.081,6.493-13.585,9.725c2.275,0.826,4.63,1.405,6.548,1.498
						c6.409,0.31,10.878-1.124,12.231-3.187C296.969,382.25,296.698,379.14,290.195,376.624z"/>
					<g>
						<g>
							<path style="fill:#F0F0F0;" d="M275.598,377.313c-0.101-0.003-0.201-0.037-0.284-0.104c-0.189-0.152-0.208-0.414-0.044-0.586
								c1.341-1.403,5.811-4.278,9.173-3.824c0.249,0.033,0.422,0.244,0.387,0.471c-0.034,0.226-0.257,0.384-0.512,0.35
								c-3.139-0.415-7.301,2.44-8.365,3.552C275.862,377.27,275.73,377.318,275.598,377.313z"/>
						</g>
						<g>
							<path style="fill:#F0F0F0;" d="M271.673,375.042c-0.101-0.003-0.201-0.037-0.284-0.104c-0.19-0.151-0.208-0.414-0.044-0.586
								c1.342-1.404,5.814-4.284,9.173-3.824c0.249,0.033,0.422,0.245,0.387,0.471c-0.034,0.226-0.253,0.383-0.512,0.35
								c-3.138-0.419-7.301,2.44-8.365,3.552C271.936,374.999,271.804,375.047,271.673,375.042z"/>
						</g>
						<g>
							<path style="fill:#F0F0F0;" d="M268.051,372.478c-0.101-0.004-0.202-0.038-0.284-0.104c-0.189-0.151-0.208-0.414-0.044-0.586
								c1.341-1.404,6.822-4.862,10.169-4.405c0.249,0.033,0.422,0.245,0.387,0.471c-0.034,0.226-0.255,0.382-0.512,0.35
								c-3.135-0.417-8.297,3.021-9.36,4.134C268.315,372.435,268.183,372.483,268.051,372.478z"/>
						</g>
						<g>
							<path style="fill:#F0F0F0;" d="M264.504,369.916c-0.099-0.003-0.197-0.036-0.279-0.1c-0.192-0.149-0.215-0.411-0.054-0.585
								c1.847-1.992,7.585-4.876,10.943-4.421c0.249,0.033,0.422,0.245,0.387,0.471c-0.034,0.226-0.256,0.377-0.512,0.351
								c-3.024-0.408-8.486,2.373-10.125,4.139C264.772,369.872,264.637,369.921,264.504,369.916z"/>
						</g>
					</g>
				</g>
			</g>
			<g>
				<g id="XMLID_5265_">
					<path id="XMLID_5268_" style="fill:#C8856A;" d="M226.86,333.645l-20.345-3.006c-0.973,12.397-0.548,23.329-1.937,34.408
						c-0.261,2.085-2.577,16.13-2.388,20.521c0.285,6.597,8.93,7.456,9.972,3.674c1.043-3.781,5.582-21.412,5.873-23.101
						c1.902-6.646,3.832-14.118,7.777-28.251C225.984,337.274,226.676,334.241,226.86,333.645z"/>
				</g>
				<g>
					<path style="fill:#263238;" d="M215.576,392.048c-0.142,4.081-1.396,7.449-3.281,9.058c-2.054,1.753-4.559,2.445-7.351,1.665
						c-2.792-0.781-6.05-2.752-6.985-6.011c-1.13-3.939-0.568-6.145,0.234-9.648L215.576,392.048z"/>
					<path id="XMLID_5249_" style="fill:#37474F;" d="M204.74,363.692c-1.166,0.031-1.742,5.128-2.645,10.218
						c-0.968,5.455-2.862,7.644-3.708,12.114c-0.967,5.107-0.602,7.997,1.225,11.193c1.827,3.196,8.657,6.557,12.293,2.26
						c2.965-3.503,4.159-7.329,4.137-12.473c-0.023-5.318,0.546-8.973,0.965-12.989c0.402-3.838,2.019-7.399,1.028-7.873
						c-0.678,1.914-1.394,4.795-1.774,4.041c-0.038-0.494-0.006-0.952,0.053-1.451c0.051-0.434,0.033-0.91-0.262-1.255
						c-0.297-0.348-0.799-0.479-1.266-0.585c-1.135-0.259-4.624-1.233-5.782-1.381c-0.577-0.074-1.156-0.125-1.738-0.145
						c-0.471-0.016-1.028-0.005-1.481,0.126c-0.279,0.081-0.54,0.248-0.653,0.494c-0.083,0.182-0.079,0.386-0.087,0.584
						c-0.016,0.356-0.081,0.709-0.194,1.049c-0.05,0.149-0.172,0.33-0.337,0.285c-0.134-0.036-0.18-0.192-0.175-0.319
						c0.024-0.62,0.13-1.068,0.195-1.787c0.029-0.333,0.109-0.785,0.13-1.119C204.682,364.349,204.701,364.02,204.74,363.692z"/>
					<path style="fill:#FAFAFA;" d="M197.814,388.984c-0.346,3.183-0.072,5.958,1.358,8.46c1.827,3.196,8.769,6.196,12.854,2.296
						c2.039-1.947,3.193-5.03,3.549-7.691C213.673,388.525,201.193,386.209,197.814,388.984z"/>
					<g>
						<g>
							<path style="fill:#F0F0F0;" d="M213.052,386.817c-0.048-0.007-0.096-0.021-0.142-0.043
								c-0.046-0.022-5.767-3.043-11.053-2.169c-0.234,0.035-0.459-0.104-0.504-0.319c-0.044-0.215,0.111-0.42,0.345-0.459
								c5.591-0.921,11.415,2.154,11.616,2.251c0.21,0.105,0.291,0.344,0.179,0.536
								C213.407,386.764,213.227,386.841,213.052,386.817z"/>
						</g>
						<g>
							<path style="fill:#F0F0F0;" d="M202.314,380.786c-0.162-0.022-0.304-0.128-0.354-0.281c-0.066-0.21,0.064-0.429,0.292-0.489
								c5.285-1.382,11.393,2.046,11.606,2.161c0.207,0.11,0.277,0.351,0.157,0.54c-0.12,0.187-0.387,0.246-0.589,0.14
								c-0.048-0.025-6.013-3.372-10.93-2.081C202.436,380.792,202.374,380.795,202.314,380.786z"/>
						</g>
						<g>
							<path style="fill:#F0F0F0;" d="M202.777,377.188c-0.159-0.022-0.299-0.125-0.351-0.275c-0.071-0.21,0.055-0.43,0.283-0.493
								c5.817-1.622,11.622,2.018,11.82,2.14c0.198,0.122,0.252,0.368,0.12,0.548c-0.132,0.181-0.405,0.229-0.598,0.106
								c-0.044-0.028-5.669-3.547-11.084-2.039C202.903,377.193,202.838,377.196,202.777,377.188z"/>
						</g>
						<g>
							<path style="fill:#EBEBEB;" d="M203.315,373.145c-0.157-0.021-0.296-0.122-0.349-0.27c-0.074-0.208,0.048-0.43,0.275-0.496
								c5.455-1.599,11.676,2.125,11.892,2.254c0.202,0.116,0.261,0.361,0.134,0.545c-0.126,0.184-0.392,0.24-0.595,0.118
								c-0.05-0.029-6.096-3.652-11.162-2.166C203.445,373.15,203.379,373.154,203.315,373.145z"/>
						</g>
					</g>
				</g>
			</g>
			<g>
				<path id="XMLID_00000174598064830505164840000017161279506047669920_" style="fill:#263238;" d="M226.363,199.259
					c-0.525,2.284-0.973,3.195-1.874,4.311c-5.51,6.817-8.14,13.49-9.139,26.259c-2.471,31.588-3.159,64.397-3.159,64.397
					c-0.352,2.78-3.013,7.614-4.784,22.021c-1.549,12.606-1.991,29.954-1.991,29.954s14.778,2.652,19.124-1.359
					c2.457-9.363,10.137-33.095,14.306-46.705c3.785-12.357,6.759-30.651,6.759-30.651l4.488,25.741c0,0-1.265,7.009-0.533,16.488
					c0.656,8.511,3.661,30.613,3.661,30.613c2.696,2.952,15.444,2.927,18.778-1.189c0,0,3.712-37.155,4.254-47.393
					c1.008-19.052,4.834-57.583-3.44-83.673c-0.354-1.115-1.922-7.33-1.922-7.33C263.773,205.979,235.307,205.613,226.363,199.259z"
					/>
				<path style="fill:#455A64;" d="M238.835,208.792c-0.205-0.052-0.416,0.055-0.473,0.241c-0.446,1.454-0.796,2.764-1.135,4.03
					c-1.225,4.579-2.11,7.888-5.887,11.312c-3.515,3.185-7.918,3.172-9.25,3.084c1.991-9.393,5.639-16.802,11.184-22.804
					c0.137-0.148,0.116-0.37-0.047-0.496c-0.16-0.124-0.404-0.109-0.541,0.039c-5.702,6.172-9.427,13.793-11.426,23.475
					c-0.005,0.015-0.014,0.027-0.017,0.043c-0.002,0.01,0.002,0.019,0.002,0.029c-0.741,3.609-1.25,7.495-1.522,11.711
					c-1.147,17.777-2.88,44.642-3.478,51.692c-0.32,3.772-1.347,7.014-2.647,11.119c-1.12,3.538-2.39,7.548-3.607,13.063
					c-2.631,11.926-2.468,31.719-2.466,31.917c0.001,0.189,0.165,0.342,0.368,0.351c0.006,0,0.013,0,0.02,0
					c0.212,0,0.383-0.158,0.381-0.352c-0.002-0.198-0.164-19.919,2.451-31.773c1.21-5.485,2.475-9.481,3.592-13.006
					c1.312-4.143,2.348-7.416,2.675-11.26c0.598-7.056,2.332-33.925,3.479-51.705c0.263-4.078,0.748-7.845,1.452-11.346
					c0.114,0.009,0.243,0.019,0.402,0.026c1.733,0.078,6.007-0.106,9.537-3.307c3.93-3.562,4.837-6.951,6.092-11.642
					c0.337-1.261,0.686-2.565,1.128-4.008C239.158,209.041,239.04,208.846,238.835,208.792z"/>
				<path style="fill:#455A64;" d="M205.533,342.297c2.677,2.668,14.626,4.583,19.006,2.544l-2.119,6.835
					c0,0-3.155,1.361-9.345,0.539c-7.18-0.952-7.847-3.214-7.847-3.214L205.533,342.297z"/>
				<path style="fill:#455A64;" d="M253.219,340.327c3.651,1.351,14.633,1.057,18.778-1.189l-0.378,5.701
					c0,0-2.898,1.997-9.131,2.358c-6.258,0.363-8.683-1.39-8.683-1.39L253.219,340.327z"/>
				<path id="XMLID_00000095341098157069121890000017354000406543851173_" d="M245.604,267.485l5.475-31.057
					c0,0,9.415,1.1,16.634-6.875c0,0-0.085,7.822-13.504,10.816l-6.165,28.579l2.047,24.277L245.604,267.485z"/>
			</g>
		</g>
		<g id="Top_00000124862485261285709400000012204650913959808163_">
			<g>
				<path style="fill:#F0F0F0;" d="M217.163,216.766c2.168-11.066,6.702-17.246,6.805-20.749c0,0-3.184-17.61-3.639-21.761
					c-1.185-10.802-1.101-16.084,1.263-18.794c2.206-0.624,12.977-2.735,14.687-2.809c9.051-0.388,10.385-0.361,17.347-0.256
					c2.611,0.137,7.854,0.965,7.854,0.965c2.393,1.818,4.718,4.163,7.781,7.718c5.533,6.421,7.267,10.74,6.383,17.344
					c-0.599,4.473-3.664,7.774-3.664,7.774c-0.427,3.196-1.121,12.257-1.121,12.257c0.083,3.554,2.31,8.51,4.107,17.08
					C265.759,228.989,228.607,226.165,217.163,216.766z"/>
			</g>
			<g id="Head_15_">
				<g id="XMLID_00000100371526362427342500000010090381976032927421_">
					<path style="fill:#263238;" d="M266.068,124.017c2.195-4.644,0.374-10.946-1.989-13.951c-3.417-4.345-8.878-6.339-17.209-6.075
						c-6.335,0.201-13.995,2.79-15.375,9.243c-5.945,2.787-4.114,10.983-2.655,14.453c3.063,7.286,7.553,13.048,7.524,16.871
						L266.068,124.017z"/>
					<g>
						<path id="XMLID_5251_" style="fill:#C8856A;" d="M262.666,114.115c1.417,1.111,3.76,4.227,3.401,9.901
							c-0.187,1.713,0.36,3.835,0.36,7.044c0,12.129-3.364,14.658-6.645,16.09c-1.958,0.855-3.036,0.993-6.156,0.955v5.625
							c0,0,7.097,11.078,3.869,20.777c-0.001,0.003-0.004,0.004-0.007,0.002c-14.722-9.982-21.196-21.665-21.208-21.686
							c0-0.001-0.101-13.686-0.101-13.686c0-0.003,0.003-0.002,0,0c-0.077,0.061-1.947,1.697-5,0.045
							c-3.303-1.788-4.59-7.369-2.42-9.929c2.17-2.56,5.255-0.986,6.624,1.284c1.369,2.27,4.762,1.637,3.749-1.812
							c1.551-0.733,3.485-2.311,2.068-8.643c-0.319-1.626,0.278-4.424,1.814-5.788c2.569-2.282,7.561-1.751,10.38,1.089
							C257.261,112.216,259.732,111.813,262.666,114.115z"/>
						<g id="XMLID_5177_">
							<path id="XMLID_5248_" style="fill:#AF6152;" d="M250.59,136.637l5.605,1.974c-0.491,1.581-2.144,2.42-3.692,1.875
								C250.956,139.94,250.099,138.217,250.59,136.637z"/>
							<path style="fill:#F28F8F;" d="M253.801,140.622c-0.011-1.457-1.188-2.638-2.649-2.645c-0.224-0.001-0.437,0.034-0.645,0.085
								c0.181,1.082,0.913,2.043,1.995,2.425C252.938,140.639,253.378,140.673,253.801,140.622z"/>
						</g>
						<polygon id="XMLID_5175_" style="fill:#AF6152;" points="255.071,124.281 255.827,135.107 261.235,132.553 						"/>
						<path id="XMLID_00000150078749433864037080000011301957236381700780_" style="fill:#AF6152;" d="M253.627,148.105
							c-3.894-0.217-12.208-2.35-14.233-7.516c0,0,0.301,3.685,5.076,6.543c3.764,2.254,9.14,2.724,9.14,2.724L253.627,148.105z"/>
						<g>
							<path style="fill:#263238;" d="M250.655,127.688c-0.087,0.947-0.925,1.644-1.872,1.557c-0.947-0.087-1.644-0.925-1.557-1.872
								c0.087-0.947,0.925-1.644,1.872-1.557C250.045,125.903,250.742,126.741,250.655,127.688z"/>
							<path style="fill:#263238;" d="M263.503,127.255c-0.215,0.926-1.139,1.503-2.066,1.289c-0.926-0.215-1.503-1.139-1.289-2.066
								c0.215-0.926,1.14-1.503,2.066-1.289C263.14,125.404,263.717,126.329,263.503,127.255z"/>
							<path style="fill:#263238;" d="M262.857,120.518c-1.322-0.319-2.653,0.494-2.972,1.816l4.788,1.156
								C264.993,122.168,264.18,120.837,262.857,120.518z"/>
							<path style="fill:#263238;" d="M246.704,121.431c-1.251,0.533-1.834,1.979-1.301,3.231l4.532-1.93
								C249.402,121.48,247.956,120.898,246.704,121.431z"/>
						</g>
					</g>
				</g>
				<path style="fill:#263238;" d="M261.606,107.868h-18.48c-12.482,4.915-7.888,20.966-5.279,22.923
					c7.42-3.124,6.937-10.526,6.39-14.742c3.759,3.521,10.021,6.122,12.967,6.428c-1.364-1.641-2.507-5.704-2.507-5.704
					s1.714,3.946,5.841,6.324c4.569,2.632,7.684,0.875,7.684,0.875S269.775,112.821,261.606,107.868z"/>
			</g>
			<g>
				<g>
					<path id="XMLID_00000169556506091545718870000013752691053884570810_" style="fill:#263238;" d="M228.373,153.758
						c0,0,7.85,7.593,9.089,20.521c3.134,32.702-20.79,39.39-20.79,39.39s0.455-3.165,1.968-8.234c0,0,14.085-12.9,12.52-29.606
						c-1.116-11.913-6.539-19.598-9.569-20.366C221.592,155.462,224.313,154.371,228.373,153.758z"/>
				</g>
				<g>
					<path id="XMLID_356_" style="fill:#C8856A;" d="M212.51,214.16c3.127-1.092,5.187-2.41,8.377-5.333
						c5.904-5.409,6.227-6.213,11.131-10.987c1.662-1.618,3.149-3.229,3.852-3.956c0.697-0.72,2.515-2.082,3.701-4.075
						c0.801-1.346,1.851-3.051,1.992-4.654c0.156-1.77,0.712-3.588,0.297-5.378c-0.12-0.517-0.313-1.016-0.414-1.537
						c-0.138-0.719-0.095-1.458-0.101-2.191c-0.01-1.281-0.174-2.575-0.643-3.768c-0.403-1.024-1.027-1.891-1.852-2.614
						c-0.609-0.534-1.409-1.011-2.319-0.69c0.231,0.942,0.4,1.738,0.606,2.842c-0.211,1.927-0.772,2.806-1.79,4.279
						c-1.805,2.613-3.395,3.998-3.656,3.497c-0.282-0.539,0.392-2.116,0.02-4.672c-0.355-2.442-1.115-3.449-1.909-3.61
						c-1.265-0.258-1.192,1.095-1.62,3.17c-0.51,2.473-1.505,3.864-1.467,7.481c0.033,3.17,0.584,3.879-1.119,5.376
						c-0.975,0.858-3.463,2.343-3.463,2.343s0.468-2.801,1.257-8.846c1.639-12.545,0.503-22.895-2.044-24.386
						c-5.499,1.621-10.854,4.727-13.28,14.155c-2.58,10.026-2.588,11.521-4.759,31.306C201.728,216.31,207.756,215.82,212.51,214.16
						z"/>
					<path style="fill:#AF6152;" d="M222.135,189.685c-4.63,2.584-13.156,6.709-14.078,11.557c0,0-0.72-3.857,4.857-8.129
						c5.792-4.437,9.672-6.394,9.672-6.394L222.135,189.685z"/>
				</g>
				<g>
					<path style="fill:#455A64;" d="M222.607,188.347c0,0,1.395-8.665,2.101-13.041c0.977-6.064,1.179-15.367-3.115-19.843
						c-3.848,0.899-9.712,2.86-11.976,7.079c-2.265,4.219-2.49,7.571-3.546,14.605c-0.307,2.041-1.078,7.904-1.383,11.207
						C210.299,190.861,217.428,191.164,222.607,188.347z"/>
				</g>
			</g>
		</g>
	</g>
</g>
<g id="Character_1">
	<g id="Chartacter_4_">
		<g>
			<path style="fill:#BA68C8;" d="M396.189,247.387l-5.81-3.274c0,0-30.978,7.07-34.258,10.593
				c-1.954,2.099-6.308,23.213-4.747,23.145c2.406-0.105,35.669-10.639,35.669-10.639L396.189,247.387z"/>
			<path style="opacity:0.3;" d="M396.189,247.387l-5.81-3.274c0,0-30.978,7.07-34.258,10.593
				c-1.954,2.099-6.308,23.213-4.747,23.145c2.406-0.105,35.669-10.639,35.669-10.639L396.189,247.387z"/>
			<path style="fill:#263238;" d="M360.36,302.278c5.45,0.654,34.356-14.082,36.737-16.01c2.38-1.927-0.907-38.881-0.907-38.881
				l-32.69,10.868L360.36,302.278z"/>
			<path style="fill:#37474F;" d="M356.709,255.462c-2.816,8.902-8.071,39.403-7.106,42.084c0.965,2.681,9.148,5.054,10.757,4.732
				c1.609-0.322,3.14-44.023,3.14-44.023L356.709,255.462z"/>
		</g>
		<g id="Bottom_00000084495262564586551580000006247234402403266204_">
			<g>
				<path style="fill:#FFA8A7;" d="M385.937,388.673l1.583-14.748l-16.882,1.112c0,0,0.257,8.005,0.493,12.536
					c0.14,2.679-3.47,7.652-3.47,7.652s7.931,4.251,12.179,2.763c4.248-1.488,6.496-6.773,6.437-7.926
					C386.218,388.909,385.937,388.673,385.937,388.673z"/>
				<path style="fill:#263238;" d="M345.279,411.711c-0.266-0.004-0.713,2.736,0.715,3.928c1.648,1.376,6.515,3.673,13.005,2.999
					c6.49-0.673,10.028-2.489,12.653-4.474c2.624-1.985,6.304-4.786,9.244-5.341c2.731-0.515,5.705-1.619,6.589-2.391
					c0.884-0.772,0.819-4.274,0.819-4.274L345.279,411.711z"/>
				<path id="XMLID_1343_" style="fill:#455A64;" d="M385.94,388.646c0,0,0.813,0.022,0.967,0.836
					c0.184,0.968,0.354,3.776,0.757,5.366c0.559,2.21,0.884,6.726,0.499,8.513c-0.386,1.787-4.843,2.957-7.694,3.919
					c-2.913,0.983-6.297,3.053-9.274,5.271c-3.082,2.296-9.524,4.63-13.746,4.529c-4.994-0.12-10.594-1.729-11.848-3.918
					c-1.551-2.709-2.662-5.844,4.796-8.928c1.412-0.584,6.381-3.227,8.075-4.187c4.584-2.597,7.819-4.997,9.985-9.694
					c0.253-0.549,0.519-1.157,1.088-1.429c0.436-0.208,0.957-0.169,1.442-0.097c1.231,0.183,6.143,0.902,7.259,1.423
					c0.987,0.46,2.388,1,2.348,2.191c-0.014,0.414-0.149,0.816-0.299,1.206c-0.093,0.242-0.168,0.564,0.058,0.712
					c0.212,0.139,0.5-0.01,0.696-0.169c0.786-0.637,1.368-1.46,2.033-2.208c0.356-0.401,0.744-0.784,1.19-1.098
					c0.406-0.285,0.92-0.422,1.281-0.747C386.009,389.727,385.909,389.204,385.94,388.646z"/>
				<path style="fill:#37474F;" d="M371.194,412.551c1.308-0.975,2.695-1.915,4.086-2.752v-0.006c0,0-8.79,4.805-12.273,2.497
					c-2.244-1.488-1.137-3.229-1.073-3.791c0.064-0.562-7.877-4.669-10.075-4.952l0,0c-0.619,0.307-1.137,0.553-1.462,0.688
					c-7.458,3.085-6.347,6.22-4.795,8.928c1.254,2.189,5.3,3.949,11.756,4.06C361.579,417.294,368.112,414.847,371.194,412.551z"/>
				<path style="fill:#37474F;" d="M362.568,406.869c-4.633,1.644-2.682,2.483-1.395,2.677c1.287,0.194,9.107-3.909,13.892-7.328
					c4.991-3.566,8.165-7.504,10.019-8.813c0.691-0.488,1.436-1.09,2.099-1.653c-0.106-0.95-0.19-1.816-0.276-2.271
					c-0.154-0.813-0.967-0.835-0.967-0.835c-0.03,0.558,0.069,1.081-0.388,1.492c-0.361,0.325-0.875,0.462-1.281,0.747
					c-0.447,0.314-0.834,0.697-1.19,1.098c-0.665,0.748-1.247,1.571-2.033,2.208C376.948,398.897,367.202,405.224,362.568,406.869z"
					/>
				<g>
					<g>
						<path style="fill:#263238;" d="M361.511,408.918c0.102,0.002,0.204-0.028,0.29-0.092c0.198-0.145,0.231-0.413,0.074-0.599
							c-1.276-1.512-7.379-5.15-10.773-4.86c-0.252,0.02-0.436,0.229-0.412,0.462c0.023,0.234,0.219,0.4,0.496,0.387
							c3.169-0.264,8.964,3.341,9.975,4.539C361.249,408.86,361.379,408.916,361.511,408.918z"/>
					</g>
					<g>
						<path style="fill:#263238;" d="M365.566,406.673c0.102,0.002,0.204-0.028,0.29-0.092c0.197-0.145,0.23-0.414,0.074-0.599
							c-1.275-1.51-7.376-5.147-10.773-4.859c-0.251,0.021-0.436,0.229-0.412,0.462c0.023,0.234,0.238,0.407,0.495,0.387
							c3.171-0.26,8.964,3.34,9.975,4.538C365.303,406.615,365.434,406.671,365.566,406.673z"/>
					</g>
					<g>
						<path style="fill:#263238;" d="M369.62,404.551c0.102,0.002,0.204-0.028,0.29-0.092c0.198-0.145,0.23-0.413,0.074-0.599
							c-1.276-1.511-7.379-5.153-10.773-4.859c-0.251,0.02-0.436,0.228-0.412,0.463c0.023,0.234,0.235,0.407,0.495,0.387
							c3.171-0.264,8.964,3.339,9.975,4.538C369.357,404.493,369.488,404.549,369.62,404.551z"/>
					</g>
					<g>
						<path style="fill:#263238;" d="M373.384,402.112c0.102,0.002,0.204-0.028,0.29-0.091c0.197-0.145,0.23-0.413,0.074-0.599
							c-1.275-1.512-7.391-5.15-10.773-4.859c-0.251,0.021-0.436,0.228-0.412,0.462c0.023,0.234,0.236,0.406,0.496,0.387
							c3.167-0.262,8.964,3.339,9.975,4.537C373.121,402.055,373.251,402.11,373.384,402.112z"/>
					</g>
					<g>
						<path style="fill:#263238;" d="M377.072,399.672c0.099,0.002,0.2-0.026,0.284-0.087c0.2-0.143,0.236-0.411,0.084-0.598
							c-1.752-2.142-8.156-5.204-11.549-4.915c-0.251,0.021-0.436,0.229-0.412,0.462c0.023,0.234,0.238,0.401,0.496,0.387
							c3.055-0.258,9.187,2.685,10.742,4.583C376.805,399.613,376.938,399.67,377.072,399.672z"/>
					</g>
				</g>
			</g>
			<g>
				<path style="fill:#FFA8A7;" d="M419.319,396.715l-3.855-13.971l17.185-2.661l0.771,13.523c0,0,1.828,4.826,0.779,6.605
					c-1.049,1.78-12.471,3.793-13.536,2.633C419.596,401.682,419.319,396.715,419.319,396.715z"/>
				<path style="fill:#263238;" d="M421.083,427.185c0.561,4.329,1.508,7.12,3.415,9.444c1.907,2.323,5.253,2.678,8.542,1.472
					c3.29-1.206,7.437-3.794,8.157-7.693c0.719-3.899,0.364-6.455-0.648-10.402L421.083,427.185z"/>
				<path id="XMLID_00000115484927924189805470000000083711195351863981_" style="fill:#455A64;" d="M433.419,393.606
					c1.381-0.092,1.109,5.854,2.271,11.618c1.245,6.178,3.526,8.492,4.61,13.549c1.238,5.778,1.054,8.46-1.05,12.343
					c-2.103,3.883-10.125,8.505-14.508,3.954c-3.572-3.71-3.999-8.308-4.067-14.236c-0.07-6.129-0.065-10.447-0.636-15.028
					c-0.545-4.378-1.876-8.262-0.713-8.916c0.133,0.636,0.274,1.446,0.411,2.069c0.105,0.478,0.393,2.85,1.165,2.768
					c0.036-0.573-0.011-1.097-0.089-1.665c-0.068-0.494-0.055-1.045,0.287-1.476c0.345-0.434,1.655-0.987,2.206-1.161
					c1.338-0.422,3.732-0.958,5.1-1.256c0.681-0.148,1.366-0.271,2.054-0.358c0.558-0.07,1.217-0.118,1.756-0.017
					c0.331,0.062,0.644,0.226,0.782,0.497c0.102,0.201,0.1,0.437,0.114,0.663c0.026,0.408,0.109,0.808,0.248,1.187
					c0.061,0.167,0.21,0.361,0.404,0.292c0.158-0.056,0.21-0.241,0.202-0.387c-0.039-0.712-0.174-1.216-0.263-2.038
					c-0.041-0.38-0.144-0.892-0.174-1.275C433.499,394.356,433.471,393.979,433.419,393.606z"/>
				<path style="fill:#37474F;" d="M439.882,417.139c0.187,0.833,1.353,6.352-0.312,7.603c-1.801,1.354-3.106-2.933-3.106-2.933
					s-4.462-0.593-10.692,2.758c0.385,0.869-0.411,4.016-2.203,3.619c-1.78-0.394-2.873-6.76-2.887-6.842
					c0.089,5.681,0.591,10.123,4.059,13.726c4.383,4.551,12.405-0.071,14.508-3.954c2.104-3.883,2.288-6.565,1.049-12.343
					C440.175,418.195,440.034,417.656,439.882,417.139z"/>
				<path style="fill:#37474F;" d="M435.987,422.256c0.162,2.128,2.488,1.084,2.402-1.94c-0.086-3.024-2.392-9.912-2.699-15.092
					c-0.498-7.109-0.89-11.71-2.271-11.618c0.01,0.071,0.012,0.144,0.021,0.216l0.368,2.958c0.067,0.428,0.132,0.807,0.158,1.267
					c0.307,4.343,0.48,12.786,1.152,16.703C435.789,418.667,435.825,420.128,435.987,422.256z"/>
				<path style="fill:#37474F;" d="M426.509,424.408c-0.583-2.032-1.052-3.395-1.779-7.299c-0.722-3.876-3.153-11.621-4.361-15.788
					c-0.382-0.682-0.555-2.016-0.631-2.362c-0.128-0.582-0.259-1.322-0.384-1.935c-0.012-0.043-0.024-0.085-0.034-0.129
					c-0.838,0.486-0.501,3.85-0.03,5.588c0.471,1.738,1.044,3.599,1.638,6.093c1.498,4.91,1.736,12.31,2.696,15.135
					C424.583,426.536,427.091,426.44,426.509,424.408z"/>
				<g>
					<g>
						<path style="fill:#263238;" d="M425.648,424.759c0.063-0.014,0.124-0.04,0.182-0.074c0.048-0.03,4.896-2.976,10.53-2.421
							c0.277,0.026,0.546-0.156,0.603-0.406c0.058-0.251-0.121-0.476-0.397-0.504c-6.028-0.595-11.047,2.462-11.26,2.593
							c-0.241,0.149-0.322,0.436-0.176,0.639C425.24,424.741,425.449,424.804,425.648,424.759z"/>
					</g>
					<g>
						<path style="fill:#263238;" d="M424.209,420.289c0.057-0.013,0.112-0.034,0.167-0.065c0.054-0.031,5.518-3.131,11.79-2.705
							c0.277,0.015,0.541-0.171,0.59-0.423c0.048-0.252-0.139-0.472-0.417-0.491c-6.633-0.447-12.219,2.728-12.455,2.862
							c-0.247,0.144-0.338,0.428-0.202,0.637C423.788,420.268,424.003,420.336,424.209,420.289z"/>
					</g>
					<g>
						<path style="fill:#263238;" d="M435.556,413.171c0.191-0.043,0.358-0.181,0.413-0.363c0.074-0.25-0.084-0.487-0.355-0.531
							c-6.28-1.011-12.195,2.601-12.445,2.756c-0.243,0.15-0.322,0.435-0.176,0.639c0.145,0.202,0.462,0.241,0.699,0.097
							c0.056-0.034,5.803-3.537,11.647-2.59C435.412,413.19,435.485,413.187,435.556,413.171z"/>
					</g>
					<g>
						<path style="fill:#263238;" d="M434.942,409.075c0.188-0.043,0.352-0.177,0.41-0.355c0.08-0.25-0.073-0.49-0.343-0.537
							c-6.915-1.229-12.467,2.594-12.699,2.756c-0.232,0.163-0.292,0.451-0.132,0.645c0.16,0.194,0.484,0.219,0.71,0.056
							c0.051-0.037,5.393-3.701,11.829-2.559C434.793,409.095,434.87,409.092,434.942,409.075z"/>
					</g>
					<g>
						<path style="fill:#263238;" d="M434.232,404.477c0.185-0.042,0.348-0.174,0.408-0.349c0.084-0.248-0.065-0.49-0.335-0.542
							c-6.485-1.243-12.528,2.723-12.781,2.895c-0.237,0.157-0.303,0.445-0.148,0.643c0.153,0.198,0.468,0.234,0.706,0.071
							c0.059-0.039,5.897-3.869,11.919-2.713C434.078,404.496,434.156,404.494,434.232,404.477z"/>
					</g>
				</g>
			</g>
			<g>
				<path id="XMLID_1342_" style="fill:#455A64;" d="M427.093,246.013c3.233,34.265,2.361,83.315,2.361,83.315
					c0.282,2.601,2.262,10.356,3.965,23.157c1.517,11.41-0.008,35.104,0,36.537c0,0-8.095,5.661-15.626,3.237
					c0,0-9.321-35.249-13.439-51.161c-3.897-15.058-9.087-39.264-9.087-39.264l-2.952,24.62c0,0,0.708,9.942,0.544,16.79
					c-0.19,7.964-5.782,39.635-5.782,39.635s-9.034,5.105-16.915-0.865c0,0-4.802-46.345-5.187-55.915
					c-0.755-18.772-1.849-56.914,0.427-80L427.093,246.013z"/>
				<path id="XMLID_1341_" style="fill:#263238;" d="M395.267,301.835l-4.277-24.346c0,0-9.098-1.19-13.822-5.392
					c0,0,3.099,5.612,11.695,7.676l4.219,22.156l-0.766,24.526L395.267,301.835z"/>
			</g>
			<path style="fill:#BA68C8;" d="M433.876,389.337c-1.835,2.585-9.602,4.948-16.348,2.734l-1.531-5.601
				c5.09,1.552,13.803,0.488,17.878-2.914V389.337z"/>
			<path style="fill:#BA68C8;" d="M387.183,383.204c-2.243,2.221-10.878,3.443-17.148,0.065l-0.348-5.401
				c4.752,2.432,13.824,2.651,18.412,0.024L387.183,383.204z"/>
		</g>
		<g id="Top_00000034788684684597881340000009862584331209991560_">
			<path style="fill:#FFA8A7;" d="M297.516,189.819c0.766-0.44,1.686-0.551,2.566-0.471c1.431,0.13,2.747,0.722,4.13,1.059
				c2.106,0.513,7.504,1.532,9.611,0.872c0.429-0.135,1.277-0.545,0.544-0.928c-0.956-0.499-1.961-0.924-2.817-1.58
				c-0.857-0.655-1.567-1.597-1.645-2.673c-0.023-0.324,0.019-0.672,0.221-0.926c0.287-0.36,0.577-0.257,0.914-0.12
				c0.355,0.144,0.734,0.227,1.108,0.325c0.769,0.201,1.539,0.404,2.305,0.617c4.474,1.24,9.049,2.863,12.393,6.228
				c0.486,0.488,3.689,4.495,5.659,6.712c1.672,2.054,12.385,12.141,12.385,12.141s5.484-6.095,9.479-10.373
				c7.117-7.622,9.874-10.663,12.378-13.203c2.196-2.227,5.833-4.916,9.902-5.364l-3.27,28.214c0,0-13.524,11.945-17.463,15.007
				c-8.103,6.3-10.853,8.08-15.06,5.054c-4.522-3.251-7.542-6.669-11.942-14.832c-3.593-6.666-4.479-8.235-5.74-10.263
				c-1.073-1.725-3.742-1.646-5.171-1.709c-2.61-0.115-5.287-0.402-7.816-1.056c-1.666-0.43-3.291-1.044-4.789-1.894
				c-0.627-0.357-1.643-0.823-2.041-1.446c-0.372-0.582-0.444-1.311-0.898-1.88c-0.509-0.638-1.306-1.02-1.742-1.71
				c-0.343-0.542-0.419-1.205-0.612-1.818c-0.306-0.973-1.061-1.384-1.913-1.831c-0.413-0.217-0.864-0.414-1.136-0.793
				C296.621,190.57,296.996,190.118,297.516,189.819z"/>
			<path style="fill:#F28F8F;" d="M344.889,211.076l0.001-0.001c0.006-0.008,1.487-1.647,1.487-1.647
				c2.987,2.99,4.524,8.125,3.185,12.364C349.626,220.077,348.747,214.99,344.889,211.076z"/>
			<path style="fill:#F28F8F;" d="M316.742,192.486c1.534,2.195,4.714,4.3,6.347,4.722c0,0-2.39,0.38-4.02-0.869
				C317.283,194.97,316.876,193.5,316.742,192.486z"/>
			<g>
				<g>
					<path style="fill:#BA68C8;" d="M383.379,180.52c-8.77-0.366-12.086,1.085-16.142,5.016
						c-4.056,3.931-15.027,16.753-15.027,16.753s-0.728-0.859-4.046,3.33c-3.375,4.26-2.874,5.011-2.874,5.011
						s4.33,0.674,7.069,4.938c2.74,4.264,3.773,9.641,3.773,9.641s0.989-0.239,3.927-2.658c2.938-2.418,23.003-20.33,23.003-20.33
						L383.379,180.52z"/>
					<path style="opacity:0.3;" d="M383.379,180.52c-8.77-0.366-12.086,1.085-16.142,5.016
						c-4.056,3.931-15.027,16.753-15.027,16.753s-0.728-0.859-4.046,3.33c-3.375,4.26-2.874,5.011-2.874,5.011
						s4.33,0.674,7.069,4.938c2.74,4.264,3.773,9.641,3.773,9.641s0.989-0.239,3.927-2.658c2.938-2.418,23.003-20.33,23.003-20.33
						L383.379,180.52z"/>
					<path style="opacity:0.1;" d="M362.433,213.609c0.518,1.652,0.605,3.276,0.554,4.994c-0.007,0.221,0.205,0.11,0.255-0.021
						c1.17-3.042-0.12-6.456-1.864-8.996c-0.954-1.389-2.117-2.648-3.393-3.746c-0.655-0.564-1.343-1.089-2.057-1.575
						c-0.69-0.469-1.446-1.035-2.25-1.283c-0.185-0.057-0.45,0.231-0.287,0.391c0.567,0.558,1.379,0.924,2.026,1.398
						c0.598,0.439,1.175,0.907,1.728,1.401c1.134,1.013,2.191,2.114,3.108,3.33C361.185,210.741,361.967,212.124,362.433,213.609z
						 M351.201,207.113c0.48,0.465,1.19,0.765,1.757,1.127c0.586,0.375,1.156,0.777,1.712,1.195
						c1.105,0.831,2.129,1.774,3.021,2.831c0.915,1.084,1.736,2.312,2.271,3.63c0.293,0.72,0.473,1.492,0.587,2.26
						c0.11,0.734,0.087,1.554,0.276,2.266c0.028,0.104,0.141,0.024,0.154-0.045c0.146-0.746,0.131-1.615,0.086-2.373
						c-0.046-0.772-0.182-1.514-0.452-2.24c-0.495-1.332-1.28-2.559-2.174-3.657c-0.953-1.17-2.067-2.204-3.275-3.107
						c-0.584-0.437-1.197-0.832-1.827-1.2c-0.608-0.355-1.303-0.809-2-0.952C351.217,206.823,351.11,207.025,351.201,207.113z"/>
				</g>
			</g>
			<path id="Chest_00000165914958519984199930000011379501144015791539_" style="fill:#F0F0F0;" d="M407.307,178.285
				c3.454,0.713,13.947,4.922,17.924,7.129c0,0,4.6,9.619,2.268,31.891c-0.373,3.564-1.321,13.172-1.763,20.592
				c-0.596,10.009-0.16,12.82,0.121,18.143c0,0-9.367,8.191-33.778,6.352c-19.166-1.444-24.928-9.319-24.928-9.319
				s0.087-25.854,0.585-39.987c0.654-18.564,6.275-29.277,10.413-32.519l12.579-2.096L407.307,178.285z"/>
			<g>
				<path style="fill:#BA68C8;" d="M409.555,178.378l-0.046,1.228c0,0-4.603,11.043-4.986,32.818c-0.382,21.776,0,57.218,0,57.218
					s12.437,3.464,25.262-1.998c0,0-0.969-16.346-0.757-25.003c0.212-8.657-0.784-21.456,0-33.98
					c0.784-12.524-3.396-23.536-3.396-23.536L409.555,178.378z"/>
				<path style="fill:#BA68C8;" d="M390.479,177.667l-12.328,2.899c0,0-7.362,4.601-9.972,21.682
					c-2.609,17.081-3.905,58.474-3.905,58.474c1.672,1.046,6.092,2.788,8.192,3.08c0,0,0.771-20.382,1.853-39.158
					c1.305-22.654,2.848-36.908,15.978-46.138L390.479,177.667z"/>
				<path style="opacity:0.3;" d="M412.59,215.728c-2.17,2.137-4.308,4.308-6.416,6.51c2.385-2.036,4.741-4.103,7.061-6.208
					l0.182-0.165c-0.912-1.864-1.778-3.752-2.721-5.6c0,0-2.008-4.013-2.42-4.836c2.005-0.733,3.997-1.497,5.986-2.271l0.308-0.12
					l0.01-0.321c0.227-6.752,0.387-13.773,0.306-20.511c-0.592,6.598-0.978,13.498-1.273,20.144
					c-2.252,0.825-4.501,1.661-6.731,2.544l0.254,0.488C408.725,208.428,410.926,212.705,412.59,215.728z M368.649,209.085
					l0.073,0.164c1.252,2.867,2.527,5.723,3.88,8.546c-0.988-2.9-2.053-5.77-3.142-8.633c1.723-2.467,3.408-4.959,5.069-7.466
					l0.184-0.277l-0.184-0.281l-2.374-3.618c0.508-1.521,1.131-3.006,1.817-4.469c2.25-4.601,5.073-8.879,8.153-12.987
					c-4.728,5.099-8.882,10.951-11.114,17.595c0,0,0.139,0.21,0.139,0.21l2.348,3.551c-1.608,2.48-3.195,4.973-4.743,7.493
					C368.754,208.914,368.649,209.085,368.649,209.085z"/>
			</g>
			<g>
				<path style="fill:#F28F8F;" d="M395.626,221.496c-3.499-2.161-5.235-2.963-6.804-3.262c-1.569-0.299-7.136-2.063-9.24-2.396
					c-1.335-0.211-1.682,1.912,0.107,3.196c1.377,0.988,4.833,2.139,6.364,2.811c1.531,0.672,4.704,3.905,4.704,3.905
					L395.626,221.496z"/>
				<path style="fill:#FFA8A7;" d="M434.973,191.999c-2.099-4.054-5.148-4.619-8.94-5.862c-10.928,5.686-2.841,28.904-2.841,28.904
					l4.871,18.702c0,0-16.115-0.473-18.46-1.698c-2.346-1.225-8.867-7.112-11.034-8.855c-2.949-2.373-4.268-1.905-5.633-1.576
					c-4.468,1.076-5.428,1.544-6.333,2.237c-0.905,0.693-0.726,1.84-0.726,1.84c-1.189,0.256-2.992,0.376-3.051,2.372
					c-0.039,1.317,0.067,1.589,0.067,1.589s-0.428,0.081-0.742,0.517c-0.899,1.247,1.168,5.108,2.344,5.991
					c0.826,0.62,1.924,0.61,3.34,0.29c1.203-0.272,0.529-1.462,0.529-1.462l1.713-0.048c3.912,2.292,4.552,7.46,9.52,8.176
					c1.049,0.151,3.159-0.063,6.047,0.633c10.791,2.602,27.683,8.638,37.093,8.623c9.185-0.014,6.841-10.395,5.633-17.06
					C447.476,230.39,440.17,202.038,434.973,191.999z"/>
				<g>
					<path style="fill:#F28F8F;" d="M385.877,225.69l5.282-1.557l-5.235,0.802C385.863,225.196,385.846,225.447,385.877,225.69z"/>
					<path style="fill:#F28F8F;" d="M382.893,229.65l6.119-1.345l-6.189,0.628C382.816,229.159,382.844,229.4,382.893,229.65z"/>
					<path style="fill:#F28F8F;" d="M384.899,232.797c0.277,0.075,0.563,0.13,0.847,0.166c0.673,0.058,2.169-0.045,2.169-0.045
						s0.086,0.438,0.874,1.122c0.421,0.366,1.287,0.897,1.287,0.897l-1.713,0.048c0,0-0.45-0.654-1.842-0.853
						c-0.271-0.029-0.577,0.059-0.817,0.226c-0.237,0.183-0.437,0.436-0.571,0.73c0.073-0.311,0.214-0.626,0.468-0.856
						c0.173-0.156,0.387-0.261,0.62-0.305l-0.42-0.729c-0.33-0.047-0.651-0.117-0.958-0.245c-0.347-0.135-0.681-0.348-0.896-0.65
						C384.216,232.561,384.559,232.691,384.899,232.797z"/>
				</g>
				<path style="fill:#BA68C8;" d="M425.632,185.126c7.443,2.585,10.112,4.683,12.817,11.174c3.371,8.088,7.246,25.27,8.392,28.611
					c2.865,4.089,1.55,10.242,1.55,10.242s-9.804-7.415-20.329-1.41c0,0-4.37-15.771-5.611-18.635
					C421.21,212.245,414.371,191.42,425.632,185.126z"/>
				<path style="opacity:0.3;" d="M425.632,185.126c7.443,2.585,10.112,4.683,12.817,11.174c3.371,8.088,7.246,25.27,8.392,28.611
					c2.865,4.089,1.55,10.242,1.55,10.242s-9.804-7.415-20.329-1.41c0,0-4.37-15.771-5.611-18.635
					C421.21,212.245,414.371,191.42,425.632,185.126z"/>
				<path style="opacity:0.1;" d="M428.494,228.758c1.072-0.813,2.137-1.576,3.363-2.147c1.272-0.592,2.613-1.034,3.99-1.3
					c1.629-0.315,3.298-0.386,4.953-0.295c1.627,0.09,3.193,0.425,4.781,0.761c0.038,0.008,0.024-0.073-0.002-0.083
					c-2.957-1.13-6.349-1.457-9.467-0.929c-2.805,0.475-5.708,1.71-7.697,3.796C428.355,228.625,428.391,228.837,428.494,228.758z
					 M429.046,231.24c-0.038,0.041-0.013,0.205,0.062,0.161c0.87-0.519,1.681-1.116,2.585-1.58c0.934-0.48,1.909-0.872,2.923-1.149
					c2.072-0.568,4.15-0.691,6.286-0.559c0.03,0.002,0.011-0.053-0.009-0.059c-2.017-0.513-4.221-0.413-6.222,0.134
					C432.659,228.736,430.482,229.684,429.046,231.24z"/>
			</g>
			<g>
				<g id="Head_10_">
					<g>
						<g id="XMLID_00000085248465861689840050000017043741872047591092_">
							<g id="XMLID_00000087405943335192259860000008673747533227670921_">
								<path style="fill:#37474F;" d="M412.232,138.932c0,0,3.54,0.028,5.314,2.643c1.775,2.615,2.994,7.473,1.125,13.047
									c-2.057,6.134-6.317,12.145-7.23,13.881c-0.913,1.737-2.784,2.223-2.784,2.223l0.193-7.453l0.277-5.193
									c0,0-4.187-3.801-4.548-7.532c-0.464-4.803,1.41-7.523,1.41-7.523L412.232,138.932z"/>
								<path style="fill:#37474F;" d="M386.753,147.643c2.01-0.962,4.577-1.312,6.766-1.449c2.083-0.131,4.165-0.272,6.247-0.408
									c2.23-0.146,4.46-0.291,6.69-0.437c0,0,7.134-1.19,7.135-6.24c0-2.486-1.219-4.147-1.48-4.505
									c-0.924-1.266-2.391-2.697-3.704-3.543c-3.123-2.011-5.958-3.041-9.757-3.309c-2.738-0.193-5.485,0.193-8.18,0.715
									c-1.823,0.353-3.687,0.771-5.52,0.471c-1.314-0.215-2.716-0.994-2.942-2.306c-1.414,1.713-1.663,4.298-0.603,6.25
									c-1.792-0.08-3.482,1.303-3.948,3.034c-0.522,1.937,0.376,3.492,1.521,4.949c-0.141-0.18-0.859,1.248-0.916,1.368
									c-0.392,0.834-0.525,1.784-0.35,2.703c0.248,1.304,1.417,2.232,2.61,2.812C382.425,148.771,384.672,148.639,386.753,147.643
									z"/>
								<path style="fill:#FFA8A7;" d="M415.663,165.455c-3.863,1.878-5.624-1.178-5.624-1.178l-0.58,15.369
									c-7.414,9.922-27.199,6.336-19.084-1.095l0.016-3.506c0,0-1.295,0.002-3.344-0.327c-3.418-0.54-6.55-3.58-7.569-7.283
									c-1.503-5.478-1.109-13.921,0.956-23.247c0.398-1.801,1.176-3.766,2.829-4.583c4.104-2.028,7.898,0.897,13.615,3.125
									c2.368,0.923,8.109,1.329,9.624,0.619c-1.995,2.202-1.978,9.157,0.961,11.982c0.514,0.979,1.055,1.552,1.472,1.917
									c1.251,1.088,2.274-1.719,3.326-2.819c1.061-1.091,5.001-2.073,6.699,1.542
									C420.675,159.653,419.242,163.716,415.663,165.455z"/>
								<path style="fill:#F28F8F;" d="M390.39,175.046c4.486-0.026,8.467-0.58,11.115-1.696c2.647-1.116,4.994-4.697,5.764-8.249
									c0,2.859-1.254,7.929-5.267,10.034c-4.013,2.105-8.686,2.218-11.622,2.281L390.39,175.046z"/>
							</g>
							<g id="XMLID_00000070801411784526524540000015981197808822910134_">
								<path id="XMLID_00000121971027520775627480000010786235670667904142_" style="fill:#37474F;" d="M396.855,148.447
									l3.792,1.597c0.419-1.085-0.09-2.322-1.137-2.763C398.462,146.839,397.274,147.361,396.855,148.447z"/>
								<path id="XMLID_00000104688387705052059660000011929903492449691776_" style="fill:#37474F;" d="M382.669,148.351
									l3.853-1.53c-0.386-1.089-1.561-1.628-2.625-1.206C382.833,146.038,382.283,147.263,382.669,148.351z"/>
								<path style="fill:#263238;" d="M399.169,153.212c-0.033,0.925-0.81,1.648-1.735,1.615c-0.925-0.033-1.648-0.81-1.615-1.735
									c0.033-0.925,0.81-1.648,1.736-1.615C398.479,151.51,399.203,152.287,399.169,153.212z"/>
								<path style="fill:#263238;" d="M385.661,152.525c-0.033,0.925-0.81,1.649-1.735,1.615c-0.925-0.033-1.648-0.81-1.615-1.736
									c0.033-0.925,0.81-1.649,1.735-1.615C385.11,150.828,385.699,151.462,385.661,152.525z"/>
								<path id="XMLID_00000066501766877180595940000010902434356373503388_" style="fill:#F28F8F;" d="M391.981,149.494
									l-1.384,10.671l-5.637-2.082C386.968,154.32,389.308,151.457,391.981,149.494z"/>
							</g>
						</g>
					</g>
					<path id="XMLID_1316_" style="fill:#B16668;" d="M395.681,162.019l-6.756,2.233c0.583,1.934,2.568,3.002,4.434,2.386
						C395.225,166.021,396.264,163.952,395.681,162.019z"/>
					<path style="fill:#F28F8F;" d="M394.968,163.237c0.29-0.063,0.576-0.083,0.858-0.081c-0.017,1.549-0.966,2.986-2.467,3.482
						c-0.376,0.124-0.756,0.163-1.129,0.157C391.952,165.213,393.149,163.635,394.968,163.237z"/>
				</g>
			</g>
			<path style="fill:#455A64;" d="M412.24,179.827c-13.985,10.473-41.752,31.025-55.532,75.635l6.791,2.794
				c10.079-40.318,41.776-65.534,55.761-76.007L412.24,179.827z"/>
		</g>
	</g>
</g>
<g id="Speech_Bubble_1">
	<g id="Speech_Bubble_00000086682154882761270450000002234203552384437683_">
		<g id="Speech_Bubble_00000008837939140620444290000012337654152651037606_">
			<g>
				<path style="fill:#BA68C8;" d="M441.357,131.455l-0.996-3.111c-0.537-2.513,9.716,3.406,10.253,5.919l-3.304,8.892
					c-0.126,0.29-0.323,0.505-0.554,0.647c-0.726,0.447-3.397,1.953-3.629,2.095c-0.731,0.448-1.807,0.167-2.112-0.785
					l-4.279-14.676C436.471,129.198,438.832,130.012,441.357,131.455z"/>
				<path style="opacity:0.2;fill:#FFFFFF;" d="M441.357,131.455l-0.996-3.111c-0.537-2.513,9.716,3.406,10.253,5.919l-3.304,8.892
					c-0.126,0.29-0.323,0.505-0.554,0.647c-0.726,0.447-3.397,1.953-3.629,2.095c-0.731,0.448-1.807,0.167-2.112-0.785
					l-4.279-14.676C436.471,129.198,438.832,130.012,441.357,131.455z"/>
			</g>
			<g id="XMLID_00000088823629657992375380000015721722540035452083_">
				<path id="XMLID_00000054265712586241040900000012716119768304936383_" style="fill:#BA68C8;" d="M427.423,71.684L466.4,94.169
					c0.728,0.42,1.318,1.442,1.318,2.282v46.184c0,0.84-0.593,1.856-1.325,2.269l-2.411,1.363c-0.732,0.413-1.915,0.407-2.643-0.013
					l-38.977-22.484c-0.728-0.42-1.317-1.442-1.317-2.282V75.304c0-0.84,0.593-1.856,1.325-2.269l2.411-1.363
					C425.513,71.259,426.696,71.264,427.423,71.684z"/>
				<path id="XMLID_00000101807498733013524680000002136518863256144773_" style="opacity:0.2;fill:#FFFFFF;" d="M427.423,71.684
					L466.4,94.169c0.728,0.42,1.318,1.442,1.318,2.282v46.184c0,0.84-0.593,1.856-1.325,2.269l-2.411,1.363
					c-0.732,0.413-1.915,0.407-2.643-0.013l-38.977-22.484c-0.728-0.42-1.317-1.442-1.317-2.282V75.304
					c0-0.84,0.593-1.856,1.325-2.269l2.411-1.363C425.513,71.259,426.696,71.264,427.423,71.684z"/>
				<path style="fill:#BA68C8;" d="M422.363,74.543l38.977,22.485c0.728,0.42,1.318,1.442,1.318,2.282v46.184
					c0,0.84-0.59,1.181-1.318,0.76l-14.916-8.604l-2.74,7.599c-0.527,1.207-2.267,1.119-2.669-0.135l-3.642-12.685l-15.01-8.659
					c-0.728-0.42-1.317-1.442-1.317-2.282V75.304C421.045,74.464,421.635,74.123,422.363,74.543z"/>
				<path style="opacity:0.4;fill:#FFFFFF;" d="M422.363,74.543l38.977,22.485c0.728,0.42,1.318,1.442,1.318,2.282v46.184
					c0,0.84-0.59,1.181-1.318,0.76l-14.916-8.604l-2.74,7.599c-0.527,1.207-2.267,1.119-2.669-0.135l-3.642-12.685l-15.01-8.659
					c-0.728-0.42-1.317-1.442-1.317-2.282V75.304C421.045,74.464,421.635,74.123,422.363,74.543z"/>
				<path style="fill:#FFFFFF;" d="M428.691,105.437v-7.846l13.996,16.805l17.864-0.821l-17.864-19.779l-17.864-0.849l3.44,4.131
					v8.113c-0.236-0.02-0.406,0.183-0.406,0.538v7.962c0,0.456,0.277,0.986,0.62,1.184c0.342,0.198,0.62-0.012,0.62-0.468v-7.962
					C429.097,106.088,428.928,105.69,428.691,105.437z M432.606,105.068v10.586c0,6.197,20.167,17.84,20.167,11.643v-10.586
					l-10.083,0.464L432.606,105.068z"/>
				<path id="XMLID_00000088824847639823877670000007631501883329266048_" style="opacity:0.7;fill:#FFFFFF;" d="M421.063,75.065
					c0.103-0.664,0.645-0.901,1.302-0.524l38.972,22.486c0.365,0.213,0.694,0.572,0.931,0.986l5.037-2.908
					c-0.237-0.396-0.554-0.736-0.907-0.937l-38.978-22.486c-0.724-0.42-1.905-0.426-2.641-0.012l-2.408,1.362
					C421.708,73.41,421.154,74.28,421.063,75.065z"/>
			</g>
		</g>
	</g>
</g>
</svg>
