<?xml version="1.0" encoding="UTF-8" standalone="no"?><!DOCTYPE svg PUBLIC "-//W3C//DTD SVG 1.1//EN" "http://www.w3.org/Graphics/SVG/1.1/DTD/svg11.dtd"><svg width="100%" height="100%" viewBox="0 0 4725 4725" version="1.1" xmlns="http://www.w3.org/2000/svg" xmlns:xlink="http://www.w3.org/1999/xlink" xml:space="preserve" xmlns:serif="http://www.serif.com/" style="fill-rule:evenodd;clip-rule:evenodd;stroke-linecap:round;stroke-linejoin:round;stroke-miterlimit:1.5;"><path d="M578.252,2289.34l-483.764,0c18.347,-555.719 237.211,-1061.06 586.494,-1445.91l342.278,342.279c-262.232,296.687 -427.26,681.256 -445.008,1103.63Zm550.386,-1213.14l-341.836,-341.837c390.611,-376.668 915.995,-614.496 1496.32,-633.655l0,483.764c-446.935,18.78 -851.54,202.465 -1154.49,491.728Zm1306.43,-491.728l0,-483.764c594.035,19.612 1130.5,268.345 1523.78,660.578l-341.765,341.765c-305.746,-304.717 -721.397,-499.224 -1182.01,-518.579Zm1285.08,630.397l342.7,-342.7c334.331,381.113 542.959,875.181 560.853,1417.17l-483.764,0c-17.173,-408.67 -172.221,-781.947 -419.789,-1074.47Zm419.789,1226.42l483.764,0c-19.338,585.738 -261.441,1115.5 -644.227,1507.21l-341.793,-341.793c295.328,-304.11 483.249,-713.085 502.256,-1165.42Zm-612.677,1269.89l342.429,342.43c-383.423,343.355 -884.321,558.15 -1434.62,576.318l0,-483.764c416.969,-17.52 797.092,-178.574 1092.19,-434.984Zm-1244.14,434.984l0,483.764c-546.73,-18.05 -1044.69,-230.183 -1427.14,-569.647l342.54,-342.54c294.016,252.594 671.2,411.052 1084.6,428.423Zm-1195.62,-532.292l-341.776,341.776c-386.838,-392.401 -631.781,-925.05 -651.237,-1514.36l483.764,0c19.157,455.894 209.896,867.743 509.249,1172.58Zm1271.6,-2870.18c895,0 1621.63,726.626 1621.63,1621.63c0,895 -726.626,1621.63 -1621.63,1621.63c-894.999,0 -1621.63,-726.626 -1621.63,-1621.63c0,-895 726.627,-1621.63 1621.63,-1621.63Zm187.071,1891.34l-0,-270.641c-0,-131.739 10.1,-228.129 30.3,-289.168c20.2,-61.039 53.135,-107.368 98.804,-138.985c45.67,-31.618 94.414,-47.426 146.231,-47.426c71.14,-0 123.835,26.347 158.088,79.043c25.469,40.4 38.204,129.983 38.204,268.749l0,398.428l370.188,0l0,-493.28c0,-133.497 -12.734,-230.106 -38.204,-289.828c-35.131,-80.8 -88.266,-142.059 -159.405,-183.776c-71.139,-41.718 -158.087,-62.577 -260.844,-62.577c-80.801,0 -156.77,18.444 -227.91,55.331c-71.139,36.887 -137.448,92.657 -198.926,167.309c-42.157,-74.652 -96.17,-130.422 -162.04,-167.309c-65.87,-36.887 -143.596,-55.331 -233.179,-55.331c-168.627,0 -313.98,74.214 -436.058,222.64l-0,-191.022l-341.206,-0l0,997.843l370.188,0l0,-278.545c0,-134.374 9.881,-230.544 29.642,-288.51c19.761,-57.965 52.476,-102.317 98.146,-133.057c45.67,-30.739 97.048,-46.108 154.135,-46.108c47.426,-0 84.972,9.66 112.638,28.982c27.665,19.322 48.084,48.744 61.258,88.266c13.174,39.522 19.761,127.348 19.761,263.479l0,365.493l370.189,0Zm-0,72.176l-370.189,0l0,60.78l368.257,0l0,0.003l1.932,0l-0,-60.783Zm-3.203,132.957l-366.986,-0l0,60.78l368.257,-0l0,0.005l1.932,0l-0,-60.783l-3.203,0l-0,-0.002Zm0.614,132.956l-367.6,-0l0,63.142l370.189,0l-0,-63.136l-2.589,-0l0,-0.006Zm844.404,-265.913l-370.188,0l0,60.78l370.188,0l0,-60.78Zm0,265.913l-370.188,-0l0,63.142l370.188,0l0,-63.142Zm-1687.58,-132.956l-370.188,-0l0,60.78l370.188,-0l0,-60.78Zm0,132.956l-370.188,-0l0,63.142l370.188,0l0,-63.142Zm1687.58,-132.956l-370.188,-0l0,60.78l370.188,-0l0,-60.78Zm-1687.58,-132.957l-370.188,0l0,60.78l370.188,0l0,-60.78Z" style="fill:url(#_Linear1);stroke:#ebebeb;stroke-width:1.33px;"/><defs><linearGradient id="_Linear1" x1="0" y1="0" x2="1" y2="0" gradientUnits="userSpaceOnUse" gradientTransform="matrix(1829.82,-1829.82,1829.82,1829.82,614.622,3799.52)"><stop offset="0" style="stop-color:#f00;stop-opacity:1"/><stop offset="1" style="stop-color:#ff008a;stop-opacity:1"/></linearGradient></defs></svg>