<?xml version="1.0" encoding="utf-8"?>
<!-- Generator: Adobe Illustrator 27.5.0, SVG Export Plug-In . SVG Version: 6.00 Build 0)  -->
<svg version="1.1" xmlns="http://www.w3.org/2000/svg" xmlns:xlink="http://www.w3.org/1999/xlink" x="0px" y="0px"
	 viewBox="0 0 500 500" style="enable-background:new 0 0 500 500;" xml:space="preserve">
<g id="Floor">
	<ellipse style="fill:#F5F5F5;" cx="250" cy="349.694" rx="236.637" ry="134.424"/>
</g>
<g id="Shadows">
	<ellipse style="fill:#E0E0E0;" cx="122.622" cy="331.384" rx="72.137" ry="41.41"/>
	<ellipse style="fill:#E0E0E0;" cx="205.362" cy="436.112" rx="40.782" ry="23.411"/>
	<polygon style="fill:#E0E0E0;" points="269.234,438.099 294.574,438.099 476.762,333.01 297.239,223.274 214.891,274.823 
		338.395,347.177 225.744,412.717 	"/>
</g>
<g id="Plants">
	<g>
		<g>
			<path style="fill:#455A64;" d="M91.354,305.713l-12.087,6.904c0,0,6.286-19.469,3.153-39.168
				c-1.183-7.435-3.81-11.153-4.73-13.144c-0.92-1.992-8.015-14.339-1.577-19.916c6.438-5.577,21.258,5.845,20.234,36.114
				C95.821,292.037,91.354,305.713,91.354,305.713z"/>
			<path style="fill:#FFFFFF;" d="M85.734,309.404c-0.057,0-0.113-0.01-0.169-0.031c-0.249-0.093-0.374-0.371-0.281-0.619
				c0.047-0.124,4.67-12.648,4.67-32.88c0-20.116-10.271-30.927-10.375-31.034c-0.185-0.19-0.181-0.495,0.01-0.68
				c0.189-0.185,0.492-0.181,0.68,0.009c0.106,0.109,10.646,11.176,10.646,31.704c0,20.421-4.684,33.093-4.73,33.219
				C86.111,309.285,85.929,309.404,85.734,309.404z"/>
		</g>
		<g>
			<path style="fill:#37474F;" d="M88.684,307.138l-19.971,11.551c0,0-9.066-1.46-8.277-10.091
				c0.788-8.63,4.501-10.622-0.049-14.472c-4.55-3.85-5.732-4.116-5.47-7.834c0.263-3.718,2.759-5.311,3.942-6.771
				c1.182-1.46,4.467-4.514,2.234-9.029c-2.234-4.514-5.279-8.885-0.657-10.887c2.759-1.195,7.358,0.398,10.38,3.717
				c3.022,3.319,5.518,5.709,8.409,6.506c2.89,0.797,8.934,0.93,8.672,5.975c-0.263,5.045-1.58,6.773-0.394,9.029
				C89.735,289.081,99.457,291.471,88.684,307.138z"/>
			<path style="fill:#FFFFFF;" d="M80.552,312.323c-0.016,0-0.03-0.001-0.045-0.002c-0.265-0.024-0.459-0.258-0.435-0.523
				c0.027-0.294,2.483-29.673-17.477-49.193c-0.19-0.186-0.193-0.49-0.008-0.68c0.185-0.191,0.489-0.193,0.68-0.008
				c20.294,19.847,17.79,49.671,17.762,49.97C81.007,312.136,80.797,312.323,80.552,312.323z"/>
			<path style="fill:#FFFFFF;" d="M77.295,286.67c-0.014,0-0.028-0.001-0.042-0.002c-0.265-0.022-0.461-0.255-0.438-0.52
				c0.709-8.329,6.358-12.425,6.599-12.595c0.219-0.155,0.517-0.102,0.67,0.114c0.153,0.216,0.103,0.516-0.113,0.67
				c-0.055,0.039-5.527,4.024-6.196,11.893C77.752,286.48,77.542,286.67,77.295,286.67z"/>
			<path style="fill:#FFFFFF;" d="M78.699,291.787c-0.134,0-0.268-0.055-0.362-0.164c-0.049-0.055-5.002-5.54-16.396-4.094
				c-0.255,0.03-0.504-0.153-0.537-0.417c-0.034-0.264,0.152-0.504,0.416-0.538c11.939-1.513,17.031,4.174,17.242,4.417
				c0.174,0.2,0.152,0.503-0.048,0.677C78.924,291.748,78.812,291.787,78.699,291.787z"/>
		</g>
	</g>
</g>
<g id="Sand_clock">
	<g>
		<g>
			<ellipse style="fill:#37474F;" cx="123.914" cy="315.849" rx="60.898" ry="34.958"/>
			<path style="fill:#253239;" d="M184.812,315.849c0,19.307-27.265,34.958-60.898,34.958c-33.633,0-60.898-15.652-60.898-34.958
				l0,0v9.767c0,19.307,27.265,34.959,60.898,34.959c33.633,0,60.898-15.651,60.898-34.959V315.849L184.812,315.849z"/>
		</g>
		<g>
			<path style="fill:#BA68C8;" d="M123.914,346.641c-31.236,0-56.649-13.813-56.649-30.792c0-16.979,25.413-30.792,56.649-30.792
				c31.236,0,56.649,13.813,56.649,30.792C180.563,332.828,155.15,346.641,123.914,346.641z M123.914,286.116
				c-30.652,0-55.59,13.338-55.59,29.733s24.938,29.733,55.59,29.733c30.652,0,55.59-13.338,55.59-29.733
				S154.566,286.116,123.914,286.116z"/>
			<path style="fill:#BA68C8;" d="M123.914,161.425c-31.236,0-56.649-13.813-56.649-30.792c0-16.979,25.413-30.792,56.649-30.792
				c31.236,0,56.649,13.813,56.649,30.792C180.563,147.612,155.15,161.425,123.914,161.425z M123.914,100.901
				c-30.652,0-55.59,13.338-55.59,29.733c0,16.395,24.938,29.733,55.59,29.733c30.652,0,55.59-13.338,55.59-29.733
				C179.504,114.239,154.566,100.901,123.914,100.901z"/>
			<g>
				<polygon style="fill:#BA68C8;" points="179.504,315.855 179.504,315.849 180.563,315.849 				"/>
				<polygon style="fill:#BA68C8;" points="67.265,315.855 67.265,315.849 68.325,315.849 				"/>
				<path style="fill:#BA68C8;" d="M180.563,315.849h-1.059c0-16.395-24.938-29.733-55.59-29.733
					c-30.652,0-55.59,13.338-55.59,29.733h-1.059V283.42c0-18.145,9.845-34.716,25.694-43.247l15.474-8.329
					c2.848-1.532,4.547-4.395,4.547-7.657c0-3.261-1.699-6.123-4.547-7.656l-15.474-8.329
					c-15.849-8.531-25.694-25.102-25.694-43.247v-32.965h1.121l0.054,0.47c1.786,15.648,26.153,27.906,55.474,27.906
					c29.32,0,53.687-12.258,55.473-27.906l0.054-0.47h1.122v32.965c0,18.145-9.845,34.716-25.694,43.247l-15.474,8.329
					c-2.848,1.532-4.548,4.395-4.548,7.656c0,3.262,1.7,6.125,4.548,7.657l15.474,8.329c15.694,9.223,25.533,25.788,25.694,43.242
					V315.849z M123.914,285.057c27.496,0,50.48,10.704,55.59,24.848V283.42c-0.158-17.079-9.797-33.299-25.154-42.324l-15.458-8.319
					c-3.196-1.721-5.105-4.932-5.105-8.59c0-3.658,1.908-6.869,5.105-8.589l15.474-8.329c15.505-8.345,25.137-24.559,25.137-42.314
					v-28.394c-5.1,14.225-28.236,24.863-55.59,24.863c-27.35,0-50.486-10.637-55.59-24.861v28.392
					c0,17.755,9.632,33.969,25.138,42.314l15.474,8.329c3.195,1.72,5.104,4.931,5.104,8.589c0,3.658-1.907,6.869-5.104,8.59
					l-15.474,8.329c-15.505,8.345-25.138,24.559-25.138,42.314v26.485C73.434,295.761,96.418,285.057,123.914,285.057z"/>
			</g>
		</g>
		<g>
			<path style="fill:#BA68C8;" d="M128.68,260.234c-2.96-1.691-6.572-1.691-9.531,0c-12.602,7.201-45.843,27.352-45.843,39.568
				c0,15.072,22.658,27.291,50.609,27.291c27.95,0,50.608-12.219,50.608-27.291C174.522,287.587,141.281,267.435,128.68,260.234z"/>
			<path style="opacity:0.3;fill:#FFFFFF;" d="M128.68,260.234c-2.96-1.691-6.572-1.691-9.531,0
				c-12.602,7.201-45.843,27.352-45.843,39.568c0,15.072,22.658,27.291,50.609,27.291c27.95,0,50.608-12.219,50.608-27.291
				C174.522,287.587,141.281,267.435,128.68,260.234z"/>
			<g>
				<path style="fill:#BA68C8;" d="M123.914,327.093c-27.95,0-50.609-12.219-50.609-27.291v13.829h0
					c0.006,15.069,22.662,27.285,50.608,27.285c27.946,0,50.602-12.215,50.608-27.285h0v-13.829
					C174.522,314.874,151.864,327.093,123.914,327.093z"/>
			</g>
			<path style="fill:#BA68C8;" d="M73.305,132.52v30.013c0,16.151,8.814,30.987,22.92,38.579l13.955,7.511
				c0.212,0.114,0.415,0.235,0.611,0.362c0.499,0.324,1.007,0.631,1.522,0.923c5.794,3.611,9.339,9.997,9.339,16.893v13.011
				c0,1.262,1.012,2.285,2.261,2.285h0c1.249,0,2.261-1.023,2.261-2.285v-13.011c0-6.896,3.546-13.282,9.339-16.893
				c0.515-0.292,1.024-0.599,1.522-0.923c0.196-0.128,0.4-0.248,0.611-0.362l13.955-7.511c14.107-7.593,22.92-22.428,22.92-38.579
				V132.52H73.305z"/>
			<g>
				<path style="fill:#BA68C8;" d="M126.175,249.108c0-1.262-1.012-2.285-2.261-2.285c-1.249,0-2.261,1.023-2.261,2.285
					c0,1.262,1.012,2.285,2.261,2.285C125.163,251.393,126.175,250.37,126.175,249.108z"/>
			</g>
			<path style="opacity:0.3;fill:#FFFFFF;" d="M73.305,132.52v30.013c0,16.151,8.814,30.987,22.92,38.579l13.955,7.511
				c0.212,0.114,0.415,0.235,0.611,0.362c0.499,0.324,1.007,0.631,1.522,0.923c5.794,3.611,9.339,9.997,9.339,16.893v13.011
				c0,1.262,1.012,2.285,2.261,2.285h0c1.249,0,2.261-1.023,2.261-2.285v-13.011c0-6.896,3.546-13.282,9.339-16.893
				c0.515-0.292,1.024-0.599,1.522-0.923c0.196-0.128,0.4-0.248,0.611-0.362l13.955-7.511c14.107-7.593,22.92-22.428,22.92-38.579
				V132.52H73.305z"/>
			<g style="opacity:0.3;">
				<path style="fill:#FFFFFF;" d="M126.175,249.108c0-1.262-1.012-2.285-2.261-2.285c-1.249,0-2.261,1.023-2.261,2.285
					c0,1.262,1.012,2.285,2.261,2.285C125.163,251.393,126.175,250.37,126.175,249.108z"/>
			</g>
			<ellipse style="fill:#BA68C8;" cx="123.914" cy="132.52" rx="50.609" ry="27.291"/>
		</g>
		<g style="opacity:0.5;">
			<path style="fill:#FFFFFF;" d="M119.745,232.311l-9.836,8.331c-9.945,8.421-16.162,24.864-16.162,42.775v57.059
				c-3.203-1.109-6.178-2.377-8.897-3.796v-53.263c0-17.911,7.108-34.354,18.505-42.775l11.259-8.331
				c4.686-3.466,4.686-12.787,0-16.243l-11.259-8.331c-11.398-8.421-18.505-24.874-18.505-42.785v-32.426h8.897v32.426
				c0,17.911,6.218,34.364,16.162,42.785l9.836,8.331C123.838,219.524,123.838,228.845,119.745,232.311z"/>
		</g>
		<g>
			<ellipse style="fill:#37474F;" cx="123.914" cy="130.634" rx="60.898" ry="34.959"/>
			<path style="fill:#253239;" d="M184.812,130.634c0,19.307-27.265,34.959-60.898,34.959c-33.633,0-60.898-15.651-60.898-34.959
				l0,0v9.767c0,19.307,27.265,34.958,60.898,34.958c33.633,0,60.898-15.652,60.898-34.958V130.634L184.812,130.634z"/>
		</g>
	</g>
</g>
<g id="Stairs">
	<g>
		<polygon style="fill:#BA68C8;" points="323.188,227.962 323.188,189.384 269.253,157.916 269.253,119.338 215.318,87.87 
			215.318,280.759 269.253,312.227 323.188,343.695 377.124,375.163 377.124,259.43 		"/>
		<polygon style="opacity:0.3;fill:#FFFFFF;" points="323.188,227.962 323.188,266.54 377.124,298.008 377.124,259.43 		"/>
		<polygon style="fill:#BA68C8;" points="377.123,259.43 377.123,298.008 323.188,329.476 323.188,368.054 269.253,399.522 
			269.253,438.099 323.188,406.631 377.123,375.163 431.059,343.695 431.059,227.962 		"/>
		<polygon style="opacity:0.1;fill:#FFFFFF;" points="377.123,259.43 377.123,298.008 323.188,329.476 323.188,368.054 
			269.253,399.522 269.253,438.099 323.188,406.631 377.123,375.163 431.059,343.695 431.059,227.962 		"/>
		<polygon style="fill:#BA68C8;" points="269.253,119.338 215.318,87.87 269.253,56.402 323.188,87.87 		"/>
		<polygon style="opacity:0.7;fill:#FFFFFF;" points="269.253,119.338 215.318,87.87 269.253,56.402 323.188,87.87 		"/>
		<polygon style="fill:#BA68C8;" points="269.253,157.916 269.253,119.338 323.188,87.87 323.188,126.448 		"/>
		<polygon style="opacity:0.1;" points="269.253,157.916 269.253,119.338 323.188,87.87 323.188,126.448 		"/>
		<polygon style="fill:#BA68C8;" points="323.188,189.384 269.253,157.916 323.188,126.448 377.123,157.916 		"/>
		<polygon style="fill:#BA68C8;" points="323.188,227.962 323.188,189.384 377.123,157.916 377.123,196.494 		"/>
		<polygon style="opacity:0.7;fill:#FFFFFF;" points="323.188,189.384 269.253,157.916 323.188,126.448 377.123,157.916 		"/>
		<polygon style="opacity:0.1;" points="323.188,227.962 323.188,189.384 377.123,157.916 377.123,196.494 		"/>
		<g>
			<polygon style="fill:#BA68C8;" points="377.124,259.43 323.188,227.962 377.123,196.494 431.059,227.962 			"/>
		</g>
		<g style="opacity:0.7;">
			<polygon style="fill:#FFFFFF;" points="377.124,259.43 323.188,227.962 377.123,196.494 431.059,227.962 			"/>
		</g>
		<polygon style="fill:#BA68C8;" points="323.188,329.476 377.124,298.008 323.189,266.54 269.253,298.008 		"/>
		<polygon style="opacity:0.7;fill:#FFFFFF;" points="323.188,329.476 377.124,298.008 323.189,266.54 269.253,298.008 		"/>
		<polygon style="fill:#BA68C8;" points="323.188,368.053 323.188,329.476 269.253,298.008 269.253,336.586 		"/>
		<polygon style="opacity:0.3;fill:#FFFFFF;" points="323.188,368.053 323.188,329.476 269.253,298.008 269.253,336.586 		"/>
		<g>
			<polygon style="fill:#BA68C8;" points="269.253,399.522 323.188,368.053 269.253,336.586 215.318,368.054 			"/>
			<polygon style="fill:#BA68C8;" points="269.253,438.099 269.253,399.522 215.318,368.054 215.318,406.631 			"/>
		</g>
		<polygon style="opacity:0.7;fill:#FFFFFF;" points="269.253,399.522 323.188,368.053 269.253,336.586 215.318,368.054 		"/>
		<polygon style="opacity:0.3;fill:#FFFFFF;" points="269.253,438.099 269.253,399.522 215.318,368.054 215.318,406.631 		"/>
		<polygon style="fill:#BA68C8;" points="312.763,361.968 258.828,393.44 225.753,374.143 279.687,342.671 		"/>
		<polygon style="opacity:0.4;fill:#FFFFFF;" points="312.763,361.968 258.828,393.44 225.753,374.143 279.687,342.671 		"/>
		<polygon style="fill:#BA68C8;" points="258.828,393.44 258.828,432.014 225.744,412.717 225.744,374.143 225.753,374.143 		"/>
		<polygon style="fill:#BA68C8;" points="366.697,291.922 312.763,323.394 279.687,304.098 333.621,272.625 		"/>
		<polygon style="opacity:0.4;fill:#FFFFFF;" points="366.697,291.922 312.763,323.394 279.687,304.098 333.621,272.625 		"/>
		<polygon style="fill:#BA68C8;" points="312.763,323.394 312.763,361.968 279.678,342.671 279.678,304.098 279.687,304.098 		"/>
		<polygon style="fill:#BA68C8;" points="366.697,253.348 366.697,291.922 333.612,272.625 333.612,234.052 333.621,234.052 		"/>
		<polygon style="fill:#BA68C8;" points="366.697,253.348 366.697,291.922 333.612,272.625 333.612,234.052 333.621,234.052 		"/>
		<polygon style="fill:#BA68C8;" points="279.679,151.83 333.613,183.302 366.688,164.006 312.754,132.534 		"/>
		<polygon style="opacity:0.5;fill:#FFFFFF;" points="279.679,151.83 333.613,183.302 366.688,164.006 312.754,132.534 		"/>
		<polygon style="fill:#BA68C8;" points="333.613,183.302 333.613,221.876 366.697,202.58 366.697,164.006 366.688,164.006 		"/>
		<polygon style="opacity:0.3;" points="333.613,183.302 333.613,221.876 366.697,202.58 366.697,164.006 366.688,164.006 		"/>
		<polygon style="fill:#BA68C8;" points="225.744,81.784 279.679,113.256 312.754,93.96 258.82,62.488 		"/>
		<polygon style="opacity:0.5;fill:#FFFFFF;" points="225.744,81.784 279.679,113.256 312.754,93.96 258.82,62.488 		"/>
		<polygon style="fill:#BA68C8;" points="279.679,113.256 279.679,151.83 312.763,132.534 312.763,93.96 312.754,93.96 		"/>
		<polygon style="opacity:0.3;" points="279.679,113.256 279.679,151.83 312.763,132.534 312.763,93.96 312.754,93.96 		"/>
		<polygon style="fill:#BA68C8;" points="377.12,208.668 366.686,202.575 333.611,221.872 344.045,227.964 333.62,234.047 
			366.696,253.344 377.12,247.261 410.196,227.964 		"/>
		<polygon style="opacity:0.4;fill:#FFFFFF;" points="377.12,208.668 366.686,202.575 333.611,221.872 344.045,227.964 
			333.62,234.047 366.696,253.344 377.12,247.261 410.196,227.964 		"/>
		<g>
			<path style="fill:#BA68C8;" d="M247.773,75.824c-0.081,0-0.163-0.021-0.239-0.065l-2.02-1.179
				c-0.229-0.134-0.307-0.429-0.175-0.66c0.132-0.232,0.425-0.309,0.653-0.177l2.02,1.179c0.229,0.134,0.307,0.429,0.175,0.66
				C248.099,75.738,247.937,75.824,247.773,75.824z"/>
			<path style="fill:#BA68C8;" d="M287.38,98.936c-0.081,0-0.163-0.021-0.239-0.065l-3.961-2.311
				c-0.229-0.134-0.307-0.429-0.175-0.66c0.132-0.232,0.426-0.31,0.653-0.177l3.961,2.311c0.229,0.133,0.307,0.429,0.175,0.66
				C287.706,98.85,287.545,98.936,287.38,98.936z M279.459,94.314c-0.081,0-0.163-0.021-0.239-0.065l-3.961-2.311
				c-0.229-0.133-0.307-0.429-0.175-0.66c0.132-0.231,0.426-0.309,0.653-0.177l3.961,2.311c0.229,0.134,0.307,0.429,0.175,0.66
				C279.785,94.227,279.624,94.314,279.459,94.314z M271.537,89.691c-0.081,0-0.164-0.021-0.239-0.065l-3.961-2.311
				c-0.229-0.134-0.307-0.429-0.175-0.66c0.132-0.232,0.425-0.309,0.653-0.177l3.961,2.311c0.229,0.133,0.307,0.429,0.175,0.66
				C271.863,89.605,271.702,89.691,271.537,89.691z M263.616,85.069c-0.081,0-0.163-0.021-0.239-0.065l-3.962-2.311
				c-0.229-0.134-0.307-0.429-0.175-0.66c0.131-0.231,0.425-0.31,0.653-0.177l3.962,2.311c0.229,0.134,0.307,0.429,0.175,0.66
				C263.942,84.982,263.78,85.069,263.616,85.069z M255.694,80.447c-0.081,0-0.163-0.021-0.239-0.065l-3.961-2.311
				c-0.229-0.134-0.307-0.429-0.175-0.66c0.132-0.232,0.425-0.31,0.653-0.177l3.961,2.311c0.229,0.134,0.307,0.429,0.175,0.66
				C256.02,80.36,255.858,80.447,255.694,80.447z"/>
			<path style="fill:#BA68C8;" d="M293.361,102.427c-0.081,0-0.164-0.021-0.239-0.065l-2.021-1.179
				c-0.229-0.133-0.307-0.429-0.175-0.66c0.132-0.232,0.425-0.31,0.653-0.177l2.02,1.179c0.229,0.133,0.307,0.429,0.175,0.66
				C293.687,102.34,293.526,102.427,293.361,102.427z"/>
		</g>
		<g style="opacity:0.3;">
			<path d="M247.773,75.824c-0.081,0-0.163-0.021-0.239-0.065l-2.02-1.179c-0.229-0.134-0.307-0.429-0.175-0.66
				c0.132-0.232,0.425-0.309,0.653-0.177l2.02,1.179c0.229,0.134,0.307,0.429,0.175,0.66
				C248.099,75.738,247.937,75.824,247.773,75.824z"/>
			<path d="M287.38,98.936c-0.081,0-0.163-0.021-0.239-0.065l-3.961-2.311c-0.229-0.134-0.307-0.429-0.175-0.66
				c0.132-0.232,0.426-0.31,0.653-0.177l3.961,2.311c0.229,0.133,0.307,0.429,0.175,0.66
				C287.706,98.85,287.545,98.936,287.38,98.936z M279.459,94.314c-0.081,0-0.163-0.021-0.239-0.065l-3.961-2.311
				c-0.229-0.133-0.307-0.429-0.175-0.66c0.132-0.231,0.426-0.309,0.653-0.177l3.961,2.311c0.229,0.134,0.307,0.429,0.175,0.66
				C279.785,94.227,279.624,94.314,279.459,94.314z M271.537,89.691c-0.081,0-0.164-0.021-0.239-0.065l-3.961-2.311
				c-0.229-0.134-0.307-0.429-0.175-0.66c0.132-0.232,0.425-0.309,0.653-0.177l3.961,2.311c0.229,0.133,0.307,0.429,0.175,0.66
				C271.863,89.605,271.702,89.691,271.537,89.691z M263.616,85.069c-0.081,0-0.163-0.021-0.239-0.065l-3.962-2.311
				c-0.229-0.134-0.307-0.429-0.175-0.66c0.131-0.231,0.425-0.31,0.653-0.177l3.962,2.311c0.229,0.134,0.307,0.429,0.175,0.66
				C263.942,84.982,263.78,85.069,263.616,85.069z M255.694,80.447c-0.081,0-0.163-0.021-0.239-0.065l-3.961-2.311
				c-0.229-0.134-0.307-0.429-0.175-0.66c0.132-0.232,0.425-0.31,0.653-0.177l3.961,2.311c0.229,0.134,0.307,0.429,0.175,0.66
				C256.02,80.36,255.858,80.447,255.694,80.447z"/>
			<path d="M293.361,102.427c-0.081,0-0.164-0.021-0.239-0.065l-2.021-1.179c-0.229-0.133-0.307-0.429-0.175-0.66
				c0.132-0.232,0.425-0.31,0.653-0.177l2.02,1.179c0.229,0.133,0.307,0.429,0.175,0.66
				C293.687,102.34,293.526,102.427,293.361,102.427z"/>
		</g>
		<g>
			<path style="fill:#BA68C8;" d="M301.423,145.699c-0.081,0-0.163-0.021-0.239-0.065l-2.02-1.18
				c-0.229-0.133-0.307-0.429-0.175-0.66c0.132-0.232,0.426-0.309,0.653-0.177l2.02,1.18c0.229,0.134,0.307,0.429,0.175,0.66
				C301.748,145.613,301.587,145.699,301.423,145.699z"/>
			<path style="fill:#BA68C8;" d="M341.074,168.838c-0.081,0-0.163-0.021-0.239-0.065l-3.965-2.314
				c-0.229-0.133-0.307-0.429-0.175-0.66c0.132-0.231,0.425-0.309,0.653-0.177l3.965,2.314c0.229,0.134,0.307,0.429,0.175,0.66
				C341.4,168.751,341.239,168.838,341.074,168.838z M333.144,164.21c-0.081,0-0.163-0.021-0.239-0.065l-3.965-2.314
				c-0.229-0.134-0.307-0.429-0.175-0.66c0.131-0.232,0.425-0.31,0.653-0.177l3.965,2.314c0.229,0.134,0.307,0.429,0.175,0.66
				C333.47,164.124,333.308,164.21,333.144,164.21z M325.213,159.582c-0.081,0-0.164-0.021-0.239-0.065l-3.965-2.314
				c-0.229-0.134-0.307-0.429-0.175-0.66c0.132-0.232,0.424-0.309,0.653-0.177l3.965,2.314c0.229,0.133,0.307,0.429,0.175,0.66
				C325.539,159.496,325.378,159.582,325.213,159.582z M317.284,154.954c-0.081,0-0.164-0.021-0.239-0.065l-3.965-2.314
				c-0.229-0.134-0.307-0.429-0.175-0.66c0.132-0.232,0.425-0.31,0.653-0.177l3.965,2.314c0.229,0.134,0.307,0.429,0.175,0.66
				C317.61,154.868,317.448,154.954,317.284,154.954z M309.353,150.327c-0.081,0-0.164-0.021-0.239-0.065l-3.965-2.314
				c-0.229-0.133-0.307-0.429-0.175-0.66c0.132-0.231,0.425-0.309,0.653-0.177l3.965,2.314c0.229,0.133,0.307,0.429,0.175,0.66
				C309.679,150.24,309.518,150.327,309.353,150.327z"/>
			<path style="fill:#BA68C8;" d="M347.059,172.33c-0.081,0-0.164-0.021-0.239-0.065l-2.02-1.179
				c-0.229-0.134-0.307-0.43-0.175-0.66c0.134-0.232,0.425-0.31,0.653-0.177l2.02,1.179c0.229,0.133,0.307,0.43,0.175,0.66
				C347.384,172.244,347.224,172.33,347.059,172.33z"/>
		</g>
		<g style="opacity:0.3;">
			<path d="M301.423,145.699c-0.081,0-0.163-0.021-0.239-0.065l-2.02-1.18c-0.229-0.133-0.307-0.429-0.175-0.66
				c0.132-0.232,0.426-0.309,0.653-0.177l2.02,1.18c0.229,0.134,0.307,0.429,0.175,0.66
				C301.748,145.613,301.587,145.699,301.423,145.699z"/>
			<path d="M341.074,168.838c-0.081,0-0.163-0.021-0.239-0.065l-3.965-2.314c-0.229-0.133-0.307-0.429-0.175-0.66
				c0.132-0.231,0.425-0.309,0.653-0.177l3.965,2.314c0.229,0.134,0.307,0.429,0.175,0.66
				C341.4,168.751,341.239,168.838,341.074,168.838z M333.144,164.21c-0.081,0-0.163-0.021-0.239-0.065l-3.965-2.314
				c-0.229-0.134-0.307-0.429-0.175-0.66c0.131-0.232,0.425-0.31,0.653-0.177l3.965,2.314c0.229,0.134,0.307,0.429,0.175,0.66
				C333.47,164.124,333.308,164.21,333.144,164.21z M325.213,159.582c-0.081,0-0.164-0.021-0.239-0.065l-3.965-2.314
				c-0.229-0.134-0.307-0.429-0.175-0.66c0.132-0.232,0.424-0.309,0.653-0.177l3.965,2.314c0.229,0.133,0.307,0.429,0.175,0.66
				C325.539,159.496,325.378,159.582,325.213,159.582z M317.284,154.954c-0.081,0-0.164-0.021-0.239-0.065l-3.965-2.314
				c-0.229-0.134-0.307-0.429-0.175-0.66c0.132-0.232,0.425-0.31,0.653-0.177l3.965,2.314c0.229,0.134,0.307,0.429,0.175,0.66
				C317.61,154.868,317.448,154.954,317.284,154.954z M309.353,150.327c-0.081,0-0.164-0.021-0.239-0.065l-3.965-2.314
				c-0.229-0.133-0.307-0.429-0.175-0.66c0.132-0.231,0.425-0.309,0.653-0.177l3.965,2.314c0.229,0.133,0.307,0.429,0.175,0.66
				C309.679,150.24,309.518,150.327,309.353,150.327z"/>
			<path d="M347.059,172.33c-0.081,0-0.164-0.021-0.239-0.065l-2.02-1.179c-0.229-0.134-0.307-0.43-0.175-0.66
				c0.134-0.232,0.425-0.31,0.653-0.177l2.02,1.179c0.229,0.133,0.307,0.43,0.175,0.66
				C347.384,172.244,347.224,172.33,347.059,172.33z"/>
		</g>
		<g>
			<path style="fill:#BA68C8;" d="M350.164,244.171c-0.164,0-0.326-0.087-0.414-0.242c-0.133-0.231-0.054-0.527,0.175-0.66
				l2.021-1.179c0.229-0.134,0.522-0.054,0.653,0.177c0.133,0.231,0.054,0.527-0.175,0.66l-2.021,1.179
				C350.328,244.151,350.245,244.171,350.164,244.171z"/>
			<path style="fill:#BA68C8;" d="M356.769,240.317c-0.164,0-0.326-0.086-0.414-0.242c-0.133-0.231-0.054-0.527,0.175-0.66
				l4.584-2.675c0.227-0.133,0.521-0.056,0.653,0.177c0.133,0.231,0.054,0.527-0.175,0.66l-4.584,2.675
				C356.933,240.297,356.85,240.317,356.769,240.317z M365.937,234.967c-0.164,0-0.326-0.086-0.414-0.242
				c-0.133-0.231-0.054-0.527,0.175-0.66l4.584-2.675c0.228-0.133,0.521-0.055,0.653,0.177c0.133,0.231,0.054,0.527-0.175,0.66
				l-4.584,2.675C366.101,234.946,366.019,234.967,365.937,234.967z"/>
			<path style="fill:#BA68C8;" d="M375.106,229.617c-0.164,0-0.326-0.086-0.414-0.242c-0.133-0.231-0.054-0.527,0.175-0.66
				l1.298-0.758l-1.297-0.756c-0.229-0.133-0.307-0.429-0.175-0.66c0.131-0.232,0.424-0.309,0.653-0.177l2.02,1.179
				c0.188,0.109,0.279,0.332,0.223,0.544c-0.042,0.155-0.155,0.276-0.298,0.329l-1.948,1.137
				C375.269,229.596,375.187,229.617,375.106,229.617z"/>
			<path style="fill:#BA68C8;" d="M371.126,224.943c-0.081,0-0.164-0.021-0.239-0.065l-3.981-2.323
				c-0.229-0.134-0.307-0.429-0.175-0.66c0.132-0.232,0.425-0.31,0.653-0.177l3.981,2.323c0.229,0.134,0.307,0.429,0.175,0.66
				C371.452,224.857,371.291,224.943,371.126,224.943z M363.165,220.297c-0.081,0-0.164-0.021-0.239-0.065l-3.981-2.323
				c-0.229-0.133-0.307-0.429-0.175-0.66c0.132-0.231,0.425-0.309,0.653-0.177l3.981,2.323c0.229,0.134,0.307,0.429,0.175,0.66
				C363.491,220.211,363.329,220.297,363.165,220.297z"/>
			<path style="fill:#BA68C8;" d="M355.203,215.651c-0.081,0-0.163-0.021-0.239-0.065l-2.02-1.179
				c-0.229-0.134-0.307-0.429-0.175-0.66c0.132-0.232,0.424-0.309,0.653-0.177l2.02,1.179c0.229,0.133,0.307,0.429,0.175,0.66
				C355.529,215.564,355.367,215.651,355.203,215.651z"/>
		</g>
		<g>
			<path style="fill:#BA68C8;" d="M348.134,283.924c-0.164,0-0.326-0.086-0.414-0.242c-0.133-0.231-0.054-0.527,0.175-0.66
				l2.021-1.179c0.228-0.134,0.521-0.056,0.653,0.177c0.133,0.231,0.054,0.527-0.175,0.66l-2.02,1.179
				C348.298,283.904,348.216,283.924,348.134,283.924z"/>
			<path style="fill:#BA68C8;" d="M302.092,310.793c-0.164,0-0.326-0.086-0.414-0.242c-0.133-0.231-0.054-0.527,0.175-0.66
				l3.836-2.239c0.229-0.133,0.521-0.055,0.653,0.177c0.133,0.231,0.054,0.527-0.175,0.66l-3.836,2.239
				C302.255,310.772,302.173,310.793,302.092,310.793z M309.765,306.315c-0.164,0-0.326-0.086-0.414-0.242
				c-0.133-0.231-0.054-0.527,0.175-0.66l3.837-2.239c0.228-0.134,0.521-0.056,0.653,0.177c0.133,0.231,0.054,0.527-0.175,0.66
				l-3.837,2.239C309.929,306.294,309.846,306.315,309.765,306.315z M317.439,301.837c-0.164,0-0.326-0.086-0.414-0.242
				c-0.133-0.231-0.054-0.527,0.175-0.66l3.837-2.239c0.228-0.134,0.521-0.055,0.653,0.177c0.133,0.231,0.054,0.527-0.175,0.66
				l-3.837,2.239C317.602,301.816,317.52,301.837,317.439,301.837z M325.113,297.359c-0.164,0-0.326-0.086-0.414-0.242
				c-0.133-0.231-0.054-0.527,0.175-0.66l3.836-2.239c0.228-0.133,0.521-0.055,0.653,0.177c0.133,0.231,0.054,0.527-0.175,0.66
				l-3.836,2.239C325.277,297.338,325.195,297.359,325.113,297.359z M332.787,292.881c-0.164,0-0.326-0.086-0.414-0.242
				c-0.133-0.231-0.054-0.527,0.175-0.66l3.837-2.239c0.228-0.134,0.521-0.056,0.653,0.177c0.133,0.231,0.054,0.527-0.175,0.66
				l-3.837,2.239C332.951,292.86,332.868,292.881,332.787,292.881z M340.461,288.402c-0.164,0-0.326-0.086-0.414-0.242
				c-0.133-0.231-0.054-0.527,0.175-0.66l3.837-2.239c0.228-0.133,0.521-0.055,0.653,0.177c0.133,0.231,0.054,0.527-0.175,0.66
				l-3.837,2.239C340.624,288.382,340.542,288.402,340.461,288.402z"/>
			<path style="fill:#BA68C8;" d="M296.234,314.211c-0.164,0-0.326-0.086-0.414-0.242c-0.133-0.231-0.054-0.527,0.175-0.66
				l2.021-1.179c0.229-0.134,0.522-0.056,0.653,0.177c0.133,0.231,0.054,0.527-0.175,0.66l-2.02,1.179
				C296.397,314.19,296.315,314.211,296.234,314.211z"/>
		</g>
		<g>
			<path style="fill:#BA68C8;" d="M294.204,353.964c-0.164,0-0.326-0.086-0.414-0.242c-0.133-0.231-0.054-0.527,0.175-0.66
				l2.021-1.179c0.228-0.134,0.521-0.055,0.653,0.177c0.133,0.231,0.054,0.527-0.175,0.66l-2.02,1.179
				C294.367,353.943,294.285,353.964,294.204,353.964z"/>
			<path style="fill:#BA68C8;" d="M248.16,380.833c-0.164,0-0.326-0.086-0.414-0.242c-0.133-0.231-0.054-0.527,0.175-0.66
				l3.837-2.239c0.228-0.134,0.521-0.055,0.653,0.177c0.133,0.231,0.054,0.527-0.175,0.66l-3.837,2.239
				C248.324,380.812,248.242,380.833,248.16,380.833z M255.834,376.355c-0.164,0-0.326-0.086-0.414-0.242
				c-0.133-0.231-0.054-0.527,0.175-0.66l3.837-2.239c0.228-0.134,0.521-0.056,0.653,0.177c0.133,0.231,0.054,0.527-0.175,0.66
				l-3.837,2.239C255.997,376.334,255.915,376.355,255.834,376.355z M263.509,371.876c-0.164,0-0.326-0.086-0.414-0.242
				c-0.133-0.231-0.054-0.527,0.175-0.66l3.836-2.239c0.227-0.133,0.521-0.055,0.653,0.177c0.133,0.231,0.054,0.527-0.175,0.66
				l-3.836,2.239C263.672,371.856,263.59,371.876,263.509,371.876z M271.182,367.398c-0.164,0-0.326-0.086-0.414-0.242
				c-0.133-0.231-0.054-0.527,0.175-0.66l3.837-2.239c0.228-0.134,0.521-0.056,0.653,0.177c0.133,0.231,0.054,0.527-0.175,0.66
				l-3.837,2.239C271.346,367.378,271.263,367.398,271.182,367.398z M278.856,362.92c-0.164,0-0.326-0.086-0.414-0.242
				c-0.133-0.231-0.054-0.527,0.175-0.66l3.837-2.239c0.228-0.134,0.521-0.055,0.653,0.177c0.133,0.231,0.054,0.527-0.175,0.66
				l-3.837,2.239C279.019,362.899,278.937,362.92,278.856,362.92z M286.529,358.442c-0.164,0-0.326-0.086-0.414-0.242
				c-0.133-0.231-0.054-0.527,0.175-0.66l3.837-2.239c0.228-0.133,0.521-0.055,0.653,0.177c0.133,0.231,0.054,0.527-0.175,0.66
				l-3.837,2.239C286.693,358.421,286.611,358.442,286.529,358.442z"/>
			<path style="fill:#BA68C8;" d="M242.304,384.251c-0.164,0-0.326-0.086-0.414-0.242c-0.133-0.231-0.054-0.527,0.175-0.66
				l2.02-1.179c0.228-0.133,0.521-0.056,0.653,0.177c0.133,0.231,0.054,0.527-0.175,0.66l-2.02,1.179
				C242.467,384.23,242.385,384.251,242.304,384.251z"/>
		</g>
		<g>
			<path style="fill:#455A64;" d="M273.864,90.564c-2.548,1.487-6.68,1.487-9.229,0c-2.548-1.487-2.548-3.897,0-5.384
				s6.68-1.487,9.229,0C276.412,86.667,276.412,89.077,273.864,90.564z"/>
			<polygon style="fill:#BA68C8;" points="269.253,61.962 269.253,40.3 297.239,51.131 			"/>
			<path style="fill:#263238;" d="M269.25,88.839c-0.529,0-0.957-0.433-0.957-0.967V36.051c0-0.534,0.428-0.967,0.957-0.967
				c0.529,0,0.956,0.433,0.956,0.967v51.821C270.206,88.406,269.778,88.839,269.25,88.839z"/>
		</g>
		<g>
			
				<text transform="matrix(0.857 -0.5 0 1 285.6335 131.8277)" style="fill:#F4F4F4; font-family:'Montserrat-Black'; font-size:9.4312px;">2060</text>
			
				<text transform="matrix(0.857 -0.5 0 1 339.7379 201.7747)" style="fill:#F4F4F4; font-family:'Montserrat-Black'; font-size:9.4312px;">2050</text>
			<g>
				
					<text transform="matrix(0.857 0.5 0 1 339.3271 259.4045)" style="fill:#F4F4F4; font-family:'Montserrat-Black'; font-size:9.4312px;">2040</text>
			</g>
			<g>
				
					<text transform="matrix(0.857 0.5 0 1 285.7887 329.6805)" style="fill:#F4F4F4; font-family:'Montserrat-Black'; font-size:9.4312px;">2030</text>
			</g>
			<g>
				
					<text transform="matrix(0.857 0.5 0 1 231.8792 402.3485)" style="fill:#F4F4F4; font-family:'Montserrat-Black'; font-size:9.4312px;">2020</text>
			</g>
		</g>
	</g>
</g>
<g id="Character">
	<g>
		<g>
			<rect x="209.908" y="254.921" style="fill:#FFA8A7;" width="11.703" height="18.863"/>
			<path style="fill:#F28F8F;" d="M228.6,250.597l2.781,4.016c0.245,0.354,0.203,0.836-0.106,1.134
				c-0.583,0.563-1.596,1.356-2.675,1.356V250.597z"/>
			<path style="fill:#FFA8A7;" d="M216.88,235.813c0,0,9.113-6.465,11.973,16.023c2.375,18.672-9.214,14.392-13.522,11.818
				c-4.308-2.575-12.549-10.367-7.132-21.303C210.677,237.35,216.88,235.813,216.88,235.813z"/>
			<g>
				<path style="fill:#263238;" d="M225.278,243.028c0,0,0.074,4.087-3.668,4.292c0,0,1.314,1.226,1.314,3.883
					c0,2.657-0.91,2.146-1.314,1.635c-0.404-0.511-4.55,0-4.55,0l2.124,3.985c0,0,1.112,4.496-2.932,8.277c0,0-5.561,1.533-8.089,0
					c0,0-6.977-7.766-8.292-13.284c-1.314-5.518-1.314-10.321,1.921-12.569c0,0,1.011-6.949,8.393-6.949
					c7.382,0,9.559,1.904,13.55,1.022c1.618-0.358,4.045-1.533,4.045,0.102c0,1.635-1.972,2.963-1.972,2.963
					s1.972-0.102,3.084-0.204c1.112-0.102,3.489-0.46,3.084,2.657C231.57,241.955,228.743,243.539,225.278,243.028z"/>
				<path style="fill:#263238;" d="M202.768,239.486c0,0-1.936-3.913-4.356-1.657c-0.081,0.076-0.066,0.215,0.028,0.272l4.328,2.611
					V239.486z"/>
			</g>
			<path style="fill:#FFA8A7;" d="M221.61,252.838v6.073c0,0-6.279-0.124-6.279-4.768
				C215.332,249.857,220.38,250.816,221.61,252.838z"/>
		</g>
		<g>
			<path style="fill:#253239;" d="M175.719,410.37c0,0-0.287,8.07,10.916,11.382C186.634,421.752,188.3,410.37,175.719,410.37z"/>
			<g>
				<path style="fill:#37474F;" d="M184.449,428.533v-4.86c0-2.087,0.961-4.055,2.599-5.326c0,0-1.656-7.083-8.383-6.67
					c0,0-2.924,0.896-5.368,4.222c-0.973,1.324-1.326,3.017-0.967,4.625l0,0l0,0c-0.178-0.799,0.606-1.47,1.357-1.161l1.625,0.669
					c2.038,0.839,3.53,2.646,3.981,4.822l1.986,9.445c0.377,1.795,1.786,3.255,3.584,3.492c0.035,0.005,0.07,0.007,0.105,0.01
					c0.184,0.02,0.37,0.031,0.557,0.031c0.049,0,0.097-0.002,0.146-0.003c0.179-0.005,0.359-0.02,0.539-0.045
					c0.049-0.007,0.098-0.013,0.147-0.021c0.187-0.031,0.374-0.074,0.559-0.128c0.038-0.011,0.076-0.019,0.113-0.031
					c0.221-0.069,0.44-0.151,0.656-0.253c0.22-0.103,0.437-0.22,0.648-0.358l1.703-1.114c0.499-0.326,0.794-0.892,0.763-1.491
					C190.701,432.485,189.85,428.533,184.449,428.533z"/>
				<path style="fill:#263238;" d="M190.035,435.88l-1.703,1.114c-0.211,0.138-0.428,0.255-0.648,0.358
					c-0.216,0.101-0.435,0.184-0.656,0.253c-0.038,0.012-0.076,0.02-0.113,0.031c-0.185,0.053-0.372,0.096-0.559,0.128
					c-0.049,0.008-0.098,0.014-0.147,0.021c-0.068,0.009-0.137,0.011-0.205,0.017c-0.111,0.011-0.223,0.025-0.334,0.028
					c-0.049,0.001-0.097,0.003-0.146,0.003c-0.067,0-0.133-0.008-0.2-0.011c-0.12-0.005-0.239-0.007-0.357-0.02
					c-0.035-0.004-0.07-0.006-0.104-0.01c-1.767-0.233-3.152-1.649-3.557-3.401c-0.007-0.031-0.02-0.06-0.026-0.091l-1.986-9.445
					c-0.452-2.176-1.944-3.984-3.981-4.822l-1.625-0.669c-0.704-0.327-1.166,0.228-1.461,0.51c-0.297,0.284-0.782,0.816-0.532,1.937
					l1.957,8.789c0.449,2.016,1.64,3.784,3.332,4.944l4.266,2.926c1.427,0.913,3.159,1.115,4.736,0.617l0.05-0.003l0.099-0.043
					c0.3-0.104,0.597-0.225,0.881-0.382l0.034-0.019l1.833-0.992c0.805-0.436,1.354-1.215,1.523-2.102
					C190.297,435.67,190.177,435.787,190.035,435.88z"/>
			</g>
			<path style="fill:#FFA8A7;" d="M177.277,412.317c0,0,7.684,0.747,7.65,8.863l4.77-7.444l-7.824-8.186L177.277,412.317z"/>
			<path style="fill:#455A64;" d="M194.362,318.315v12.947c0,5.146,0.232,10.29,0.697,15.414l1.571,17.337
				c0.388,4.284-1.102,8.533-4.12,11.566c-1.84,1.848-3.954,4.524-5.875,8.298c-4.759,9.354-10.916,26.492-10.916,26.492
				s10.916,0.017,10.916,11.382l24.842-41.478c1.759-2.937,2.865-6.225,3.243-9.637l5.243-47.415L194.362,318.315z"/>
		</g>
		<g>
			<g>
				<path style="fill:#263238;" d="M249.058,392.927c0.46,0.818,1.177,1.48,2.051,1.867l0.104,0.046
					c1.809,0.801,3.854,0.868,5.712,0.188l15.814-5.753c1.126-0.482,1.139-2.158,1.067-2.847h-24.748V392.927z"/>
				<path style="fill:#37474F;" d="M249.991,383.562c0,0-2.227,2.319-1.411,6.705c0.263,1.411,1.229,2.587,2.53,3.163l0.104,0.046
					c1.809,0.801,3.854,0.868,5.712,0.188l15.814-5.753c0.811-0.297,1.245-1.176,1.008-2.015c-0.724-2.57-3.311-5.155-9.289-3.589
					c-1.98,0.519-3.843,1.013-4.648,0.961l-0.8-1.233L249.991,383.562z"/>
			</g>
			<path style="fill:#FFA8A7;" d="M259.81,383.269L259.81,383.269c-0.828,2.223-3.973,3.009-7.663,1.775
				c-0.834-0.279-1.606-0.727-2.296-1.276l0,0v-8.788h9.959V383.269z"/>
			<path style="fill:#455A64;" d="M205.683,321.631v1.477c0,9.228,6.162,17.294,14.996,19.63l25.483,6.739
				c0.738,0.195,1.254,0.869,1.254,1.641v30.419c0,0,12.302,6.183,15.869-3.397v-32.865c0-5.506-3.346-10.446-8.425-12.438
				l-26.453-10.376L205.683,321.631z"/>
		</g>
		<path style="fill:#37474F;" d="M216.823,351.605l0.969-10.055c0,0-8.207-2.748-9.466-6.522c-0.419,3.915,5.071,7.49,6.45,8.289
			C215.317,346.352,216.823,351.605,216.823,351.605z"/>
		<g>
			<path style="fill:#37474F;" d="M207.737,273.373c0,0,0.235-4.831,1.891-4.831c1.33,0,8.073,1.912,10.676,2.664
				c0.703,0.203,1.312,0.649,1.708,1.271c0.725,1.138,1.769,3.121,1.769,5.104L207.737,273.373z"/>
			<g>
				<path style="fill:#FFA8A7;" d="M237.521,289.945c0,0,7.525-7.666,8.592-6.994c1.296,0.816-0.277,3.772-1.461,5.017l5.909-3.862
					c0.78-0.51,1.816-0.241,2.269,0.578c1.652,2.987,3.429,10.013-12.359,14.637L237.521,289.945z"/>
				<path style="fill:#263238;" d="M242.704,300.198c0,0-3.927,1.801-9.03,4.027c-8.52,3.72-20.31,8.627-22.471,8.278
					c-6.327-1.021-11.954-2.433-16.745-3.919l1.093-15.161l16.317,4.799l24.459-9.59l1.035-0.407
					C244.265,290.749,242.704,300.198,242.704,300.198z"/>
				<path style="fill:#37474F;" d="M205.703,270.858l-6.096-1.673c-4.213-1.156-8.361,2.05-8.361,6.461v2.175
					c0,5.723,2.686,11.107,7.24,14.509l7.092,5.299L205.703,270.858z"/>
			</g>
			<path style="fill:#263238;" d="M231.785,312.652l4.765,21.454c0,0-13.212,6.634-27.516,2.449
				c-14.296-4.176-16.03-7.763-16.03-7.763l1.454-20.209l1.093-15.161l1.274-17.668c0.263-3.687,3.746-6.244,7.296-5.364
				l20.064,4.982c6.376,1.611,11.084,6.883,12.143,13.26c0.148,0.897,0.222,1.81,0.222,2.74l-2.876,12.853L231.785,312.652z"/>
			<g>
				<path style="fill:#FFA8A7;" d="M241.329,338.095c0,0,7.871,7.147,7.369,8.298c-0.508,1.165-3.742-0.078-5.035-1.208l4.131,5.757
					c0.545,0.76,0.335,1.82-0.45,2.321c-2.863,1.826-9.712,3.993-15.122-11.693L241.329,338.095z"/>
				<path style="fill:#37474F;" d="M227.263,276.491c0,0-7.289,14.001-9.625,36.25c-0.368,3.508,13.835,31.128,13.835,31.128
					s9.421,1.072,11.547-6.027l-11.236-25.189l4.71-20.343c0.413-1.782,0.387-3.638-0.105-5.399
					C235.42,283.446,233.025,278.154,227.263,276.491z"/>
			</g>
		</g>
	</g>
	<path style="fill:#DFDFDF;" d="M148.134,438.675"/>
</g>
<g id="Clouds">
	<g>
		<path style="fill:#E6E6E6;" d="M375.665,100.168l10.094,5.804v-3.61c-0.016-0.257-0.032-0.514-0.032-0.767
			c0-0.252,0.016-0.491,0.032-0.729v-0.085l0.004,0.002c0.363-4.785,3.948-6.619,8.324-4.065c1.864,1.088,3.58,2.809,4.97,4.824
			c0.987-6.499,6.233-8.844,12.574-5.144c7.045,4.11,12.756,14.106,12.756,22.326l0.006,7.734c0.001,1.246,0.655,2.398,1.718,3.028
			l5.938,3.52c2.62,1.553,4.229,4.393,4.229,7.463c0,2.743-2.939,4.457-5.289,3.085l-55.172-32.207
			c-2.982-1.741-4.818-4.956-4.818-8.436C370.999,100.49,373.584,98.971,375.665,100.168z"/>
		<path style="fill:#E6E6E6;" d="M368.472,53.134l6.519,3.748v-2.332c-0.01-0.166-0.021-0.332-0.021-0.495
			c0-0.163,0.01-0.317,0.021-0.471V53.53l0.002,0.001c0.234-3.09,2.55-4.274,5.376-2.626c1.204,0.702,2.312,1.814,3.21,3.116
			c0.637-4.197,4.025-5.712,8.121-3.322c4.55,2.654,8.238,9.11,8.238,14.419l0.004,4.995c0.001,0.804,0.423,1.548,1.109,1.955
			l3.835,2.273c1.692,1.003,2.732,2.837,2.732,4.82c0,1.772-1.898,2.879-3.416,1.993l-35.632-20.8
			c-1.926-1.124-3.112-3.201-3.112-5.448C365.459,53.342,367.128,52.361,368.472,53.134z"/>
	</g>
</g>
</svg>
